<svg width="220" height="69" viewBox="0 0 220 69" fill="none" xmlns="http://www.w3.org/2000/svg">
<path d="M208.055 7.39063L207.453 8.67969L207.023 9.625L206.25 11.2578L205.906 11.8594L205.391 12.8906L205.047 13.6641L204.617 14.6094L204.273 15.2109L203.758 16.3281L203.5 16.9297L202.898 18.1328L202.383 19.1641L201.523 20.8828L201.18 21.5703L199.633 24.6641C199.375 24.4922 199.117 24.4063 198.945 24.2344L202.727 16.5L202.984 15.8984L203.5 14.7813L203.844 14.1797L204.273 13.3203L204.617 12.5469L207.281 7.21875C207.539 7.21875 207.797 7.30469 208.055 7.39063Z" fill="#FFC087"/>
<path d="M210.375 23.9766C210.203 24.1484 209.945 24.2344 209.773 24.4062L209.086 21.4844L209.773 21.7422L210.375 23.9766Z" fill="black"/>
<path d="M211.578 22.8594C211.492 22.9453 211.406 23.1172 211.234 23.2031L211.148 22.6875L211.578 22.8594Z" fill="black"/>
<path d="M210.117 8.50781L208.742 9.02344L209.086 8.07812L209.344 7.99219C209.602 8.16406 209.859 8.33594 210.117 8.50781Z" fill="black"/>
<path d="M211.578 9.88281L207.539 11.2578L207.711 10.6562L211.148 9.45312C211.406 9.625 211.492 9.79687 211.578 9.88281Z" fill="black"/>
<path d="M201.008 8.59375L200.492 7.5625C200.75 7.47656 200.922 7.39063 201.18 7.30469L201.352 7.73438L201.008 8.59375Z" fill="black"/>
<path d="M200.062 10.6562L198.773 8.59375C199.031 8.42188 199.203 8.25 199.461 8.16406L200.492 9.79687L200.062 10.6562Z" fill="black"/>
<path d="M199.117 12.7188L197.312 9.88281C197.484 9.71094 197.656 9.53906 197.828 9.36719L199.461 12.0313L199.117 12.7188Z" fill="black"/>
<path d="M198.172 14.7813L196.195 11.5156C196.281 11.3437 196.453 11.1719 196.539 11L198.43 14.0937L198.172 14.7813Z" fill="black"/>
<path d="M196.023 19.4219L195.852 20.0234L195.594 19.9375C195.508 19.6797 195.422 19.4219 195.336 19.1641L196.023 19.4219Z" fill="black"/>
<path d="M196.625 18.2188L194.906 17.5312C194.906 17.3594 194.82 17.1016 194.82 16.9297L196.711 17.7031L196.625 18.2188Z" fill="black"/>
<path d="M197.484 15.8984L197.398 16.5859L194.906 15.2969C194.906 15.0391 194.992 14.7813 194.992 14.6094L197.484 15.8984Z" fill="black"/>
<path d="M196.281 12.8906L196.539 13.9219L195.336 13.3203C195.422 13.0625 195.508 12.8047 195.594 12.5469L196.281 12.8906Z" fill="black"/>
<path d="M212.781 11.5156L208.055 12.9766L207.539 12.6328L212.437 11C212.609 11.1719 212.695 11.3437 212.781 11.5156Z" fill="black"/>
<path d="M213.555 13.2344L210.461 14.2656L209.945 13.75L213.383 12.6328C213.469 12.8906 213.555 13.0625 213.555 13.2344Z" fill="black"/>
<path d="M214.07 15.3828L213.039 15.7266L212.266 15.125L213.898 14.4375C213.984 14.7813 214.07 15.125 214.07 15.3828Z" fill="black"/>
<path d="M208.656 25.0938C208.484 25.1797 208.227 25.2656 208.055 25.3516L206.68 20.1094L207.539 20.5391L208.656 25.0938Z" fill="black"/>
<path d="M206.766 25.6953C206.508 25.7812 206.25 25.7813 205.992 25.8672L204.273 18.9062L205.219 19.3359L206.766 25.6953Z" fill="black"/>
<path d="M204.875 25.9531C204.789 25.9531 204.617 25.9531 204.531 25.9531C204.359 25.9531 204.273 25.9531 204.102 25.9531L202.812 21.0547L203.328 20.0234L204.875 25.9531Z" fill="black"/>
<path d="M202.727 25.8672C202.555 25.8672 202.383 25.7812 202.211 25.7812L201.695 23.7187L202.039 22.9453L202.727 25.8672Z" fill="black"/>
<path d="M206.078 6.875L203.672 11.9453L203.328 12.7188L202.898 13.5781L202.555 14.1797L202.039 15.2969L201.781 15.8984L198.086 23.5469C197.828 23.375 197.656 23.1172 197.484 22.9453L201.008 15.5547L201.266 14.9531L201.781 13.8359L202.125 13.2344L202.555 12.375L202.898 11.6016L205.219 6.78906C205.477 6.78906 205.82 6.78906 206.078 6.875Z" fill="#FFC087"/>
<path d="M203.844 6.70313L201.781 10.9141L201.523 11.4297L201.437 11.6016L201.094 12.2891L201.008 12.4609L200.664 13.0625L200.148 14.1797L199.891 14.7813L196.539 21.7422C196.367 21.5703 196.281 21.3984 196.195 21.1406L197.484 18.4766L197.742 17.9609L199.891 13.5781L200.578 12.2031L201.008 11.3438L201.352 10.5703L201.781 9.71094L202.211 8.85156L203.242 6.61719C203.414 6.78906 203.586 6.78906 203.844 6.70313Z" fill="#FFC087"/>
<path d="M212.781 21.3125C212.695 21.4844 212.523 21.6563 212.437 21.9141L204.617 17.5313L204.961 17.0156L212.781 21.3125Z" fill="black"/>
<path d="M213.555 19.5078C213.469 19.7656 213.383 19.9375 213.297 20.1953L205.391 15.8125L205.648 15.125L213.555 19.5078Z" fill="black"/>
<path d="M214.07 17.5312C214.07 17.7891 213.984 18.0469 213.984 18.3047L206.25 14.1797L206.594 13.4922L214.07 17.5312Z" fill="black"/>
<path d="M32.4844 39.4453H46.1484V9.36719C46.1484 6.27344 46.5781 3.86719 47.5234 2.32031C48.3828 0.773438 49.5 0 50.7031 0C51.3047 0 51.9062 0.171875 52.5078 0.515625C53.1094 0.859375 53.5391 1.28906 53.9687 1.80469C54.3984 2.40625 54.7422 2.92187 55 3.4375C55.2578 3.95313 55.3438 4.38281 55.3438 4.72656C55.3438 5.07031 55.2578 5.24219 55 5.24219C54.7422 5.24219 54.4844 5.41406 54.2266 5.67187C53.9687 5.92969 53.625 6.44531 53.4531 7.30469C53.1953 8.07812 53.1094 9.45313 53.1094 11.2578V66.3437C53.1094 67.1172 52.8516 67.6328 52.3359 67.8906C51.8203 68.1484 51.2188 68.3203 50.6172 68.3203C50.1016 68.3203 49.5859 68.2344 49.0703 68.1484C48.5547 67.9766 48.125 67.8047 47.6953 67.6328C47.2656 67.375 46.9219 67.1172 46.6641 66.8594C46.4062 66.6016 46.2344 66.2578 46.2344 65.9141V45.5469H32.4844V66.3437C32.4844 67.1172 32.2266 67.6328 31.7109 67.8906C31.1953 68.1484 30.5938 68.3203 29.9922 68.3203C29.4766 68.3203 28.9609 68.2344 28.4453 68.1484C27.9297 67.9766 27.5 67.8047 27.0703 67.6328C26.6406 67.375 26.2969 67.1172 26.0391 66.8594C25.7812 66.6016 25.6094 66.2578 25.6094 65.9141V45.5469H19.3359C18.9062 45.5469 18.4766 45.375 18.0469 45.1172C17.7031 44.8594 17.3594 44.4297 17.1016 44C16.8437 43.5703 16.5859 43.0547 16.5 42.5391C16.3281 42.0234 16.2422 41.5078 16.2422 41.0781C16.2422 40.5625 16.3281 40.2188 16.5859 39.875C16.7578 39.5313 17.1016 39.3594 17.5312 39.3594H25.6094V11C22.8594 11 20.3672 11.4297 18.1328 12.375C15.8984 13.3203 13.9219 14.5234 12.2891 16.2422C10.6563 17.875 9.36719 19.9375 8.42188 22.3438C7.47656 24.75 7.04687 27.4141 7.04687 30.3359C7.04687 32.2266 7.21875 33.8594 7.5625 35.3203C7.90625 36.7812 8.33594 38.0703 8.85156 39.1016C9.36719 40.1328 9.88281 40.9922 10.3984 41.5078C10.9141 42.1094 11.3437 42.3672 11.6016 42.3672C11.8594 42.3672 12.0313 42.2813 12.1172 42.1094C12.2031 41.9375 12.375 41.9375 12.6328 41.9375C12.8906 41.9375 12.9766 42.1094 13.0625 42.3672C13.1484 42.7109 13.1484 42.9688 13.1484 43.3125C13.1484 44.2578 12.9766 45.1172 12.6328 45.8906C12.2891 46.6641 11.7734 47.3516 11.2578 47.8672C10.7422 48.3828 10.0547 48.6406 9.36719 48.8125C8.67969 48.8984 7.99219 48.7266 7.39063 48.2969C6.61719 47.7813 5.75781 47.0078 4.89844 45.9766C4.03906 44.9453 3.26563 43.7422 2.49219 42.1953C1.80469 40.7344 1.20313 39.0156 0.6875 37.0391C0.257813 35.1484 0 32.9141 0 30.5078C0 27.4141 0.429688 24.5781 1.20312 22.0859C1.97656 19.5938 3.09375 17.3594 4.46875 15.4688C5.84375 13.5781 7.47656 11.8594 9.36719 10.4844C11.2578 9.10937 13.2344 7.99219 15.3828 7.04687C17.5312 6.1875 19.7656 5.5 22 5.07031C24.3203 4.64063 26.5547 4.46875 28.7891 4.46875C29.2188 4.46875 29.6484 4.55469 30.0781 4.72656C30.5078 4.89844 30.8516 5.15625 31.1953 5.5C31.5391 5.84375 31.7969 6.1875 31.9688 6.70313C32.1406 7.13281 32.2266 7.64844 32.2266 8.16406V39.4453H32.4844Z" fill="black"/>
<path d="M86.0234 62.5625C86.8828 62.5625 87.6563 62.2187 88.3438 61.6172C88.9453 61.0156 89.5469 60.2422 89.9766 59.2969C90.4062 58.3516 90.8359 57.3203 91.0938 56.2031C91.3516 55.0859 91.6094 54.0547 91.8672 53.1094C92.0391 52.1641 92.3828 51.5625 92.7266 51.1328C93.0703 50.7031 93.5 50.5312 94.0156 50.5312C94.3594 50.5312 94.7031 50.6172 95.0469 50.875C95.3906 51.0469 95.7344 51.3906 95.9922 51.7344C96.25 52.0781 96.5078 52.5078 96.6797 52.8516C96.8516 53.2813 96.9375 53.7109 96.9375 54.1406C96.9375 54.2266 96.9375 54.2266 96.9375 54.3125C96.9375 54.3984 96.9375 54.4844 96.8516 54.6562C96.5078 56.1172 95.9922 57.6641 95.3047 59.2109C94.6172 60.7578 93.8438 62.3047 92.8125 63.5938C91.7813 64.9688 90.5781 66.0859 89.2031 66.9453C87.8281 67.8047 86.1094 68.2344 84.2188 68.2344C82.6719 68.2344 81.2969 67.8906 80.1797 67.2891C79.0625 66.6016 78.1172 65.7422 77.5156 64.7109C76.6562 65.7422 75.5391 66.6016 74.3359 67.2891C73.1328 67.9766 71.6719 68.3203 69.9531 68.3203C68.2344 68.3203 66.6875 67.9766 65.3984 67.2891C64.1094 66.6016 62.9922 65.6563 62.1328 64.4531C61.2734 63.25 60.5859 61.875 60.1563 60.2422C59.7266 58.6094 59.4688 56.8906 59.4688 55C59.4688 51.3047 60.0703 48.0391 61.1875 45.1172C62.3906 42.1953 63.9375 39.7031 65.8281 37.6406C67.8047 35.5781 70.0391 34.0312 72.5313 32.9141C75.0234 31.7969 77.6016 31.2812 80.3516 31.2812C81.5547 31.2812 82.5 31.625 83.2734 32.2266C84.0469 32.9141 84.3906 33.7734 84.3906 34.8906C84.3906 35.6641 84.3047 36.1797 84.1328 36.4375C83.9609 36.7813 83.7031 36.8672 83.2734 36.8672C82.8438 36.8672 82.5 36.8672 82.0703 36.7812C81.6406 36.6953 81.2109 36.6953 80.7813 36.6953C79.1484 36.6953 77.4297 37.0391 75.7109 37.8125C73.9922 38.5859 72.4453 39.6172 71.0703 41.1641C69.6953 42.625 68.5781 44.6016 67.6328 46.8359C66.7734 49.1562 66.3437 51.9062 66.3437 55.0859C66.3437 57.4062 66.7734 59.2109 67.6328 60.4141C68.4922 61.6172 69.6953 62.3047 71.2422 62.3047C72.4453 62.3047 73.4766 61.875 74.25 60.9297C75.0234 60.0703 75.7109 58.9531 76.1406 57.75V44.5156C76.1406 44.0859 76.1406 43.7422 76.0547 43.4844C75.9688 43.2266 75.9688 42.9687 75.8828 42.7969C75.7969 42.625 75.7969 42.4531 75.7969 42.2813C75.7969 42.1094 75.7109 41.9375 75.7109 41.8516C75.7109 41.4219 75.9688 40.9922 76.3984 40.7344C76.8281 40.4766 77.3438 40.3047 78.0313 40.3047C79.4922 40.3047 80.6094 40.6484 81.4688 41.4219C82.3281 42.1953 82.7578 43.0547 82.7578 44.1719V58.6953C82.7578 59.2109 82.8438 59.6406 82.9297 60.1563C83.0156 60.5859 83.1875 61.0156 83.4453 61.4453C83.7031 61.7891 83.9609 62.1328 84.3906 62.3906C84.9922 62.4766 85.5078 62.5625 86.0234 62.5625Z" fill="black"/>
<path d="M92.2969 36.6953C92.2969 35.8359 92.2109 35.2344 92.125 34.8906C91.9531 34.5469 91.9531 34.2031 91.9531 33.8594C91.9531 33.4297 92.2109 33.0859 92.6406 32.8281C93.0703 32.5703 93.6719 32.3984 94.2734 32.3984C95.7344 32.3984 96.8516 32.7422 97.7109 33.5156C98.5703 34.2891 99 35.1484 99 36.2656V40.2187C99.6016 39.0156 100.289 37.8125 100.977 36.7812C101.664 35.75 102.437 34.8047 103.211 34.0312C103.984 33.2578 104.93 32.6562 105.789 32.2266C106.734 31.7969 107.766 31.5391 108.797 31.5391C110.258 31.5391 111.461 31.7969 112.406 32.3984C113.352 32.9141 114.125 33.6016 114.641 34.4609C115.156 35.3203 115.586 36.2656 115.758 37.2969C115.93 38.3281 116.102 39.3594 116.102 40.3906V58.6094C116.102 58.7812 116.102 59.125 116.102 59.5547C116.102 59.9844 116.187 60.4141 116.359 60.9297C116.531 61.3594 116.703 61.7891 117.047 62.1328C117.305 62.4766 117.82 62.6484 118.336 62.6484C119.195 62.6484 119.969 62.3047 120.656 61.7031C121.258 61.1016 121.859 60.3281 122.289 59.3828C122.719 58.4375 123.148 57.4062 123.406 56.2891C123.75 55.1719 123.922 54.1406 124.18 53.1953C124.352 52.25 124.609 51.6484 125.039 51.2187C125.469 50.7891 125.812 50.6172 126.242 50.6172C126.586 50.6172 126.93 50.7031 127.273 50.9609C127.617 51.1328 127.961 51.4766 128.305 51.8203C128.563 52.1641 128.82 52.5937 128.992 52.9375C129.164 53.3672 129.25 53.7969 129.25 54.2266C129.25 54.3125 129.25 54.3125 129.25 54.3984C129.25 54.4844 129.25 54.5703 129.164 54.7422C128.82 56.2031 128.305 57.75 127.617 59.2969C127.016 60.9297 126.156 62.3906 125.125 63.6797C124.094 65.0547 122.891 66.1719 121.516 67.0312C120.141 67.8906 118.508 68.3203 116.617 68.3203C115.414 68.3203 114.383 68.0625 113.523 67.6328C112.664 67.2031 111.891 66.6016 111.203 65.8281C110.602 65.0547 110.086 64.1953 109.742 63.25C109.398 62.2187 109.227 61.1875 109.227 60.0703V42.2812C109.227 41.5937 109.227 40.9922 109.141 40.3906C109.055 39.7891 109.055 39.2734 108.883 38.8438C108.797 38.4141 108.539 37.9844 108.367 37.7266C108.109 37.4688 107.766 37.2969 107.336 37.2969C106.734 37.2969 105.961 37.7266 105.016 38.5859C104.07 39.4453 103.211 40.5625 102.352 41.9375C101.492 43.3125 100.719 44.8594 100.031 46.5781C99.3438 48.2969 98.9141 50.0156 98.7422 51.8203V64.625C98.7422 65.0547 98.7422 65.4844 98.7422 65.9141C98.7422 66.3437 98.6562 66.7734 98.4844 67.1172C98.3125 67.4609 98.0547 67.8047 97.7969 67.9766C97.4531 68.2344 97.0234 68.3203 96.3359 68.3203C95.9062 68.3203 95.4766 68.2344 94.9609 68.1484C94.4453 68.0625 94.0156 67.8906 93.5859 67.6328C93.1563 67.375 92.8125 66.9453 92.5547 66.5156C92.2969 66 92.125 65.3125 92.125 64.5391V36.6953H92.2969Z" fill="black"/>
<path d="M133.805 68.4062C132.086 68.4062 130.539 68.1484 129.164 67.5469C127.789 66.9453 126.586 66.0859 125.555 64.8828C124.609 63.6797 123.836 62.2188 123.32 60.5C122.805 58.7813 122.547 56.7188 122.547 54.3984C122.547 51.0469 122.977 48.0391 123.922 45.375C124.867 42.7109 126.156 40.4766 127.789 38.5859C129.422 36.6953 131.312 35.1484 133.461 34.0312C135.609 32.9141 137.844 32.1406 140.25 31.7969V11.7734C140.25 11.1719 140.164 10.6562 140.078 10.3125C139.992 9.96875 139.906 9.625 139.82 9.45312C139.734 9.28125 139.648 9.10937 139.562 8.9375C139.477 8.76562 139.391 8.67969 139.391 8.50781C139.391 8.33594 139.477 8.16406 139.648 8.07812C139.82 7.99219 140.078 7.90625 140.336 7.82031C140.594 7.73438 140.937 7.64844 141.281 7.64844C141.625 7.64844 141.969 7.5625 142.227 7.5625C143.687 7.5625 144.805 7.90625 145.664 8.67969C146.523 9.45313 146.953 10.3125 146.953 11.4297V58.6094C146.953 59.125 147.039 59.5547 147.125 60.0703C147.211 60.5 147.383 60.9297 147.641 61.3594C147.898 61.7031 148.156 62.0469 148.586 62.3047C148.93 62.5625 149.445 62.6484 149.961 62.6484C150.82 62.6484 151.594 62.3047 152.281 61.7031C152.883 61.1016 153.484 60.3281 153.914 59.3828C154.344 58.4375 154.773 57.4063 155.031 56.2891C155.289 55.1719 155.547 54.1406 155.805 53.1953C155.977 52.25 156.234 51.6484 156.664 51.2187C157.094 50.7891 157.437 50.6172 157.867 50.6172C158.211 50.6172 158.555 50.7031 158.898 50.9609C159.242 51.2188 159.586 51.4766 159.93 51.8203C160.188 52.1641 160.445 52.5937 160.617 52.9375C160.789 53.3672 160.875 53.7969 160.875 54.2266C160.875 54.3125 160.875 54.3125 160.875 54.3984C160.875 54.4844 160.875 54.5703 160.789 54.7422C160.445 56.2031 159.93 57.75 159.242 59.2969C158.641 60.9297 157.781 62.3906 156.75 63.6797C155.719 65.0547 154.516 66.1719 153.141 67.0312C151.766 67.8906 150.133 68.3203 148.242 68.3203C146.695 68.3203 145.406 67.9766 144.289 67.375C143.172 66.7734 142.227 65.9141 141.625 64.8828C140.68 65.9141 139.562 66.6875 138.273 67.375C136.984 68.0625 135.523 68.4062 133.805 68.4062ZM135.18 62.5625C136.297 62.5625 137.328 62.2187 138.187 61.6172C139.047 60.9297 139.734 60.1563 140.336 59.2109V37.4687C138.875 37.7266 137.5 38.2422 136.211 38.9297C134.922 39.6172 133.719 40.6484 132.687 41.8516C131.656 43.1406 130.883 44.6875 130.281 46.6641C129.68 48.5547 129.422 50.9609 129.422 53.7109C129.422 55.3438 129.594 56.7188 129.937 57.8359C130.281 58.9531 130.711 59.8984 131.227 60.5859C131.742 61.2734 132.344 61.7891 133.117 62.1328C133.633 62.3906 134.406 62.5625 135.18 62.5625Z" fill="black"/>
<path d="M171.531 36.6953C171.531 35.8359 171.445 35.2344 171.359 34.8906C171.273 34.5469 171.187 34.2031 171.187 33.8594C171.187 33.4297 171.445 33.0859 171.875 32.8281C172.305 32.5703 172.82 32.3984 173.508 32.3984C174.969 32.3984 176.086 32.7422 176.945 33.5156C177.805 34.2891 178.234 35.1484 178.234 36.2656V56.375C178.234 57.3203 178.32 58.0938 178.492 58.8672C178.578 59.6406 178.836 60.3281 179.18 60.8438C179.523 61.3594 179.953 61.7891 180.469 62.1328C180.984 62.3906 181.672 62.5625 182.531 62.5625C183.391 62.5625 184.078 62.3906 184.594 62.0469C185.109 61.7031 185.625 61.2734 185.969 60.6719C186.312 60.0703 186.57 59.4688 186.656 58.6953C186.828 57.9219 186.828 57.1484 186.828 56.2891V36.6953C186.828 35.8359 186.742 35.2344 186.656 34.8906C186.57 34.5469 186.484 34.2031 186.484 33.8594C186.484 33.4297 186.742 33.0859 187.172 32.8281C187.602 32.5703 188.203 32.3984 188.805 32.3984C190.266 32.3984 191.383 32.7422 192.242 33.5156C193.102 34.2891 193.531 35.1484 193.531 36.2656V56.375C193.531 57.75 193.359 59.125 193.102 60.5859C192.844 61.9609 192.328 63.25 191.555 64.4531C190.781 65.5703 189.664 66.6016 188.289 67.2891C186.914 68.0625 185.023 68.4063 182.789 68.4063C181.844 68.4063 180.984 68.3203 180.125 68.0625C179.266 67.8047 178.578 67.5469 177.891 67.1172C177.203 66.7734 176.602 66.2578 176.086 65.8281C175.57 65.3125 175.141 64.7969 174.883 64.1953C174.625 64.7969 174.195 65.3125 173.594 65.8281C173.078 66.3438 172.391 66.7734 171.703 67.1172C171.016 67.4609 170.242 67.8047 169.383 68.0625C168.523 68.3203 167.75 68.4063 166.891 68.4063C165.258 68.4063 163.883 68.2344 162.68 67.8906C161.563 67.5469 160.531 67.0312 159.758 66.3437C158.984 65.7422 158.297 64.9688 157.867 64.1094C157.437 63.25 157.008 62.3906 156.75 61.5313C156.492 60.6719 156.32 59.7266 156.234 58.8672C156.148 57.9219 156.148 57.1484 156.148 56.375V36.6953C156.148 35.8359 156.062 35.2344 155.977 34.8906C155.805 34.5469 155.805 34.2031 155.805 33.8594C155.805 33.4297 156.063 33.0859 156.492 32.8281C156.922 32.5703 157.523 32.3984 158.125 32.3984C159.586 32.3984 160.703 32.7422 161.562 33.5156C162.422 34.2891 162.852 35.1484 162.852 36.2656V56.375C162.852 57.1484 162.937 57.9219 163.023 58.6953C163.109 59.4688 163.281 60.1562 163.625 60.6719C163.883 61.2734 164.398 61.7031 164.914 62.0469C165.516 62.3906 166.203 62.5625 167.148 62.5625C168.008 62.5625 168.695 62.3906 169.211 62.0469C169.727 61.7031 170.242 61.2734 170.586 60.6719C170.93 60.0703 171.188 59.4688 171.273 58.6953C171.445 57.9219 171.445 57.1484 171.445 56.2891V36.6953H171.531Z" fill="black"/>
<path d="M206.594 58.5234C206.594 58.6953 206.594 59.0391 206.68 59.4687C206.68 59.8984 206.766 60.3281 206.937 60.8438C207.109 61.2734 207.281 61.7031 207.625 62.0469C207.969 62.3906 208.398 62.5625 208.914 62.5625C209.773 62.5625 210.547 62.2187 211.148 61.6172C211.75 61.0156 212.352 60.2422 212.781 59.2969C213.211 58.3516 213.641 57.3203 213.984 56.2031C214.328 55.0859 214.586 54.0547 214.758 53.1094C214.93 52.25 215.187 51.5625 215.531 51.2187C215.875 50.7891 216.305 50.6172 216.648 50.5312C217.078 50.4453 217.508 50.6172 217.852 50.875C218.281 51.1328 218.625 51.4766 218.969 51.9063C219.312 52.3359 219.57 52.7656 219.656 53.2812C219.828 53.7969 219.828 54.3125 219.742 54.7422C219.312 56.2031 218.797 57.75 218.195 59.2969C217.594 60.9297 216.734 62.3906 215.703 63.6797C214.672 65.0547 213.469 66.1719 212.094 67.0312C210.719 67.8906 209.086 68.3203 207.195 68.3203C205.992 68.3203 204.961 68.0625 204.102 67.6328C203.156 67.2031 202.383 66.6016 201.781 65.8281C201.18 65.0547 200.664 64.1953 200.32 63.25C199.977 62.2187 199.805 61.1875 199.805 60.0703V36.6953C199.805 35.8359 199.719 35.2344 199.633 34.8906C199.461 34.5469 199.461 34.2031 199.461 33.8594C199.461 33.4297 199.719 33.0859 200.148 32.8281C200.578 32.5703 201.18 32.3984 201.781 32.3984C203.242 32.3984 204.359 32.7422 205.219 33.5156C206.078 34.2891 206.508 35.1484 206.508 36.2656V58.5234H206.594Z" fill="black"/>
</svg>
