<svg width="273" height="183" viewBox="0 0 273 183" fill="none" xmlns="http://www.w3.org/2000/svg">
<path d="M171.868 23.0743C173.156 50.3729 157.163 74.003 154.479 77.7795C151.796 81.556 153.943 84.2535 155.553 85.3325C157.163 86.4115 161.993 88.03 164.677 91.267C167.36 94.504 163.067 102.596 163.067 102.596L119.594 82.0955C119.594 82.0955 119.594 82.0955 123.351 76.7005C127.108 71.3055 131.401 72.924 134.622 75.082C137.842 77.24 141.599 78.319 144.282 77.7795C146.966 77.24 151.796 70.766 158.773 53.502C165.75 36.2381 164.73 18.5964 164.73 18.5964L136.5 0.900879L78 37.5868V114.196H84.7087C84.7087 114.196 101.883 103.136 117.447 84.2535L162.53 105.294C162.53 105.294 161.886 106.858 160.49 109.556C159.846 110.851 158.988 112.415 158.022 114.196C154.801 119.968 149.81 128.061 142.672 137.124L135.158 134.966C135.158 134.966 141.599 125.849 143.209 120.993C142.94 121.533 138.217 130.273 131.938 133.887L127.108 132.269C127.108 132.269 131.938 125.795 133.011 124.176C133.011 124.176 126.571 130.111 123.888 131.19L91.3101 117.055C92.1151 117.595 118.95 135.074 143.209 140.901C143.209 140.901 162.154 121.479 166.931 114.196H195V37.5868L171.868 23.0743ZM138.915 31.3826H151.259V43.7911H138.915V31.3826ZM138.915 49.186H151.259V61.5945H138.915V49.186ZM121.741 31.3826H134.085V43.7911H121.741V31.3826ZM121.741 49.186H134.085V61.5945H121.741V49.186ZM99.4142 90.9972C98.8775 88.3537 96.7844 88.6234 96.7844 88.6234C99.4142 88.0839 99.5216 86.1417 99.5216 86.1417C99.5216 87.7063 101.722 88.6234 101.722 88.6234C99.4142 88.8932 99.4142 90.9972 99.4142 90.9972ZM99.7362 73.8411C103.225 73.1398 103.386 70.4963 103.386 70.4963C103.386 72.6003 106.338 73.8411 106.338 73.8411C103.225 74.1648 103.225 76.9702 103.225 76.9702C102.527 73.4635 99.7362 73.8411 99.7362 73.8411ZM109.397 86.4115C108.323 81.0165 104.03 81.556 104.03 81.556C109.397 80.477 109.665 76.4307 109.665 76.4307C109.665 79.6677 114.227 81.556 114.227 81.556C109.397 82.0955 109.397 86.4115 109.397 86.4115ZM164.891 86.6812C164.355 84.0377 162.261 84.3074 162.261 84.3074C164.891 83.7679 164.999 81.8257 164.999 81.8257C164.999 83.3903 167.199 84.3074 167.199 84.3074C164.891 84.5772 164.891 86.6812 164.891 86.6812ZM167.897 77.7795C173.264 76.7005 173.532 72.6543 173.532 72.6543C173.532 75.8912 178.094 77.7795 178.094 77.7795C173.264 78.319 173.264 82.635 173.264 82.635C172.19 77.24 167.897 77.7795 167.897 77.7795ZM177.289 93.1552C176.591 89.6485 173.8 90.0261 173.8 90.0261C177.289 89.3248 177.45 86.6812 177.45 86.6812C177.45 88.7853 180.402 90.0261 180.402 90.0261C177.289 90.3498 177.289 93.1552 177.289 93.1552Z" fill="url(#paint0_linear_44_6)"/>
<path d="M13.9073 180.301C11.7 180.301 9.722 179.943 7.97334 179.226C6.22467 178.509 4.82 177.449 3.75934 176.044C2.72734 174.639 2.18267 172.948 2.12534 170.97H9.95134C10.066 172.088 10.453 172.948 11.1123 173.55C11.7717 174.123 12.6317 174.41 13.6923 174.41C14.7817 174.41 15.6417 174.166 16.2723 173.679C16.903 173.163 17.2183 172.461 17.2183 171.572C17.2183 170.827 16.9603 170.21 16.4443 169.723C15.957 169.236 15.3407 168.834 14.5953 168.519C13.8787 168.204 12.8467 167.845 11.4993 167.444C9.55 166.842 7.959 166.24 6.72634 165.638C5.49367 165.036 4.433 164.147 3.54434 162.972C2.65567 161.797 2.21134 160.263 2.21134 158.371C2.21134 155.562 3.229 153.369 5.26434 151.792C7.29967 150.187 9.95134 149.384 13.2193 149.384C16.5447 149.384 19.225 150.187 21.2603 151.792C23.2957 153.369 24.385 155.576 24.5283 158.414H16.5733C16.516 157.439 16.1577 156.68 15.4983 156.135C14.839 155.562 13.9933 155.275 12.9613 155.275C12.0727 155.275 11.356 155.519 10.8113 156.006C10.2667 156.465 9.99434 157.138 9.99434 158.027C9.99434 159.002 10.453 159.761 11.3703 160.306C12.2877 160.851 13.721 161.438 15.6703 162.069C17.6197 162.728 19.1963 163.359 20.4003 163.961C21.633 164.563 22.6937 165.437 23.5823 166.584C24.471 167.731 24.9153 169.207 24.9153 171.013C24.9153 172.733 24.471 174.295 23.5823 175.7C22.7223 177.105 21.461 178.223 19.7983 179.054C18.1357 179.885 16.172 180.301 13.9073 180.301ZM36.7934 155.705V161.811H46.6404V167.487H36.7934V174.109H47.9304V180H29.4404V149.814H47.9304V155.705H36.7934ZM68.0981 180L61.8201 168.605H60.0571V180H52.7041V149.814H65.0451C67.4244 149.814 69.4454 150.23 71.1081 151.061C72.7994 151.892 74.0608 153.039 74.8921 154.501C75.7234 155.934 76.1391 157.54 76.1391 159.317C76.1391 161.324 75.5658 163.115 74.4191 164.692C73.3011 166.269 71.6384 167.387 69.4311 168.046L76.3971 180H68.0981ZM60.0571 163.402H64.6151C65.9624 163.402 66.9658 163.072 67.6251 162.413C68.3131 161.754 68.6571 160.822 68.6571 159.618C68.6571 158.471 68.3131 157.568 67.6251 156.909C66.9658 156.25 65.9624 155.92 64.6151 155.92H60.0571V163.402ZM109.092 149.814L98.3849 180H89.1829L78.4759 149.814H86.3019L93.7839 172.604L101.309 149.814H109.092ZM119.518 149.814V180H112.165V149.814H119.518ZM123.6 164.864C123.6 161.883 124.245 159.231 125.535 156.909C126.825 154.558 128.616 152.738 130.91 151.448C133.232 150.129 135.855 149.47 138.779 149.47C142.362 149.47 145.429 150.416 147.981 152.308C150.532 154.2 152.238 156.78 153.098 160.048H145.014C144.412 158.787 143.552 157.826 142.434 157.167C141.344 156.508 140.097 156.178 138.693 156.178C136.428 156.178 134.593 156.966 133.189 158.543C131.784 160.12 131.082 162.227 131.082 164.864C131.082 167.501 131.784 169.608 133.189 171.185C134.593 172.762 136.428 173.55 138.693 173.55C140.097 173.55 141.344 173.22 142.434 172.561C143.552 171.902 144.412 170.941 145.014 169.68H153.098C152.238 172.948 150.532 175.528 147.981 177.42C145.429 179.283 142.362 180.215 138.779 180.215C135.855 180.215 133.232 179.57 130.91 178.28C128.616 176.961 126.825 175.141 125.535 172.819C124.245 170.497 123.6 167.845 123.6 164.864ZM164.954 155.705V161.811H174.801V167.487H164.954V174.109H176.091V180H157.601V149.814H176.091V155.705H164.954Z" fill="white"/>
<path d="M208.768 174.668H197.502L195.696 180H187.999L198.921 149.814H207.435L218.357 180H210.574L208.768 174.668ZM206.876 168.992L203.135 157.941L199.437 168.992H206.876ZM244.686 159.532C244.686 161.281 244.284 162.886 243.482 164.348C242.679 165.781 241.446 166.942 239.784 167.831C238.121 168.72 236.057 169.164 233.592 169.164H229.034V180H221.681V149.814H233.592C236 149.814 238.035 150.23 239.698 151.061C241.36 151.892 242.607 153.039 243.439 154.501C244.27 155.963 244.686 157.64 244.686 159.532ZM233.033 163.316C234.437 163.316 235.484 162.986 236.172 162.327C236.86 161.668 237.204 160.736 237.204 159.532C237.204 158.328 236.86 157.396 236.172 156.737C235.484 156.078 234.437 155.748 233.033 155.748H229.034V163.316H233.033ZM271.519 159.532C271.519 161.281 271.117 162.886 270.315 164.348C269.512 165.781 268.279 166.942 266.617 167.831C264.954 168.72 262.89 169.164 260.425 169.164H255.867V180H248.514V149.814H260.425C262.833 149.814 264.868 150.23 266.531 151.061C268.193 151.892 269.44 153.039 270.272 154.501C271.103 155.963 271.519 157.64 271.519 159.532ZM259.866 163.316C261.27 163.316 262.317 162.986 263.005 162.327C263.693 161.668 264.037 160.736 264.037 159.532C264.037 158.328 263.693 157.396 263.005 156.737C262.317 156.078 261.27 155.748 259.866 155.748H255.867V163.316H259.866Z" fill="#76B900"/>
<defs>
<linearGradient id="paint0_linear_44_6" x1="136.5" y1="0.900879" x2="136.5" y2="140.901" gradientUnits="userSpaceOnUse">
<stop stop-color="#8CCA11"/>
<stop offset="1" stop-color="#4F7B02"/>
</linearGradient>
</defs>
</svg>
