<svg width="287" height="129" viewBox="0 0 287 129" fill="none" xmlns="http://www.w3.org/2000/svg">
<mask id="mask0_450_3188" style="mask-type:luminance" maskUnits="userSpaceOnUse" x="0" y="0" width="287" height="129">
<path d="M287 0H0V129H287V0Z" fill="white"/>
</mask>
<g mask="url(#mask0_450_3188)">
<path d="M34.232 129C24.7713 129 16.2494 125.161 10.0385 118.932C3.82763 112.775 0 104.156 0 94.6674C0 85.1789 3.82763 76.632 10.0385 70.4029C16.2494 64.1739 24.7713 60.335 34.232 60.335H68.464V82.5714V87.2794V89.3799V91.3356V94.7398C68.464 113.645 53.1535 129 34.232 129Z" fill="white"/>
<path d="M76.6952 94.0882C76.623 94.0157 76.5508 93.8709 76.5508 93.726V65.84C76.5508 65.6951 76.623 65.5503 76.6952 65.4778C76.7674 65.4054 76.9119 65.333 77.0563 65.333H81.895C82.0395 65.333 82.1117 65.4054 82.2561 65.4778C82.3283 65.5503 82.4006 65.6951 82.4006 65.84V89.018C82.4006 89.1629 82.4728 89.2353 82.6172 89.2353H93.5946C93.739 89.2353 93.8835 89.3077 93.9557 89.3801C94.0279 89.4526 94.1001 89.5974 94.1001 89.7423V93.726C94.1001 93.8709 94.0279 94.0157 93.9557 94.0882C93.8835 94.1606 93.739 94.233 93.5946 94.233H77.0563C76.9119 94.233 76.7674 94.1606 76.6952 94.0882Z" fill="white"/>
<path d="M109.123 73.5899C110.422 74.1694 111.434 75.0385 112.156 76.0526C112.878 77.1391 113.239 78.2979 113.239 79.6741V93.7258C113.239 93.8707 113.167 94.0155 113.095 94.088C113.022 94.1604 112.878 94.2328 112.734 94.2328H107.895C107.75 94.2328 107.606 94.1604 107.534 94.088C107.461 94.0155 107.389 93.8707 107.389 93.7258V92.5669C107.389 92.4945 107.389 92.422 107.317 92.422C107.245 92.422 107.173 92.422 107.173 92.4945C106.162 93.8707 104.5 94.5225 102.334 94.5225C100.456 94.5225 98.9394 94.0155 97.6394 93.0739C96.4117 92.1323 95.7617 90.5388 95.7617 88.221C95.7617 83.7303 98.5783 81.4849 104.139 81.4849H107.173C107.317 81.4849 107.389 81.4125 107.389 81.2676V80.3985C107.389 79.6017 107.173 78.9498 106.667 78.4428C106.162 77.9358 105.512 77.7185 104.717 77.7185C104.067 77.7185 103.489 77.8634 103.056 78.1531C102.623 78.4428 102.334 78.8774 102.262 79.3844C102.189 79.6741 101.973 79.819 101.684 79.819L96.7006 79.5293C96.5561 79.5293 96.4117 79.4568 96.3395 79.3844C96.2673 79.312 96.1951 79.1671 96.2673 79.0223C96.4117 77.139 97.2783 75.618 98.8672 74.4591C100.384 73.3002 102.334 72.7207 104.717 72.7207C106.378 72.7207 107.823 73.0105 109.123 73.5899ZM106.45 89.3799C107.1 88.8729 107.461 88.1486 107.461 87.3518V85.6135C107.461 85.4686 107.389 85.3962 107.245 85.3962H104.934C103.923 85.3962 103.128 85.6135 102.551 86.0481C101.973 86.4827 101.684 87.1346 101.684 87.9313C101.684 88.6556 101.901 89.1626 102.334 89.5972C102.767 89.9594 103.345 90.1767 104.067 90.1767C105.006 90.1042 105.8 89.8869 106.45 89.3799Z" fill="white"/>
<path d="M127.614 92.784C126.097 91.6251 125.23 90.0316 124.869 88.0036C124.653 86.8447 124.508 85.396 124.508 83.5852C124.508 82.2091 124.653 80.7604 124.869 79.2394C125.23 77.2837 126.169 75.6902 127.686 74.5313C129.202 73.3724 131.08 72.793 133.319 72.793C135.558 72.793 137.435 73.3724 138.952 74.4589C140.469 75.6178 141.407 77.0664 141.769 78.8772C141.841 79.0945 141.913 79.5291 141.913 80.0361C141.913 80.3258 141.769 80.5431 141.407 80.5431L136.713 80.9777H136.641C136.424 80.9777 136.208 80.8329 136.208 80.5431C136.208 80.3258 136.208 80.181 136.135 80.1085C136.063 79.8913 135.991 79.674 135.991 79.5291C135.847 78.9497 135.485 78.5151 135.052 78.1529C134.619 77.7908 134.041 77.6459 133.319 77.6459C132.597 77.6459 131.947 77.8632 131.513 78.2978C131.08 78.7324 130.719 79.3118 130.575 80.1085C130.43 81.0502 130.358 82.1366 130.358 83.5128C130.358 85.0339 130.43 86.1928 130.647 87.0619C130.791 87.7863 131.08 88.3657 131.513 88.8003C131.947 89.2349 132.524 89.4522 133.319 89.4522C134.113 89.4522 134.763 89.2349 135.197 88.8003C135.702 88.3657 135.991 87.7863 136.063 87.1344L136.135 86.6274C136.135 86.4825 136.208 86.3376 136.352 86.2652C136.424 86.1928 136.569 86.1203 136.713 86.1928L141.48 86.6274C141.769 86.6998 141.913 86.8447 141.913 87.1344C141.913 87.2792 141.913 87.569 141.841 87.9311C141.552 89.9592 140.685 91.4802 139.169 92.6391C137.652 93.798 135.702 94.3775 133.391 94.3775C131.008 94.5224 129.058 93.9429 127.614 92.784Z" fill="white"/>
<path d="M147.399 92.7121C145.882 91.5532 144.943 89.8872 144.655 87.7867C144.438 86.5554 144.293 85.1068 144.293 83.5133C144.293 81.9198 144.438 80.4712 144.655 79.2399C144.943 77.2118 145.882 75.6183 147.399 74.387C148.915 73.2281 150.865 72.5762 153.249 72.5762C155.632 72.5762 157.51 73.1556 159.026 74.387C160.543 75.5459 161.409 77.2118 161.771 79.2399C161.987 80.4712 162.132 81.9198 162.132 83.5133C162.132 85.0344 161.987 86.483 161.771 87.7143C161.482 89.8148 160.543 91.4807 159.098 92.7121C157.582 93.871 155.704 94.5228 153.321 94.5228C150.865 94.5228 148.915 93.9434 147.399 92.7121ZM155.054 88.8732C155.56 88.4386 155.921 87.7867 156.065 86.99C156.21 85.8311 156.282 84.7446 156.282 83.5857C156.282 82.4268 156.21 81.3404 156.065 80.2539C155.921 79.4572 155.632 78.8053 155.126 78.3707C154.621 77.9361 153.971 77.7188 153.249 77.7188C152.526 77.7188 151.876 77.9361 151.371 78.3707C150.865 78.8053 150.577 79.4572 150.432 80.2539C150.288 81.0506 150.215 82.2095 150.215 83.5857C150.215 84.9619 150.288 86.1208 150.36 86.99C150.504 87.7867 150.865 88.4386 151.371 88.8732C151.876 89.3078 152.526 89.5975 153.249 89.5975C153.971 89.5251 154.549 89.3078 155.054 88.8732Z" fill="white"/>
<path d="M180.547 74.6043C181.703 75.908 182.281 77.6464 182.281 79.9642V93.7261C182.281 93.871 182.208 94.0158 182.136 94.0883C182.064 94.1607 181.92 94.2331 181.775 94.2331H176.936C176.792 94.2331 176.648 94.1607 176.575 94.0883C176.503 94.0158 176.431 93.871 176.431 93.7261V80.7609C176.431 79.8193 176.214 79.0226 175.709 78.5156C175.275 77.9361 174.625 77.7188 173.831 77.7188C173.037 77.7188 172.387 78.0085 171.881 78.588C171.375 79.1674 171.159 79.8917 171.159 80.9058V93.7985C171.159 93.9434 171.087 94.0883 171.014 94.1607C170.942 94.2331 170.798 94.3056 170.653 94.3056H165.815C165.67 94.3056 165.526 94.2331 165.454 94.1607C165.381 94.0883 165.309 93.9434 165.309 93.7985V73.5902C165.309 73.4454 165.381 73.3005 165.454 73.2281C165.526 73.1556 165.67 73.0832 165.815 73.0832H170.653C170.798 73.0832 170.942 73.1556 171.014 73.2281C171.087 73.3005 171.159 73.4454 171.159 73.5902V74.7491C171.159 74.8216 171.159 74.894 171.231 74.894C171.303 74.894 171.375 74.894 171.448 74.7491C172.459 73.4454 173.903 72.7935 175.781 72.7935C177.803 72.7211 179.392 73.3729 180.547 74.6043Z" fill="white"/>
<path d="M188.421 92.784C186.905 91.6251 186.038 90.0316 185.677 88.0036C185.46 86.8447 185.316 85.396 185.316 83.5852C185.316 82.2091 185.46 80.7604 185.677 79.2394C186.038 77.2837 186.977 75.6902 188.494 74.5313C190.01 73.3724 191.888 72.793 194.127 72.793C196.366 72.793 198.243 73.3724 199.76 74.4589C201.276 75.6178 202.215 77.0664 202.576 78.8772C202.649 79.0945 202.721 79.5291 202.721 80.0361C202.721 80.3258 202.576 80.5431 202.215 80.5431L197.521 80.9777H197.449C197.232 80.9777 197.088 80.8329 197.015 80.5431C197.015 80.3258 197.015 80.181 196.943 80.1085C196.871 79.8913 196.799 79.674 196.799 79.5291C196.654 78.9497 196.293 78.5151 195.86 78.1529C195.427 77.7908 194.849 77.6459 194.127 77.6459C193.405 77.6459 192.755 77.8632 192.321 78.2978C191.888 78.7324 191.527 79.3118 191.455 80.1085C191.31 81.0502 191.238 82.1366 191.238 83.5128C191.238 85.0339 191.31 86.1928 191.527 87.0619C191.671 87.7863 191.96 88.3657 192.393 88.8003C192.827 89.2349 193.405 89.4522 194.199 89.4522C194.993 89.4522 195.643 89.2349 196.077 88.8003C196.582 88.3657 196.871 87.7863 196.943 87.1344L197.015 86.6274C197.015 86.4825 197.088 86.3376 197.232 86.2652C197.304 86.1928 197.449 86.1203 197.593 86.1928L202.36 86.6274C202.649 86.6998 202.793 86.8447 202.793 87.1344C202.793 87.2792 202.793 87.569 202.721 87.9311C202.432 89.9592 201.565 91.4802 200.049 92.6391C198.532 93.798 196.582 94.3775 194.271 94.3775C191.816 94.5224 189.938 93.9429 188.421 92.784Z" fill="white"/>
<path d="M206.404 69.751C205.826 69.0991 205.465 68.3748 205.465 67.4332C205.465 66.4916 205.754 65.6948 206.332 65.1154C206.91 64.5359 207.704 64.1738 208.643 64.1738C209.582 64.1738 210.376 64.4635 210.954 65.1154C211.532 65.6948 211.893 66.4916 211.893 67.4332C211.893 68.3748 211.604 69.1715 210.954 69.751C210.304 70.4029 209.582 70.6926 208.643 70.6926C207.776 70.6202 207.054 70.3304 206.404 69.751ZM205.971 94.0879C205.898 94.0154 205.826 93.8706 205.826 93.7257V73.5174C205.826 73.3725 205.898 73.2277 205.971 73.1552C206.043 73.0828 206.187 73.0104 206.332 73.0104H211.17C211.315 73.0104 211.459 73.0828 211.532 73.1552C211.604 73.2277 211.676 73.3725 211.676 73.5174V93.7257C211.676 93.8706 211.604 94.0154 211.532 94.0879C211.459 94.1603 211.315 94.2327 211.17 94.2327H206.332C206.187 94.2327 206.115 94.1603 205.971 94.0879Z" fill="white"/>
<path d="M232.545 83.4406L232.473 85.0341C232.473 85.3962 232.329 85.5411 231.968 85.5411H221.063C220.918 85.5411 220.846 85.6135 220.846 85.7584C220.918 86.4102 220.99 86.8448 220.99 87.1346C221.135 87.9313 221.496 88.5108 222.001 88.9453C222.507 89.3799 223.229 89.5972 224.024 89.5972C225.396 89.5972 226.262 88.9453 226.84 87.714C226.985 87.4243 227.201 87.3518 227.49 87.3518L231.823 88.221C232.184 88.2935 232.257 88.5107 232.184 88.8729C231.607 90.6837 230.596 92.0599 229.223 93.0739C227.851 94.0155 226.118 94.5225 224.096 94.5225C221.64 94.5225 219.69 93.9431 218.318 92.8566C216.874 91.7702 215.935 90.1767 215.502 88.0762C215.285 86.9173 215.141 85.2513 215.141 82.9335C215.141 81.6298 215.213 80.4709 215.357 79.6017C215.646 77.5012 216.585 75.8353 218.102 74.604C219.618 73.3726 221.496 72.7207 223.807 72.7207C226.262 72.7207 228.357 73.4451 229.873 74.8213C231.462 76.2699 232.329 78.0807 232.473 80.3985C232.473 81.3401 232.545 82.2817 232.545 83.4406ZM221.929 78.3704C221.424 78.805 221.135 79.3844 220.99 80.1812C220.918 80.6882 220.846 81.1952 220.846 81.7746C220.846 81.9195 220.918 81.9919 221.063 81.9919H226.407C226.551 81.9919 226.623 81.9195 226.623 81.7746C226.623 81.1952 226.551 80.6882 226.479 80.1812C226.335 79.4568 226.046 78.8774 225.54 78.3704C225.035 77.9358 224.457 77.7185 223.663 77.7185C222.868 77.7185 222.435 77.9358 221.929 78.3704Z" fill="white"/>
<path d="M247.713 73.2279C247.929 73.3727 248.001 73.59 247.929 73.8798L247.135 78.5878C247.135 78.9499 246.918 79.0224 246.557 78.8775C246.124 78.7327 245.69 78.7327 245.401 78.7327C245.04 78.7327 244.752 78.8051 244.318 78.8775C243.524 79.0224 242.874 79.3845 242.296 80.0364C241.718 80.6883 241.502 81.485 241.502 82.4267V93.7259C241.502 93.8708 241.429 94.0156 241.357 94.0881C241.285 94.1605 241.141 94.2329 240.996 94.2329H236.157C236.013 94.2329 235.869 94.1605 235.796 94.0881C235.724 94.0156 235.652 93.8708 235.652 93.7259V73.5176C235.652 73.3727 235.724 73.2279 235.796 73.1555C235.869 73.083 236.013 73.0106 236.157 73.0106H240.996C241.141 73.0106 241.285 73.083 241.357 73.1555C241.429 73.2279 241.502 73.3727 241.502 73.5176V75.1835C241.502 75.3284 241.502 75.3284 241.574 75.4008C241.646 75.4008 241.646 75.4008 241.718 75.3284C242.657 73.6625 244.029 72.7933 245.763 72.7933C246.413 72.7209 247.063 72.9382 247.713 73.2279Z" fill="white"/>
<path d="M260.639 73.3002C260.639 73.3002 260.711 73.2278 260.783 73.1553C260.856 73.0829 261 73.0105 261.144 73.0105H265.983C266.128 73.0105 266.272 73.0829 266.344 73.1553C266.416 73.2278 266.489 73.3726 266.489 73.5175V92.7842C266.489 96.0436 265.55 98.5063 263.744 100.1C261.939 101.693 259.339 102.49 255.945 102.49C255.222 102.49 254.428 102.418 253.634 102.345C253.272 102.345 253.128 102.128 253.128 101.838L253.272 97.7095C253.272 97.4198 253.417 97.2749 253.778 97.2749C254.211 97.3474 254.789 97.3474 255.511 97.3474C257.317 97.3474 258.689 96.9852 259.483 96.1885C260.278 95.3917 260.711 94.1604 260.711 92.4945C260.711 92.422 260.711 92.3496 260.639 92.3496C260.567 92.3496 260.494 92.3496 260.494 92.422C259.483 93.5809 258.111 94.1604 256.306 94.1604C254.5 94.1604 253.056 93.6534 251.756 92.5669C250.528 91.5529 249.734 89.9594 249.445 87.9313C249.228 87.207 249.156 85.7584 249.156 83.5854C249.156 81.4125 249.3 79.819 249.517 78.9498C249.806 76.9942 250.528 75.4731 251.684 74.3867C252.839 73.3002 254.356 72.7207 256.161 72.7207C257.967 72.7207 259.411 73.3726 260.494 74.604C260.567 74.6764 260.639 74.7488 260.639 74.6764C260.639 74.604 260.711 74.604 260.711 74.5315V73.5899C260.639 73.3726 260.639 73.3002 260.639 73.3002ZM260.639 83.513C260.639 82.1368 260.567 80.9779 260.494 80.1087C260.35 79.3844 260.061 78.805 259.556 78.3704C259.122 77.9358 258.472 77.7185 257.822 77.7185C257.172 77.7185 256.522 77.9358 256.089 78.3704C255.584 78.805 255.295 79.3844 255.15 80.1087C255.006 81.1228 254.934 82.2092 254.934 83.513C254.934 84.7443 255.006 85.8308 255.15 86.8448C255.295 87.5691 255.584 88.1486 256.089 88.5832C256.595 89.0178 257.172 89.2351 257.895 89.2351C258.617 89.2351 259.194 89.0178 259.628 88.5832C260.061 88.1486 260.35 87.5691 260.494 86.8448C260.567 86.0481 260.639 84.8892 260.639 83.513Z" fill="white"/>
<path d="M286.999 83.4406L286.927 85.0341C286.927 85.3962 286.782 85.5411 286.421 85.5411H275.516C275.372 85.5411 275.299 85.6135 275.299 85.7584C275.372 86.4102 275.444 86.8448 275.444 87.1346C275.588 87.9313 275.949 88.5108 276.455 88.9453C276.96 89.3799 277.683 89.5972 278.477 89.5972C279.849 89.5972 280.716 88.9453 281.294 87.714C281.438 87.4243 281.655 87.3518 281.943 87.3518L286.277 88.221C286.638 88.2935 286.71 88.5107 286.638 88.8729C286.06 90.6837 285.049 92.0599 283.677 93.0739C282.305 94.0155 280.571 94.5225 278.549 94.5225C276.094 94.5225 274.144 93.9431 272.772 92.8566C271.327 91.7702 270.388 90.1767 269.955 88.0762C269.738 86.9173 269.594 85.2513 269.594 82.9335C269.594 81.6298 269.666 80.4709 269.811 79.6017C270.1 77.5012 271.038 75.8353 272.555 74.604C274.072 73.3726 275.949 72.7207 278.26 72.7207C280.716 72.7207 282.81 73.4451 284.327 74.8213C285.916 76.2699 286.782 78.0807 286.927 80.3985C286.999 81.3401 286.999 82.2817 286.999 83.4406ZM276.455 78.3704C275.949 78.805 275.66 79.3844 275.516 80.1812C275.444 80.6882 275.372 81.1952 275.372 81.7746C275.372 81.9195 275.444 81.9919 275.588 81.9919H280.932C281.077 81.9919 281.149 81.9195 281.149 81.7746C281.149 81.1952 281.077 80.6882 281.005 80.1812C280.86 79.4568 280.571 78.8774 280.066 78.3704C279.56 77.9358 278.983 77.7185 278.188 77.7185C277.538 77.7185 276.96 77.9358 276.455 78.3704Z" fill="white"/>
<path d="M40.3726 0C32.5729 0 25.4954 3.18697 20.44 8.25716C15.3124 13.3998 12.207 20.4256 12.207 28.2482C12.207 36.0707 15.3846 43.0966 20.44 48.2392C25.4954 53.3094 32.5729 56.4963 40.3726 56.4963H68.5381V38.2437V34.4048V32.6665V31.073V28.2482C68.4659 12.603 55.8997 0 40.3726 0Z" fill="white"/>
<path d="M109.411 19.3387C105.511 15.4274 100.023 12.9648 94.0291 12.9648C88.0349 12.9648 82.6184 15.4274 78.7186 19.3387C74.8187 23.25 72.3633 28.6824 72.3633 34.6941V56.4959H75.6131H78.2853H81.6796H84.2795H94.1013C106.089 56.4959 115.839 46.7177 115.839 34.6941C115.767 28.6824 113.311 23.25 109.411 19.3387Z" fill="white"/>
<path d="M77.7812 113.789V102.78H79.2257V107.488C79.5868 106.836 80.4534 106.257 81.6089 106.257C83.8477 106.257 84.931 107.995 84.931 110.095C84.931 112.268 83.7033 114.007 81.5367 114.007C80.4534 114.007 79.659 113.5 79.1534 112.775V113.862H77.7812V113.789ZM81.32 107.488C80.0923 107.488 79.1534 108.502 79.1534 110.023C79.1534 111.544 80.0923 112.631 81.32 112.631C82.62 112.631 83.4866 111.617 83.4866 110.023C83.4866 108.43 82.62 107.488 81.32 107.488Z" fill="white"/>
<path d="M88.1788 116.832L89.9843 112.993L86.8789 106.474H88.5399L90.7787 111.544L92.9453 106.474H94.4619L89.6954 116.832H88.1788Z" fill="white"/>
<path d="M106.165 109.299L104.865 110.747V113.717H102.77V102.925H104.865V107.778L109.198 102.925H111.942L107.681 107.633L111.942 113.717H109.342L106.165 109.299Z" fill="white"/>
<path d="M116.706 113.789H114.684V102.78H116.706V106.908C117.212 106.329 118.006 106.112 118.729 106.112C120.606 106.112 121.473 107.416 121.473 109.081V113.789H119.451V109.444C119.451 108.574 119.017 107.923 118.079 107.923C117.212 107.923 116.706 108.574 116.706 109.371V113.789Z" fill="white"/>
<path d="M126.817 109.444L128.623 109.154C129.056 109.081 129.2 108.864 129.2 108.647C129.2 108.14 128.767 107.705 127.973 107.705C127.106 107.705 126.601 108.285 126.528 108.937L124.723 108.574C124.867 107.415 125.951 106.112 127.9 106.112C130.284 106.112 131.15 107.415 131.15 108.937V112.631C131.15 112.993 131.223 113.572 131.223 113.789H129.345C129.273 113.572 129.273 113.21 129.273 112.92C128.912 113.5 128.189 114.007 127.106 114.007C125.517 114.007 124.578 112.92 124.578 111.761C124.578 110.385 125.589 109.661 126.817 109.444ZM129.2 110.747V110.385L127.539 110.675C127.034 110.747 126.601 111.037 126.601 111.617C126.601 112.051 126.889 112.486 127.539 112.486C128.406 112.486 129.2 112.051 129.2 110.747Z" fill="white"/>
<path d="M137.145 105.46V106.257H138.806V107.995H137.145V113.717H135.123V107.995H133.895V106.257H135.123V105.387C135.123 103.722 136.206 102.635 137.867 102.635C138.3 102.635 138.733 102.707 138.878 102.78V104.518C138.806 104.518 138.589 104.446 138.228 104.446C137.722 104.446 137.145 104.591 137.145 105.46Z" fill="white"/>
<path d="M150.287 109.588H149.203V113.717H147.109V102.925H151.298C153.392 102.925 154.692 104.373 154.692 106.257C154.692 107.778 153.825 108.937 152.381 109.299L154.692 113.717H152.381L150.287 109.588ZM150.864 107.778C151.948 107.778 152.525 107.198 152.525 106.257C152.525 105.315 151.875 104.736 150.864 104.736H149.131V107.705H150.864V107.778Z" fill="white"/>
<path d="M164.948 110.023C164.948 112.341 163.287 114.007 161.048 114.007C158.809 114.007 157.148 112.341 157.148 110.023C157.148 107.705 158.809 106.039 161.048 106.039C163.287 106.039 164.948 107.705 164.948 110.023ZM162.926 110.023C162.926 108.574 161.987 107.923 161.048 107.923C160.109 107.923 159.171 108.647 159.171 110.023C159.171 111.399 160.109 112.124 161.048 112.124C161.987 112.124 162.926 111.399 162.926 110.023Z" fill="white"/>
<path d="M168.198 116.687L169.931 112.775L166.754 106.257H168.992L171.015 110.602L172.82 106.257H174.987L170.292 116.687H168.198Z" fill="white"/>
<path d="M179.321 109.444L181.126 109.154C181.56 109.081 181.704 108.864 181.704 108.647C181.704 108.14 181.271 107.705 180.476 107.705C179.61 107.705 179.104 108.285 179.032 108.937L177.226 108.574C177.371 107.415 178.454 106.112 180.404 106.112C182.787 106.112 183.654 107.415 183.654 108.937V112.631C183.654 112.993 183.726 113.572 183.726 113.789H181.849C181.776 113.572 181.776 113.21 181.776 112.92C181.415 113.5 180.693 114.007 179.61 114.007C178.021 114.007 177.082 112.92 177.082 111.761C177.082 110.385 178.021 109.661 179.321 109.444ZM181.704 110.747V110.385L180.043 110.675C179.537 110.747 179.104 111.037 179.104 111.617C179.104 112.051 179.393 112.486 180.043 112.486C180.91 112.486 181.704 112.051 181.704 110.747Z" fill="white"/>
<path d="M187.191 113.789V102.78H189.213V113.789H187.191Z" fill="white"/>
<path d="M183.726 49.998H121.148V54.998H183.726V49.998Z" fill="white"/>
</g>
<path d="M199.573 56.4633H194.27L193.393 59H190.589L195.377 45.6679H198.486L203.273 59H200.45L199.573 56.4633ZM198.848 54.3271L196.922 48.7577L194.995 54.3271H198.848ZM209.716 45.6869C211.115 45.6869 212.342 45.9603 213.397 46.5071C214.466 47.0538 215.286 47.8358 215.858 48.8531C216.443 49.8576 216.735 51.0274 216.735 52.3625C216.735 53.6977 216.443 54.8675 215.858 55.872C215.286 56.8638 214.466 57.6331 213.397 58.1799C212.342 58.7266 211.115 59 209.716 59H205.062V45.6869H209.716ZM209.621 56.7303C211.02 56.7303 212.1 56.3488 212.863 55.5859C213.626 54.823 214.008 53.7485 214.008 52.3625C214.008 50.9766 213.626 49.8957 212.863 49.1201C212.1 48.3317 211.02 47.9376 209.621 47.9376H207.733V56.7303H209.621ZM233.249 45.6869V59H230.578V50.3408L227.012 59H224.99L221.404 50.3408V59H218.734V45.6869H221.767L226.001 55.5859L230.235 45.6869H233.249ZM238.559 45.6869V59H235.889V45.6869H238.559ZM252.584 59H249.914L243.867 49.864V59H241.197V45.6679H243.867L249.914 54.823V45.6679H252.584V59Z" fill="white"/>
</svg>
