<svg width="190" height="60" viewBox="0 0 190 60" fill="none" xmlns="http://www.w3.org/2000/svg">
<g clip-path="url(#clip0_6180_1605)">
<path d="M179.684 6.38281L179.164 7.49609L178.793 8.3125L178.125 9.72266L177.828 10.2422L177.383 11.1328L177.086 11.8008L176.715 12.6172L176.418 13.1367L175.973 14.1016L175.75 14.6211L175.23 15.6602L174.785 16.5508L174.043 18.0352L173.746 18.6289L172.41 21.3008C172.188 21.1523 171.965 21.0781 171.816 20.9297L175.082 14.25L175.305 13.7305L175.75 12.7656L176.047 12.2461L176.418 11.5039L176.715 10.8359L179.016 6.23438C179.238 6.23438 179.461 6.30859 179.684 6.38281Z" fill="#FFC087"/>
<path d="M181.688 20.707C181.539 20.8555 181.316 20.9297 181.168 21.0781L180.574 18.5547L181.168 18.7773L181.688 20.707Z" fill="white"/>
<path d="M182.727 19.7422C182.652 19.8164 182.578 19.9648 182.43 20.0391L182.355 19.5938L182.727 19.7422Z" fill="white"/>
<path d="M181.465 7.34766L180.277 7.79297L180.574 6.97656L180.797 6.90234C181.02 7.05078 181.242 7.19922 181.465 7.34766Z" fill="white"/>
<path d="M182.727 8.53516L179.238 9.72266L179.387 9.20312L182.355 8.16406C182.578 8.3125 182.652 8.46094 182.727 8.53516Z" fill="white"/>
<path d="M173.598 7.42188L173.152 6.53125C173.375 6.45703 173.523 6.38281 173.746 6.30859L173.895 6.67969L173.598 7.42188Z" fill="white"/>
<path d="M172.781 9.20312L171.668 7.42188C171.891 7.27344 172.039 7.125 172.262 7.05078L173.152 8.46094L172.781 9.20312Z" fill="white"/>
<path d="M171.965 10.9844L170.406 8.53516C170.555 8.38672 170.703 8.23828 170.852 8.08984L172.262 10.3906L171.965 10.9844Z" fill="white"/>
<path d="M171.148 12.7656L169.441 9.94531C169.516 9.79687 169.664 9.64844 169.738 9.5L171.371 12.1719L171.148 12.7656Z" fill="white"/>
<path d="M169.293 16.7734L169.145 17.293L168.922 17.2188C168.848 16.9961 168.773 16.7734 168.699 16.5508L169.293 16.7734Z" fill="white"/>
<path d="M169.813 15.7344L168.328 15.1406C168.328 14.9922 168.254 14.7695 168.254 14.6211L169.887 15.2891L169.813 15.7344Z" fill="white"/>
<path d="M170.555 13.7305L170.48 14.3242L168.328 13.2109C168.328 12.9883 168.402 12.7656 168.402 12.6172L170.555 13.7305Z" fill="white"/>
<path d="M169.516 11.1328L169.738 12.0234L168.699 11.5039C168.773 11.2812 168.848 11.0586 168.922 10.8359L169.516 11.1328Z" fill="white"/>
<path d="M183.766 9.94531L179.684 11.207L179.238 10.9102L183.469 9.5C183.617 9.64844 183.691 9.79687 183.766 9.94531Z" fill="white"/>
<path d="M184.434 11.4297L181.762 12.3203L181.316 11.875L184.285 10.9102C184.359 11.1328 184.434 11.2812 184.434 11.4297Z" fill="white"/>
<path d="M184.879 13.2852L183.988 13.582L183.32 13.0625L184.73 12.4688C184.805 12.7656 184.879 13.0625 184.879 13.2852Z" fill="white"/>
<path d="M180.203 21.6719C180.055 21.7461 179.832 21.8203 179.684 21.8945L178.496 17.3672L179.238 17.7383L180.203 21.6719Z" fill="white"/>
<path d="M178.57 22.1914C178.348 22.2656 178.125 22.2656 177.902 22.3398L176.418 16.3281L177.234 16.6992L178.57 22.1914Z" fill="white"/>
<path d="M176.937 22.4141C176.863 22.4141 176.715 22.4141 176.641 22.4141C176.492 22.4141 176.418 22.4141 176.27 22.4141L175.156 18.1836L175.602 17.293L176.937 22.4141Z" fill="white"/>
<path d="M175.082 22.3398C174.934 22.3398 174.785 22.2656 174.637 22.2656L174.191 20.4844L174.488 19.8164L175.082 22.3398Z" fill="white"/>
<path d="M177.977 5.9375L175.898 10.3164L175.602 10.9844L175.23 11.7266L174.934 12.2461L174.488 13.2109L174.266 13.7305L171.074 20.3359C170.852 20.1875 170.703 19.9648 170.555 19.8164L173.598 13.4336L173.82 12.9141L174.266 11.9492L174.562 11.4297L174.934 10.6875L175.23 10.0195L177.234 5.86328C177.457 5.86328 177.754 5.86328 177.977 5.9375Z" fill="#FFC087"/>
<path d="M176.047 5.78906L174.266 9.42578L174.043 9.87109L173.969 10.0195L173.672 10.6133L173.598 10.7617L173.301 11.2812L172.855 12.2461L172.633 12.7656L169.738 18.7773C169.59 18.6289 169.516 18.4805 169.441 18.2578L170.555 15.957L170.777 15.5117L172.633 11.7266L173.227 10.5391L173.598 9.79688L173.895 9.12891L174.266 8.38672L174.637 7.64453L175.527 5.71484C175.676 5.86328 175.824 5.86328 176.047 5.78906Z" fill="#FFC087"/>
<path d="M183.766 18.4063C183.691 18.5547 183.543 18.7031 183.469 18.9258L176.715 15.1406L177.012 14.6953L183.766 18.4063Z" fill="white"/>
<path d="M184.434 16.8477C184.359 17.0703 184.285 17.2188 184.211 17.4414L177.383 13.6562L177.605 13.0625L184.434 16.8477Z" fill="white"/>
<path d="M184.879 15.1406C184.879 15.3633 184.805 15.5859 184.805 15.8086L178.125 12.2461L178.422 11.6523L184.879 15.1406Z" fill="white"/>
<path d="M28.0547 34.0664H39.8555V8.08984C39.8555 5.41797 40.2266 3.33984 41.043 2.00391C41.7852 0.667969 42.75 0 43.7891 0C44.3086 0 44.8281 0.148438 45.3477 0.445313C45.8672 0.742188 46.2383 1.11328 46.6094 1.55859C46.9805 2.07812 47.2773 2.52344 47.5 2.96875C47.7227 3.41406 47.7969 3.78516 47.7969 4.08203C47.7969 4.37891 47.7227 4.52734 47.5 4.52734C47.2773 4.52734 47.0547 4.67578 46.832 4.89844C46.6094 5.12109 46.3125 5.56641 46.1641 6.30859C45.9414 6.97656 45.8672 8.16406 45.8672 9.72266V57.2969C45.8672 57.9648 45.6445 58.4102 45.1992 58.6328C44.7539 58.8555 44.2344 59.0039 43.7148 59.0039C43.2695 59.0039 42.8242 58.9297 42.3789 58.8555C41.9336 58.707 41.5625 58.5586 41.1914 58.4102C40.8203 58.1875 40.5234 57.9648 40.3008 57.7422C40.0781 57.5195 39.9297 57.2227 39.9297 56.9258V39.3359H28.0547V57.2969C28.0547 57.9648 27.832 58.4102 27.3867 58.6328C26.9414 58.8555 26.4219 59.0039 25.9023 59.0039C25.457 59.0039 25.0117 58.9297 24.5664 58.8555C24.1211 58.707 23.75 58.5586 23.3789 58.4102C23.0078 58.1875 22.7109 57.9648 22.4883 57.7422C22.2656 57.5195 22.1172 57.2227 22.1172 56.9258V39.3359H16.6992C16.3281 39.3359 15.957 39.1875 15.5859 38.9648C15.2891 38.7422 14.9922 38.3711 14.7695 38C14.5469 37.6289 14.3242 37.1836 14.25 36.7383C14.1016 36.293 14.0273 35.8477 14.0273 35.4766C14.0273 35.0312 14.1016 34.7344 14.3242 34.4375C14.4727 34.1406 14.7695 33.9922 15.1406 33.9922H22.1172V9.5C19.7422 9.5 17.5898 9.87109 15.6602 10.6875C13.7305 11.5039 12.0234 12.543 10.6133 14.0273C9.20313 15.4375 8.08984 17.2188 7.27344 19.2969C6.45703 21.375 6.08594 23.6758 6.08594 26.1992C6.08594 27.832 6.23438 29.2422 6.53125 30.5039C6.82813 31.7656 7.19922 32.8789 7.64453 33.7695C8.08984 34.6602 8.53516 35.4023 8.98047 35.8477C9.42578 36.3672 9.79687 36.5898 10.0195 36.5898C10.2422 36.5898 10.3906 36.5156 10.4648 36.3672C10.5391 36.2187 10.6875 36.2187 10.9102 36.2187C11.1328 36.2187 11.207 36.3672 11.2812 36.5898C11.3555 36.8867 11.3555 37.1094 11.3555 37.4063C11.3555 38.2227 11.207 38.9648 10.9102 39.6328C10.6133 40.3008 10.168 40.8945 9.72266 41.3398C9.27734 41.7852 8.68359 42.0078 8.08984 42.1562C7.49609 42.2305 6.90234 42.082 6.38281 41.7109C5.71484 41.2656 4.97266 40.5977 4.23047 39.707C3.48828 38.8164 2.82031 37.7773 2.15234 36.4414C1.55859 35.1797 1.03906 33.6953 0.59375 31.9883C0.222656 30.3555 0 28.4258 0 26.3477C0 23.6758 0.371094 21.2266 1.03906 19.0742C1.70703 16.9219 2.67187 14.9922 3.85937 13.3594C5.04687 11.7266 6.45703 10.2422 8.08984 9.05469C9.72266 7.86719 11.4297 6.90234 13.2852 6.08594C15.1406 5.34375 17.0703 4.75 19 4.37891C21.0039 4.00781 22.9336 3.85937 24.8633 3.85937C25.2344 3.85937 25.6055 3.93359 25.9766 4.08203C26.3477 4.23047 26.6445 4.45313 26.9414 4.75C27.2383 5.04688 27.4609 5.34375 27.6094 5.78906C27.7578 6.16016 27.832 6.60547 27.832 7.05078V34.0664H28.0547Z" fill="white"/>
<path d="M74.293 54.0313C75.0352 54.0313 75.7031 53.7344 76.2969 53.2148C76.8164 52.6953 77.3359 52.0273 77.707 51.2109C78.0781 50.3945 78.4492 49.5039 78.6719 48.5391C78.8945 47.5742 79.1172 46.6836 79.3398 45.8672C79.4883 45.0508 79.7852 44.5312 80.082 44.1602C80.3789 43.7891 80.75 43.6406 81.1953 43.6406C81.4922 43.6406 81.7891 43.7148 82.0859 43.9375C82.3828 44.0859 82.6797 44.3828 82.9023 44.6797C83.125 44.9766 83.3477 45.3477 83.4961 45.6445C83.6445 46.0156 83.7188 46.3867 83.7188 46.7578C83.7188 46.832 83.7188 46.832 83.7188 46.9062C83.7188 46.9805 83.7188 47.0547 83.6445 47.2031C83.3477 48.4648 82.9023 49.8008 82.3086 51.1367C81.7148 52.4727 81.0469 53.8086 80.1563 54.9219C79.2656 56.1094 78.2266 57.0742 77.0391 57.8164C75.8516 58.5586 74.3672 58.9297 72.7344 58.9297C71.3984 58.9297 70.2109 58.6328 69.2461 58.1133C68.2813 57.5195 67.4648 56.7773 66.9453 55.8867C66.2031 56.7773 65.2383 57.5195 64.1992 58.1133C63.1602 58.707 61.8984 59.0039 60.4141 59.0039C58.9297 59.0039 57.5938 58.707 56.4805 58.1133C55.3672 57.5195 54.4023 56.7031 53.6602 55.6641C52.918 54.625 52.3242 53.4375 51.9531 52.0273C51.582 50.6172 51.3594 49.1328 51.3594 47.5C51.3594 44.3086 51.8789 41.4883 52.8438 38.9648C53.8828 36.4414 55.2188 34.2891 56.8516 32.5078C58.5586 30.7266 60.4883 29.3906 62.6406 28.4258C64.793 27.4609 67.0195 27.0156 69.3945 27.0156C70.4336 27.0156 71.25 27.3125 71.918 27.832C72.5859 28.4258 72.8828 29.168 72.8828 30.1328C72.8828 30.8008 72.8086 31.2461 72.6602 31.4688C72.5117 31.7656 72.2891 31.8398 71.918 31.8398C71.5469 31.8398 71.25 31.8398 70.8789 31.7656C70.5078 31.6914 70.1367 31.6914 69.7656 31.6914C68.3555 31.6914 66.8711 31.9883 65.3867 32.6562C63.9023 33.3242 62.5664 34.2148 61.3789 35.5508C60.1914 36.8125 59.2266 38.5195 58.4102 40.4492C57.668 42.4531 57.2969 44.8281 57.2969 47.5742C57.2969 49.5781 57.668 51.1367 58.4102 52.1758C59.1523 53.2148 60.1914 53.8086 61.5273 53.8086C62.5664 53.8086 63.457 53.4375 64.125 52.6211C64.793 51.8789 65.3867 50.9141 65.7578 49.875V38.4453C65.7578 38.0742 65.7578 37.7773 65.6836 37.5547C65.6094 37.332 65.6094 37.1094 65.5352 36.9609C65.4609 36.8125 65.4609 36.6641 65.4609 36.5156C65.4609 36.3672 65.3867 36.2187 65.3867 36.1445C65.3867 35.7734 65.6094 35.4023 65.9805 35.1797C66.3516 34.957 66.7969 34.8086 67.3906 34.8086C68.6523 34.8086 69.6172 35.1055 70.3594 35.7734C71.1016 36.4414 71.4727 37.1836 71.4727 38.1484V50.6914C71.4727 51.1367 71.5469 51.5078 71.6211 51.9531C71.6953 52.3242 71.8438 52.6953 72.0664 53.0664C72.2891 53.3633 72.5117 53.6602 72.8828 53.8828C73.4023 53.957 73.8477 54.0313 74.293 54.0313Z" fill="white"/>
<path d="M79.7109 31.6914C79.7109 30.9492 79.6367 30.4297 79.5625 30.1328C79.4141 29.8359 79.4141 29.5391 79.4141 29.2422C79.4141 28.8711 79.6367 28.5742 80.0078 28.3516C80.3789 28.1289 80.8984 27.9805 81.418 27.9805C82.6797 27.9805 83.6445 28.2773 84.3867 28.9453C85.1289 29.6133 85.5 30.3555 85.5 31.3203V34.7344C86.0195 33.6953 86.6133 32.6562 87.207 31.7656C87.8008 30.875 88.4687 30.0586 89.1367 29.3906C89.8047 28.7227 90.6211 28.2031 91.3633 27.832C92.1797 27.4609 93.0703 27.2383 93.9609 27.2383C95.2227 27.2383 96.2617 27.4609 97.0781 27.9805C97.8945 28.4258 98.5625 29.0195 99.0078 29.7617C99.4531 30.5039 99.8242 31.3203 99.9727 32.2109C100.121 33.1016 100.27 33.9922 100.27 34.8828V50.6172C100.27 50.7656 100.27 51.0625 100.27 51.4336C100.27 51.8047 100.344 52.1758 100.492 52.6211C100.641 52.9922 100.789 53.3633 101.086 53.6602C101.309 53.957 101.754 54.1055 102.199 54.1055C102.941 54.1055 103.609 53.8086 104.203 53.2891C104.723 52.7695 105.242 52.1016 105.613 51.2852C105.984 50.4687 106.355 49.5781 106.578 48.6133C106.875 47.6484 107.023 46.7578 107.246 45.9414C107.395 45.125 107.617 44.6055 107.988 44.2344C108.359 43.8633 108.656 43.7148 109.027 43.7148C109.324 43.7148 109.621 43.7891 109.918 44.0117C110.215 44.1602 110.512 44.457 110.809 44.7539C111.031 45.0508 111.254 45.4219 111.402 45.7187C111.551 46.0898 111.625 46.4609 111.625 46.832C111.625 46.9062 111.625 46.9062 111.625 46.9805C111.625 47.0547 111.625 47.1289 111.551 47.2773C111.254 48.5391 110.809 49.875 110.215 51.2109C109.695 52.6211 108.953 53.8828 108.063 54.9961C107.172 56.1836 106.133 57.1484 104.945 57.8906C103.758 58.6328 102.348 59.0039 100.715 59.0039C99.6758 59.0039 98.7852 58.7812 98.043 58.4102C97.3008 58.0391 96.6328 57.5195 96.0391 56.8516C95.5195 56.1836 95.0742 55.4414 94.7773 54.625C94.4805 53.7344 94.332 52.8438 94.332 51.8789V36.5156C94.332 35.9219 94.332 35.4023 94.2578 34.8828C94.1836 34.3633 94.1836 33.918 94.0352 33.5469C93.9609 33.1758 93.7383 32.8047 93.5898 32.582C93.3672 32.3594 93.0703 32.2109 92.6992 32.2109C92.1797 32.2109 91.5117 32.582 90.6953 33.3242C89.8789 34.0664 89.1367 35.0312 88.3945 36.2187C87.6523 37.4062 86.9844 38.7422 86.3906 40.2266C85.7969 41.7109 85.4258 43.1953 85.2773 44.7539V55.8125C85.2773 56.1836 85.2773 56.5547 85.2773 56.9258C85.2773 57.2969 85.2031 57.668 85.0547 57.9648C84.9062 58.2617 84.6836 58.5586 84.4609 58.707C84.1641 58.9297 83.793 59.0039 83.1992 59.0039C82.8281 59.0039 82.457 58.9297 82.0117 58.8555C81.5664 58.7813 81.1953 58.6328 80.8242 58.4102C80.4531 58.1875 80.1562 57.8164 79.9336 57.4453C79.7109 57 79.5625 56.4062 79.5625 55.7383V31.6914H79.7109Z" fill="white"/>
<path d="M115.559 59.0781C114.074 59.0781 112.738 58.8555 111.551 58.3359C110.363 57.8164 109.324 57.0742 108.434 56.0352C107.617 54.9961 106.949 53.7344 106.504 52.25C106.059 50.7656 105.836 48.9844 105.836 46.9805C105.836 44.0859 106.207 41.4883 107.023 39.1875C107.84 36.8867 108.953 34.957 110.363 33.3242C111.773 31.6914 113.406 30.3555 115.262 29.3906C117.117 28.4258 119.047 27.7578 121.125 27.4609V10.168C121.125 9.64844 121.051 9.20312 120.977 8.90625C120.902 8.60937 120.828 8.3125 120.754 8.16406C120.68 8.01562 120.605 7.86719 120.531 7.71875C120.457 7.57031 120.383 7.49609 120.383 7.34766C120.383 7.19922 120.457 7.05078 120.605 6.97656C120.754 6.90234 120.977 6.82813 121.199 6.75391C121.422 6.67969 121.719 6.60547 122.016 6.60547C122.312 6.60547 122.609 6.53125 122.832 6.53125C124.094 6.53125 125.059 6.82813 125.801 7.49609C126.543 8.16406 126.914 8.90625 126.914 9.87109V50.6172C126.914 51.0625 126.988 51.4336 127.062 51.8789C127.137 52.25 127.285 52.6211 127.508 52.9922C127.73 53.2891 127.953 53.5859 128.324 53.8086C128.621 54.0313 129.066 54.1055 129.512 54.1055C130.254 54.1055 130.922 53.8086 131.516 53.2891C132.035 52.7695 132.555 52.1016 132.926 51.2852C133.297 50.4687 133.668 49.5781 133.891 48.6133C134.113 47.6484 134.336 46.7578 134.559 45.9414C134.707 45.125 134.93 44.6055 135.301 44.2344C135.672 43.8633 135.969 43.7148 136.34 43.7148C136.637 43.7148 136.934 43.7891 137.23 44.0117C137.527 44.2344 137.824 44.457 138.121 44.7539C138.344 45.0508 138.566 45.4219 138.715 45.7187C138.863 46.0898 138.937 46.4609 138.937 46.832C138.937 46.9062 138.937 46.9062 138.937 46.9805C138.937 47.0547 138.938 47.1289 138.863 47.2773C138.566 48.5391 138.121 49.875 137.527 51.2109C137.008 52.6211 136.266 53.8828 135.375 54.9961C134.484 56.1836 133.445 57.1484 132.258 57.8906C131.07 58.6328 129.66 59.0039 128.027 59.0039C126.691 59.0039 125.578 58.707 124.613 58.1875C123.648 57.668 122.832 56.9258 122.312 56.0352C121.496 56.9258 120.531 57.5937 119.418 58.1875C118.305 58.7812 117.043 59.0781 115.559 59.0781ZM116.746 54.0312C117.711 54.0312 118.602 53.7344 119.344 53.2148C120.086 52.6211 120.68 51.9531 121.199 51.1367V32.3594C119.937 32.582 118.75 33.0273 117.637 33.6211C116.523 34.2148 115.484 35.1055 114.594 36.1445C113.703 37.2578 113.035 38.5938 112.516 40.3008C111.996 41.9336 111.773 44.0117 111.773 46.3867C111.773 47.7969 111.922 48.9844 112.219 49.9492C112.516 50.9141 112.887 51.7305 113.332 52.3242C113.777 52.918 114.297 53.3633 114.965 53.6602C115.41 53.8828 116.078 54.0312 116.746 54.0312Z" fill="white"/>
<path d="M148.141 31.6914C148.141 30.9492 148.066 30.4297 147.992 30.1328C147.918 29.8359 147.844 29.5391 147.844 29.2422C147.844 28.8711 148.066 28.5742 148.437 28.3516C148.809 28.1289 149.254 27.9805 149.848 27.9805C151.109 27.9805 152.074 28.2773 152.816 28.9453C153.559 29.6133 153.93 30.3555 153.93 31.3203V48.6875C153.93 49.5039 154.004 50.1719 154.152 50.8398C154.227 51.5078 154.449 52.1016 154.746 52.5469C155.043 52.9922 155.414 53.3633 155.859 53.6602C156.305 53.8828 156.898 54.0313 157.641 54.0313C158.383 54.0313 158.977 53.8828 159.422 53.5859C159.867 53.2891 160.312 52.918 160.609 52.3984C160.906 51.8789 161.129 51.3594 161.203 50.6914C161.352 50.0234 161.352 49.3555 161.352 48.6133V31.6914C161.352 30.9492 161.277 30.4297 161.203 30.1328C161.129 29.8359 161.055 29.5391 161.055 29.2422C161.055 28.8711 161.277 28.5742 161.648 28.3516C162.02 28.1289 162.539 27.9805 163.059 27.9805C164.32 27.9805 165.285 28.2773 166.027 28.9453C166.77 29.6133 167.141 30.3555 167.141 31.3203V48.6875C167.141 49.875 166.992 51.0625 166.77 52.3242C166.547 53.5117 166.102 54.625 165.434 55.6641C164.766 56.6289 163.801 57.5195 162.613 58.1133C161.426 58.7813 159.793 59.0781 157.863 59.0781C157.047 59.0781 156.305 59.0039 155.563 58.7812C154.82 58.5586 154.227 58.3359 153.633 57.9648C153.039 57.668 152.52 57.2227 152.074 56.8516C151.629 56.4063 151.258 55.9609 151.035 55.4414C150.812 55.9609 150.441 56.4063 149.922 56.8516C149.477 57.2969 148.883 57.668 148.289 57.9648C147.695 58.2617 147.027 58.5586 146.285 58.7812C145.543 59.0039 144.875 59.0781 144.133 59.0781C142.723 59.0781 141.535 58.9297 140.496 58.6328C139.531 58.3359 138.641 57.8906 137.973 57.2969C137.305 56.7773 136.711 56.1094 136.34 55.3672C135.969 54.625 135.598 53.8828 135.375 53.1406C135.152 52.3984 135.004 51.582 134.93 50.8398C134.855 50.0234 134.855 49.3555 134.855 48.6875V31.6914C134.855 30.9492 134.781 30.4297 134.707 30.1328C134.559 29.8359 134.559 29.5391 134.559 29.2422C134.559 28.8711 134.781 28.5742 135.152 28.3516C135.523 28.1289 136.043 27.9805 136.562 27.9805C137.824 27.9805 138.789 28.2773 139.531 28.9453C140.273 29.6133 140.645 30.3555 140.645 31.3203V48.6875C140.645 49.3555 140.719 50.0234 140.793 50.6914C140.867 51.3594 141.016 51.9531 141.312 52.3984C141.535 52.918 141.98 53.2891 142.426 53.5859C142.945 53.8828 143.539 54.0313 144.355 54.0313C145.098 54.0313 145.691 53.8828 146.137 53.5859C146.582 53.2891 147.027 52.918 147.324 52.3984C147.621 51.8789 147.844 51.3594 147.918 50.6914C148.066 50.0234 148.066 49.3555 148.066 48.6133V31.6914H148.141Z" fill="white"/>
<path d="M178.422 50.543C178.422 50.6914 178.422 50.9883 178.496 51.3594C178.496 51.7305 178.57 52.1016 178.719 52.5469C178.867 52.918 179.016 53.2891 179.312 53.5859C179.609 53.8828 179.98 54.0313 180.426 54.0313C181.168 54.0313 181.836 53.7344 182.355 53.2148C182.875 52.6953 183.395 52.0273 183.766 51.2109C184.137 50.3945 184.508 49.5039 184.805 48.5391C185.102 47.5742 185.324 46.6836 185.473 45.8672C185.621 45.125 185.844 44.5312 186.141 44.2344C186.437 43.8633 186.809 43.7148 187.105 43.6406C187.477 43.5664 187.848 43.7148 188.145 43.9375C188.516 44.1602 188.812 44.457 189.109 44.8281C189.406 45.1992 189.629 45.5703 189.703 46.0156C189.852 46.4609 189.852 46.9062 189.777 47.2773C189.406 48.5391 188.961 49.875 188.441 51.2109C187.922 52.6211 187.18 53.8828 186.289 54.9961C185.398 56.1836 184.359 57.1484 183.172 57.8906C181.984 58.6328 180.574 59.0039 178.941 59.0039C177.902 59.0039 177.012 58.7812 176.27 58.4102C175.453 58.0391 174.785 57.5195 174.266 56.8516C173.746 56.1836 173.301 55.4414 173.004 54.625C172.707 53.7344 172.559 52.8438 172.559 51.8789V31.6914C172.559 30.9492 172.484 30.4297 172.41 30.1328C172.262 29.8359 172.262 29.5391 172.262 29.2422C172.262 28.8711 172.484 28.5742 172.855 28.3516C173.227 28.1289 173.746 27.9805 174.266 27.9805C175.527 27.9805 176.492 28.2773 177.234 28.9453C177.977 29.6133 178.348 30.3555 178.348 31.3203V50.543H178.422Z" fill="white"/>
</g>
<defs>
<clipPath id="clip0_6180_1605">
<rect width="190" height="59.0781" fill="white"/>
</clipPath>
</defs>
</svg>
