<?xml version="1.0" encoding="utf-8"?>
<!-- Generator: Adobe Illustrator 24.3.0, SVG Export Plug-In . SVG Version: 6.00 Build 0)  -->
<svg version="1.1" id="Layer_1" xmlns="http://www.w3.org/2000/svg" xmlns:xlink="http://www.w3.org/1999/xlink" x="0px" y="0px"
	 viewBox="0 0 1444 401" style="enable-background:new 0 0 1444 401;" xml:space="preserve">
<style type="text/css">
	.st0{clip-path:url(#SVGID_2_);fill:#005EB8;}
	.st1{clip-path:url(#SVGID_2_);}
	.st2{clip-path:url(#SVGID_4_);}
	.st3{fill:#005EB8;}
	.st4{fill:#2471C4;}
	.st5{fill:#3D84D0;}
	.st6{fill:#5497DB;}
	.st7{fill:#6CABE6;}
	.st8{display:none;clip-path:url(#SVGID_2_);}
	.st9{display:inline;fill:#2E81D0;}
	.st10{display:inline;fill:#89C5FF;}
	.st11{display:inline;fill:#438FD8;}
	.st12{display:inline;fill:#FFFFFF;}
	.st13{display:inline;fill:#FAFAFA;}
	.st14{display:inline;fill:#177FDD;}
	.st15{display:inline;fill:#D6EEFC;}
	.st16{display:inline;fill:#F7F7F7;}
	.st17{display:inline;fill:#EAEAEA;}
	.st18{display:inline;fill:#319AF9;}
	.st19{display:inline;fill:#105CB5;}
	.st20{display:inline;fill:#174D8C;}
	.st21{display:inline;fill:#292929;}
	.st22{display:inline;}
	.st23{fill:#AFFAFF;}
	.st24{display:inline;fill:url(#SVGID_5_);}
	.st25{display:inline;fill:#DBDBDB;}
	.st26{display:inline;fill:#5F5F5F;}
	.st27{display:inline;fill:none;stroke:#177FDD;stroke-width:3;stroke-miterlimit:10;}
	.st28{display:inline;fill:none;stroke:#FBB040;stroke-width:3;stroke-miterlimit:10;}
	.st29{display:inline;fill:none;stroke:#FBB040;stroke-miterlimit:10;}
	.st30{display:inline;fill:none;stroke:#177FDD;stroke-miterlimit:10;}
	.st31{display:inline;fill:none;stroke:#50A4FF;stroke-miterlimit:10;}
	.st32{fill:#FBB040;}
	.st33{fill:#ED8B00;}
	.st34{fill:#FFFFFF;}
	.st35{opacity:0.45;fill:#FFFFFF;enable-background:new    ;}
	.st36{opacity:0.7;fill:#FFFFFF;enable-background:new    ;}
	.st37{display:inline;opacity:0.9;}
	.st38{display:inline;fill:#ED8B00;}
	.st39{display:inline;opacity:0.45;fill:#FFFFFF;enable-background:new    ;}
	.st40{display:inline;opacity:0.7;fill:#FFFFFF;enable-background:new    ;}
	
		.st41{display:inline;fill:none;stroke:#A0D1FF;stroke-width:2;stroke-linecap:round;stroke-linejoin:round;stroke-dasharray:0.1,7;}
	.st42{display:inline;fill:#6CABE6;}
	.st43{display:inline;fill:#5698DF;}
	.st44{display:inline;fill:#40A1FB;}
	.st45{display:inline;fill:#EA4335;}
	.st46{display:inline;fill:#4285F4;}
	.st47{display:inline;fill:#34A853;}
	.st48{display:inline;fill:#FBBC05;}
	.st49{display:inline;fill:#008AD7;}
	.st50{display:inline;fill:#252F3E;}
	.st51{display:inline;fill:#FF9900;}
</style>
<g>
	<defs>
		<rect id="SVGID_1_" y="0" width="1444" height="401"/>
	</defs>
	<clipPath id="SVGID_2_">
		<use xlink:href="#SVGID_1_"  style="overflow:visible;"/>
	</clipPath>
	<rect y="0" class="st0" width="1444" height="401"/>
	<g class="st1">
		<defs>
			
				<rect id="SVGID_3_" x="89.6" y="-22.3" transform="matrix(0.9746 -0.2238 0.2238 0.9746 -38.986 181.4008)" width="1382" height="570"/>
		</defs>
		<clipPath id="SVGID_4_">
			<use xlink:href="#SVGID_3_"  style="overflow:visible;"/>
		</clipPath>
		<g class="st2">
			<path class="st3" d="M107.2,417.3l57.8-5.8c57.8-5.8,173.3-17.4,286.8-37.6c113.5-20.2,225.1-49.1,337.1-75.9
				c112-26.8,224.5-51.6,337.2-75.4c112.7-23.8,225.6-46.7,282.1-58.2l56.4-11.5l53.4,232.7l-56.1,12.9
				c-56.1,12.9-168.4,38.7-280.6,64.4s-224.5,51.6-336.7,77.3c-112.2,25.8-224.5,51.6-336.7,77.3s-224.5,51.6-280.6,64.4l-56.1,12.9
				L107.2,417.3z"/>
			<path class="st4" d="M122.6,484.6l55.4-16c55.4-16,166.2-47.9,277.8-76.6c111.6-28.6,223.9-54,338.4-70.2
				c114.4-16.2,231-23.2,345.2-40.7c114.2-17.4,225.9-45.3,281.8-59.2l55.9-13.9l40.8,177.8l-56.1,12.9
				c-56.1,12.9-168.4,38.7-280.6,64.4s-224.5,51.6-336.7,77.3c-112.2,25.8-224.5,51.6-336.7,77.3s-224.5,51.6-280.6,64.4l-56.1,12.9
				L122.6,484.6z"/>
			<path class="st5" d="M137.8,550.7l55.8-14.3C249.4,522,361,493.4,474,471c113.1-22.3,227.6-38.2,339.1-67.2
				c111.5-29.1,220-71.3,331.7-99.4c111.7-28.1,226.7-41.9,284.2-48.8l57.5-6.9l31.5,137l-56.1,12.9
				c-56.1,12.9-168.4,38.7-280.6,64.4s-224.5,51.6-336.7,77.3c-112.2,25.8-224.5,51.6-336.7,77.3s-224.5,51.6-280.6,64.4l-56.1,12.9
				L137.8,550.7z"/>
			<path class="st6" d="M153.5,619.2l55.7-14.9c55.7-14.8,167-44.5,278.1-75.2c111.1-30.7,222-62.4,334.3-87.8
				c112.3-25.3,226.1-44.3,337.7-73.2c111.5-28.9,220.8-67.6,275.4-87l54.6-19.4l28.5,124.1l-56.1,12.9
				c-56.1,12.9-168.4,38.7-280.6,64.4s-224.5,51.6-336.7,77.3c-112.2,25.8-224.5,51.6-336.7,77.3s-224.5,51.6-280.6,64.4l-56.1,12.9
				L153.5,619.2z"/>
			<path class="st7" d="M159.9,646.9l55.3-16.6c55.3-16.6,165.8-49.8,276.9-80.7c111.1-31,222.7-59.6,335.1-84.7
				c112.4-25,225.7-46.5,339.4-65.9c113.7-19.4,227.9-36.7,285-45.4l57.1-8.7l9.3,40.7l-56.1,12.9c-56.1,12.9-168.4,38.7-280.6,64.4
				s-224.5,51.6-336.7,77.3c-112.2,25.8-224.5,51.6-336.7,77.3s-224.5,51.6-280.6,64.4l-56.1,12.9L159.9,646.9z"/>
		</g>
	</g>
	<g class="st8">
		<path class="st9" d="M725,254.4H671v98.2H725V254.4z"/>
		<path class="st10" d="M695.5,262.5H675v6.4h20.5V262.5z"/>
		<path class="st10" d="M721.6,262.5h-20.5v6.4h20.5V262.5z"/>
		<path class="st10" d="M695.3,272.7h-20.5v6.4h20.5V272.7z"/>
		<path class="st10" d="M721.3,272.7h-20.5v6.4h20.5V272.7z"/>
		<path class="st10" d="M695.3,283h-20.5v6.4h20.5V283z"/>
		<path class="st10" d="M721.3,283h-20.5v6.4h20.5V283z"/>
		<path class="st10" d="M695.3,293.2h-20.5v6.4h20.5V293.2z"/>
		<path class="st10" d="M721.6,293.2h-20.5v6.4h20.5V293.2z"/>
		<path class="st10" d="M695.3,303.5h-20.5v6.4h20.5V303.5z"/>
		<path class="st10" d="M721.3,303.5h-20.5v6.4h20.5V303.5z"/>
		<path class="st10" d="M695.3,313.9h-20.5v6.4h20.5V313.9z"/>
		<path class="st10" d="M721.3,313.9h-20.5v6.4h20.5V313.9z"/>
		<path class="st10" d="M695.3,324h-20.5v6.4h20.5V324z"/>
		<path class="st10" d="M721.6,324h-20.5v6.4h20.5V324z"/>
		<path class="st11" d="M784,222.8h-71.4v129.7H784V222.8z"/>
		<path class="st10" d="M745,233.5h-27.1v8.4H745V233.5z"/>
		<path class="st12" d="M779.5,233.5h-27.1v8.4h27.1V233.5z"/>
		<path class="st10" d="M744.7,247.1h-27.1v8.4h27.1V247.1z"/>
		<path class="st12" d="M779.1,247.1H752v8.4h27.1V247.1z"/>
		<path class="st10" d="M744.7,260.6h-27.1v8.4h27.1V260.6z"/>
		<path class="st12" d="M779.1,260.6H752v8.4h27.1V260.6z"/>
		<path class="st10" d="M744.7,274.2h-27.1v8.4h27.1V274.2z"/>
		<path class="st12" d="M779.5,274.2h-27.1v8.4h27.1V274.2z"/>
		<path class="st10" d="M744.7,287.8h-27.1v8.4h27.1V287.8z"/>
		<path class="st12" d="M779.1,287.8H752v8.4h27.1V287.8z"/>
		<path class="st10" d="M744.7,301.5h-27.1v8.4h27.1V301.5z"/>
		<path class="st12" d="M779.1,301.5H752v8.4h27.1V301.5z"/>
		<path class="st10" d="M744.7,314.9h-27.1v8.4h27.1V314.9z"/>
		<path class="st12" d="M779.5,314.9h-27.1v8.4h27.1V314.9z"/>
		<path class="st12" d="M758.6,333h-20.1v19.6h20.1V333z"/>
		<path class="st11" d="M863,186.4h-91.4v166.2H863V186.4z"/>
		<path class="st10" d="M812.9,200h-34.8v10.7h34.8V200z"/>
		<path class="st10" d="M857.1,200h-34.8v10.7h34.8V200z"/>
		<path class="st10" d="M812.7,217.4h-34.8v10.7h34.8V217.4z"/>
		<path class="st10" d="M856.9,217.4h-34.8v10.7h34.8V217.4z"/>
		<path class="st10" d="M812.7,234.8h-34.8v10.7h34.8V234.8z"/>
		<path class="st13" d="M856.9,234.8h-34.8v10.7h34.8V234.8z"/>
		<path class="st10" d="M812.7,252.1h-34.8v10.7h34.8V252.1z"/>
		<path class="st13" d="M857.1,252.1h-34.8v10.7h34.8V252.1z"/>
		<path class="st13" d="M812.7,269.7h-34.8v10.7h34.8V269.7z"/>
		<path class="st12" d="M856.9,269.7h-34.8v10.7h34.8V269.7z"/>
		<path class="st12" d="M812.7,287h-34.8v10.7h34.8V287z"/>
		<path class="st13" d="M856.9,287h-34.8v10.7h34.8V287z"/>
		<path class="st12" d="M812.7,304.2h-34.8v10.7h34.8V304.2z"/>
		<path class="st13" d="M857.1,304.2h-34.8v10.7h34.8V304.2z"/>
		<path class="st12" d="M830.3,327.5h-25.8v25h25.8V327.5z"/>
		<path class="st14" d="M735.2,348v-2h-3.3v2h1.5v0.4c-0.4,0-0.8,0.2-0.8,0.3h1.7c0-0.2-0.3-0.3-0.7-0.3V348H735.2z"/>
		<path class="st14" d="M732.5,348.7h-2.8v0.1h2.8V348.7z"/>
		<path class="st14" d="M728.7,346.1c0.8,0,1.6,2.4,1.3,2.9c-0.3,0.5-2.4,0.5-2.7,0C727.1,348.6,727.9,346.1,728.7,346.1z"/>
		<path class="st14" d="M725.7,347.5v0.1h-1.6v-0.1h-0.2v1.2h0.2v-0.1h1.6v0.1h0.2v-1.2L725.7,347.5z M725.7,348.5h-1.6v-0.2h1.6
			V348.5z M725.7,348.1h-1.6v-0.2h1.6V348.1z"/>
		<path class="st12" d="M733,352.6l7.3-10.6v-3.5l-9.9,14.1H733z"/>
		<path class="st15" d="M728.1,335.7l3.2-4.6h-2.5l-3.2,4.6H728.1z"/>
		<path class="st16" d="M738.3,330.7l2.1-3.8v-5.5l-5,9.3H738.3z"/>
		<path class="st17" d="M733.7,330.7l6.6-12.1v-5.6l-9.6,17.7H733.7z"/>
		<path class="st18" d="M783.1,210.1h-58v142.5h58V210.1z"/>
		<path class="st18" d="M735.5,210.1h-10.3v142.5h10.3V210.1z"/>
		<path class="st19" d="M781.5,220.4h-44.4v4.1h44.4V220.4z"/>
		<path class="st19" d="M781.5,225.3h-44.4v4.1h44.4V225.3z"/>
		<path class="st14" d="M761.9,221.7h-5.2v1.5h5.2V221.7z"/>
		<path class="st12" d="M761.9,226.5h-5.2v1.6h5.2V226.5z"/>
		<path class="st14" d="M778.4,221.1v2.6h1.8v-2.6H778.4z M775.8,223.8h1.8v-2.6h-1.8V223.8z M773.3,223.8h1.8v-2.6h-1.8V223.8z"/>
		<path class="st14" d="M778.4,226v2.6h1.8V226H778.4z M775.8,228.6h1.8V226h-1.8V228.6z M773.3,228.6h1.8V226h-1.8V228.6z"/>
		<path class="st12" d="M743.6,221.1v2.6h1.8v-2.6H743.6z M741.1,223.8h1.8v-2.6h-1.8V223.8z M738.5,223.8h1.8v-2.6h-1.8V223.8z"/>
		<path class="st14" d="M743.6,226v2.6h1.8V226H743.6z M741.1,228.6h1.8V226h-1.8V228.6z M738.5,228.6h1.8V226h-1.7L738.5,228.6z"/>
		<path class="st19" d="M781.5,233.3h-44.4v8.9h44.4V233.3z"/>
		<path class="st19" d="M781.5,246.2h-44.4v4.1h44.4V246.2z"/>
		<path class="st19" d="M781.5,251h-44.4v4.1h44.4V251z"/>
		<path class="st14" d="M761.9,247.4h-5.2v1.5h5.2V247.4z"/>
		<path class="st14" d="M761.9,252.3h-5.2v1.6h5.2V252.3z"/>
		<path class="st14" d="M778.4,246.9v2.6h1.8v-2.6H778.4z M775.8,249.5h1.8v-2.6h-1.8V249.5z M773.3,249.5h1.8v-2.6h-1.8V249.5z"/>
		<path class="st12" d="M778.4,251.7v2.6h1.8v-2.6H778.4z M775.8,254.4h1.8v-2.6h-1.8V254.4z M773.3,254.4h1.8v-2.6h-1.8V254.4z"/>
		<path class="st14" d="M743.6,246.9v2.6h1.8v-2.6H743.6z M741.1,249.5h1.8v-2.6h-1.8V249.5z M738.5,249.5h1.8v-2.6h-1.7
			L738.5,249.5z"/>
		<path class="st14" d="M743.6,251.7v2.6h1.8v-2.6H743.6z M741.1,254.4h1.8v-2.6h-1.8V254.4z M738.5,254.4h1.8v-2.6h-1.7
			L738.5,254.4z"/>
		<path class="st19" d="M781.5,259.1h-44.4v4.1h44.4V259.1z"/>
		<path class="st19" d="M781.5,263.9h-44.4v4.1h44.4V263.9z"/>
		<path class="st14" d="M761.9,260.3h-5.2v1.5h5.2V260.3z"/>
		<path class="st14" d="M761.9,265.2h-5.2v1.5h5.2V265.2z"/>
		<path class="st12" d="M778.4,259.8v2.6h1.8v-2.6H778.4z M775.8,262.4h1.8v-2.6h-1.8V262.4z M773.3,262.4h1.8v-2.6h-1.8V262.4z"/>
		<path class="st14" d="M778.4,264.6v2.6h1.8v-2.6H778.4z M775.8,267.2h1.8v-2.6h-1.8V267.2z M773.3,267.2h1.8v-2.6h-1.8V267.2z"/>
		<path class="st12" d="M743.6,259.8v2.6h1.8v-2.6H743.6z M741.1,262.4h1.8v-2.6h-1.8V262.4z M738.5,262.4h1.8v-2.6h-1.7
			L738.5,262.4z"/>
		<path class="st14" d="M743.6,264.6v2.6h1.8v-2.6H743.6z M741.1,267.2h1.8v-2.6h-1.8V267.2z M738.5,267.2h1.8v-2.6h-1.7
			L738.5,267.2z"/>
		<path class="st19" d="M781.5,271.9h-44.4v4.1h44.4V271.9z"/>
		<path class="st19" d="M781.5,276.8h-44.4v4.1h44.4V276.8z"/>
		<path class="st14" d="M761.9,273.1h-5.2v1.5h5.2V273.1z"/>
		<path class="st14" d="M761.9,278h-5.2v1.6h5.2V278z"/>
		<path class="st14" d="M778.4,272.7v2.6h1.8v-2.6H778.4z M775.8,275.2h1.8v-2.6h-1.8V275.2z M773.3,275.2h1.8v-2.6h-1.8V275.2z"/>
		<path class="st12" d="M778.4,277.5v2.6h1.8v-2.6H778.4z M775.8,280.1h1.8v-2.6h-1.8V280.1z M773.3,280.1h1.8v-2.6h-1.8V280.1z"/>
		<path class="st14" d="M743.6,272.7v2.6h1.8v-2.6H743.6z M741.1,275.2h1.8v-2.6h-1.8V275.2z M738.5,275.2h1.8v-2.6h-1.7
			L738.5,275.2z"/>
		<path class="st12" d="M743.6,277.5v2.6h1.8v-2.6H743.6z M741.1,280.1h1.8v-2.6h-1.8V280.1z M738.5,280.1h1.8v-2.6h-1.7
			L738.5,280.1z"/>
		<path class="st19" d="M781.5,284.8h-44.4v4.1h44.4V284.8z"/>
		<path class="st19" d="M781.5,289.6h-44.4v4.1h44.4V289.6z"/>
		<path class="st12" d="M761.9,286h-5.2v1.5h5.2V286z"/>
		<path class="st14" d="M761.9,290.9h-5.2v1.5h5.2V290.9z"/>
		<path class="st12" d="M778.4,285.5v2.6h1.8v-2.6H778.4z M775.8,288.1h1.8v-2.6h-1.8V288.1z M773.3,288.1h1.8v-2.6h-1.8V288.1z"/>
		<path class="st14" d="M778.4,290.3v2.6h1.8v-2.6H778.4z M775.8,293h1.8v-2.6h-1.8V293z M773.3,293h1.8v-2.6h-1.8V293z"/>
		<path class="st14" d="M743.6,285.5v2.6h1.8v-2.6H743.6z M741.1,288.1h1.8v-2.6h-1.8V288.1z M738.5,288.1h1.8v-2.6h-1.7
			L738.5,288.1z"/>
		<path class="st14" d="M743.6,290.3v2.6h1.8v-2.6H743.6z M741.1,293h1.8v-2.6h-1.8V293z M738.5,293h1.8v-2.6h-1.7L738.5,293z"/>
		<path class="st19" d="M781.5,297.6h-44.4v4.1h44.4V297.6z"/>
		<path class="st19" d="M781.5,302.5h-44.4v4.1h44.4V302.5z"/>
		<path class="st14" d="M761.9,298.9h-5.2v1.5h5.2V298.9z"/>
		<path class="st14" d="M761.9,303.7h-5.2v1.5h5.2V303.7z"/>
		<path class="st14" d="M778.4,298.3v2.6h1.8v-2.6L778.4,298.3z M775.8,301h1.8v-2.6h-1.8V301z M773.3,301h1.8v-2.6h-1.8V301z"/>
		<path class="st14" d="M778.4,303.2v2.6h1.8v-2.6H778.4z M775.8,305.8h1.8v-2.6h-1.8V305.8z M773.3,305.8h1.8v-2.6h-1.8V305.8z"/>
		<path class="st12" d="M743.6,298.3v2.6h1.8v-2.6L743.6,298.3z M741.1,301h1.8v-2.6h-1.8V301z M738.5,301h1.8v-2.6h-1.8V301z"/>
		<path class="st12" d="M743.6,303.2v2.6h1.8v-2.6H743.6z M741.1,305.8h1.8v-2.6h-1.8V305.8z M738.5,305.8h1.8v-2.6h-1.7
			L738.5,305.8z"/>
		<path class="st19" d="M781.5,310.5h-44.4v4.1h44.4V310.5z"/>
		<path class="st19" d="M781.5,315.4h-44.4v4.1h44.4V315.4z"/>
		<path class="st14" d="M761.9,311.8h-5.2v1.5h5.2V311.8z"/>
		<path class="st14" d="M761.9,316.6h-5.2v1.5h5.2V316.6z"/>
		<path class="st14" d="M778.4,311.2v2.6h1.8v-2.6H778.4z M775.8,313.9h1.8v-2.6h-1.8V313.9z M773.3,313.9h1.8v-2.6h-1.8V313.9z"/>
		<path class="st14" d="M778.4,316.1v2.6h1.8v-2.6H778.4z M775.8,318.7h1.8v-2.6h-1.8V318.7z M773.3,318.7h1.8v-2.6h-1.8V318.7z"/>
		<path class="st12" d="M743.6,311.2v2.6h1.8v-2.6H743.6z M741.1,313.9h1.8v-2.6h-1.8V313.9z M738.5,313.9h1.8v-2.6h-1.7
			L738.5,313.9z"/>
		<path class="st12" d="M743.6,316.1v2.6h1.8v-2.6H743.6z M741.1,318.7h1.8v-2.6h-1.8V318.7z M738.5,318.7h1.8v-2.6h-1.7
			L738.5,318.7z"/>
		<path class="st19" d="M781.5,323.4h-44.4v4.1h44.4V323.4z"/>
		<path class="st19" d="M781.5,328.3h-44.4v4.1h44.4V328.3z"/>
		<path class="st14" d="M761.9,324.7h-5.2v1.6h5.2V324.7z"/>
		<path class="st12" d="M761.9,329.5h-5.2v1.5h5.2V329.5z"/>
		<path class="st12" d="M778.4,324.1v2.6h1.8v-2.6H778.4z M775.8,326.8h1.8v-2.6h-1.8V326.8z M773.3,326.8h1.8v-2.6h-1.8V326.8z"/>
		<path class="st14" d="M778.4,329v2.6h1.8V329H778.4z M775.8,331.6h1.8V329h-1.8V331.6z M773.3,331.6h1.8V329h-1.8V331.6z"/>
		<path class="st12" d="M743.6,324.1v2.6h1.8v-2.6H743.6z M741.1,326.8h1.8v-2.6h-1.8V326.8z M738.5,326.8h1.8v-2.6h-1.7
			L738.5,326.8z"/>
		<path class="st12" d="M743.6,329v2.6h1.8V329H743.6z M741.1,331.6h1.8V329h-1.8V331.6z M738.5,331.6h1.8V329h-1.7L738.5,331.6z"/>
		<path class="st18" d="M793.1,210.1h-10.3v142.5h10.3V210.1z"/>
		<path class="st20" d="M798,218.4v134.2h-4.8V210.1L798,218.4z"/>
		<path class="st21" d="M788.6,257.8h130.9c0.7,0,1.4,0.1,2,0.4c0.6,0.3,1.2,0.7,1.7,1.2c0.5,0.5,0.9,1.1,1.1,1.7
			c0.3,0.6,0.4,1.3,0.4,2V349H783.4v-85.8c0-0.7,0.1-1.4,0.4-2c0.3-0.6,0.7-1.2,1.1-1.7c0.5-0.5,1.1-0.9,1.7-1.1
			C787.3,258,787.9,257.8,788.6,257.8z"/>
		<g class="st22">
			<g>
				
					<image style="overflow:visible;" width="300" height="251" xlink:href="1D3C05E0.png"  transform="matrix(1 0 0 1 703.9606 177.9606)">
				</image>
				<g>
					<rect x="789.3" y="263" class="st23" width="129.6" height="80.7"/>
				</g>
			</g>
		</g>
		
			<radialGradient id="SVGID_5_" cx="427.4375" cy="620.1835" r="1" gradientTransform="matrix(4.000000e-15 64 248.5 -1.500000e-14 -153271.1094 -27003)" gradientUnits="userSpaceOnUse">
			<stop  offset="0" style="stop-color:#00366A"/>
			<stop  offset="1" style="stop-color:#005EB8;stop-opacity:0"/>
		</radialGradient>
		<rect x="596" y="353" class="st24" width="497" height="128"/>
		<path class="st25" d="M768.3,349.1H940v1.6c0,2.7-3.2,4.9-7.1,4.9H775.3c-3.9,0-7.1-2.2-7.1-4.9V349.1z"/>
		<path class="st26" d="M836.9,349.1h34.4v1.7c0,0.9-1,1.6-2.3,1.6h-30c-1.3,0-2.3-0.7-2.3-1.6L836.9,349.1L836.9,349.1z"/>
		<path class="st27" d="M881.4,275.7h5.4"/>
		<path class="st27" d="M881.4,281h5.4"/>
		<path class="st27" d="M874.4,303.3h5.3"/>
		<path class="st28" d="M826,286.4h1.4"/>
		<path class="st29" d="M807.6,319.5h11.7"/>
		<path class="st30" d="M821.4,319.5h1.4"/>
		<path class="st29" d="M818.3,314.1h18.6"/>
		<path class="st27" d="M864.8,275.7h13.6"/>
		<path class="st27" d="M882.7,303.3h13.8"/>
		<path class="st27" d="M864.8,280.9h13.6"/>
		<path class="st29" d="M807.6,325h7.5"/>
		<path class="st30" d="M826,325h1.4"/>
		<path class="st29" d="M864.7,325h1.4"/>
		<path class="st30" d="M829.9,324.8H862"/>
		<path class="st27" d="M864.8,286.4h13.6"/>
		<path class="st31" d="M803.7,269.4h33.2"/>
		<path class="st29" d="M807.6,275.7h7.5"/>
		<path class="st29" d="M807.6,281h7.5"/>
		<path class="st29" d="M807.6,286.4h7.5"/>
		<path class="st30" d="M818.3,275.7h5.4"/>
		<path class="st30" d="M818.3,280.9h5.4"/>
		<path class="st30" d="M818.3,286.4h5.4"/>
		<path class="st29" d="M826,275.7h1.4"/>
		<path class="st29" d="M826,281h1.4"/>
		<path class="st29" d="M803.9,275.7h1.4"/>
		<path class="st29" d="M803.9,281h1.4"/>
		<path class="st29" d="M803.9,286.4h1.4"/>
		<path class="st29" d="M807.6,298h11.7"/>
		<path class="st30" d="M822.5,298h6.7"/>
		<path class="st29" d="M831.5,298h1.4"/>
		<path class="st29" d="M803.9,298h1.4"/>
		<path class="st29" d="M813.7,303.3h6.8"/>
		<path class="st29" d="M823.2,303.3h13.7"/>
		<path class="st30" d="M839.6,303.3h32.1"/>
		<path class="st30" d="M829.9,275.7H862"/>
		<path class="st30" d="M829.9,280.9H862"/>
		<path class="st30" d="M829.9,286.4H862"/>
		<path class="st31" d="M803.7,292.6h33"/>
		<path class="st30" d="M823.2,308.7h13.6"/>
		<path class="st30" d="M803.9,319.5h1.4"/>
		<path class="st29" d="M813.7,314.1h1.4"/>
		<path class="st30" d="M874.3,308.7h13.6"/>
		<path class="st30" d="M839.6,308.7h31.8"/>
		<path class="st29" d="M818.3,324.8h5.4"/>
		<path class="st29" d="M803.9,325h1.4"/>
		<path class="st31" d="M803.7,331.3h33"/>
		<g class="st22">
			<path class="st32" d="M850,255.6H938v48.8c0,1.1-0.5,2.2-1.3,3c-0.8,0.8-1.9,1.3-3,1.3h-79.5c-1.1,0-2.2-0.5-3-1.3
				c-0.8-0.8-1.3-1.9-1.3-3L850,255.6L850,255.6z"/>
			<path class="st33" d="M933.7,244.4h-54l-7.3-7.2c-0.8-0.8-1.9-1.2-3-1.2h-15.3c-1.1,0-2.2,0.5-3,1.3c-0.8,0.8-1.3,1.9-1.3,3v15.3
				H938v-7c0-1.1-0.5-2.2-1.3-3C936,244.9,934.9,244.4,933.7,244.4z"/>
			<path class="st34" d="M857.3,245.2c1.1,0,2-0.9,2-2c0-1.1-0.9-2-2-2c-1.1,0-2,0.9-2,2C855.4,244.3,856.2,245.2,857.3,245.2z"/>
			<path class="st34" d="M862.9,245.2c1.1,0,2-0.9,2-2c0-1.1-0.9-2-2-2c-1.1,0-2,0.9-2,2C860.9,244.3,861.8,245.2,862.9,245.2z"/>
			<path class="st34" d="M868.4,245.2c1.1,0,2-0.9,2-2c0-1.1-0.9-2-2-2c-1.1,0-2,0.9-2,2C866.5,244.3,867.4,245.2,868.4,245.2z"/>
			<path class="st33" d="M930.5,263.1h-73v13.7h73V263.1z"/>
			<path class="st35" d="M879.1,281.9h-20.7v13.7h20.7V281.9z"/>
			<path class="st34" d="M930.5,281.9h-20.7v13.7h20.7V281.9z"/>
			<path class="st36" d="M905.2,281.9h-20.7v13.7h20.7V281.9z"/>
			<path class="st34" d="M879.1,298h-20.7v3.2h20.7V298z"/>
			<path class="st34" d="M930.5,298h-20.7v3.2h20.7V298z"/>
			<path class="st34" d="M905.2,298h-20.7v3.2h20.7V298z"/>
		</g>
	</g>
	<g class="st8">
		<g class="st37">
			<path class="st34" d="M1146.4,171.2c-2.4,0-4.8,0.2-7.2,0.7c-0.8-3.8-2.3-7.5-4.5-10.7c-2.2-3.3-5-6-8.2-8.2
				c-3.3-2.2-6.9-3.7-10.8-4.4c-3.8-0.8-7.8-0.7-11.6,0c-2.3,0.5-4.5,1.2-6.6,2.2c-3.5-9.8-10.8-17.9-20.2-22.4
				c-9.4-4.5-20.3-5.1-30.2-1.7c-9.9,3.4-18,10.6-22.7,20c-4.6,9.4-5.4,20.2-2.1,30.1c0.2,0.4,0.2,0.7,0.4,1.1
				c-8.6,0.3-16.8,4-22.8,10.3c-6,6.3-9.2,14.6-9.1,23.3c0.1,8.7,3.6,16.9,9.8,23c6.1,6.1,14.4,9.6,23.1,9.6h122.7
				c9.7,0,18.9-3.8,25.8-10.7c6.8-6.8,10.7-16.1,10.7-25.8s-3.8-18.9-10.7-25.8C1165.3,175,1156.1,171.1,1146.4,171.2L1146.4,171.2z
				"/>
		</g>
		<path class="st27" d="M1064.9,222.3h4.5"/>
		<path class="st27" d="M1085.7,222.3h4.5"/>
		<path class="st29" d="M1008.7,217.8h9.8"/>
		<path class="st30" d="M1021.2,217.8h5.6"/>
		<path class="st29" d="M1028.8,217.8h1.2"/>
		<path class="st30" d="M1021.8,226.9h11.4"/>
		<path class="st29" d="M1005.6,217.8h1.2"/>
		<path class="st29" d="M1138.2,195.3h9.8"/>
		<path class="st27" d="M1135.2,195.3h1.2"/>
		<path class="st30" d="M1149.9,195.3h1.2"/>
		<path class="st29" d="M1143.4,190.8h1.2"/>
		<path class="st29" d="M1013.9,222.3h5.7"/>
		<path class="st29" d="M1021.8,222.3h11.5"/>
		<path class="st29" d="M1147.3,190.8h15.6"/>
		<path class="st27" d="M1064.8,226.9h11.4"/>
		<path class="st27" d="M1035.5,199h11.5"/>
		<path class="st27" d="M1071.9,222.3h11.6"/>
		<path class="st27" d="M1035.6,226.9h26.8"/>
		<path class="st27" d="M1035.6,222.3h27"/>
		<path class="st27" d="M1035.5,203.4h11.5"/>
		<path class="st29" d="M1138.2,199.9h6.3"/>
		<path class="st29" d="M1147.3,199.8h4.5"/>
		<path class="st30" d="M1153.7,199.9h1.2"/>
		<path class="st28" d="M1135.2,199.9h1.2"/>
		<path class="st29" d="M1186.3,199.9h1.2"/>
		<path class="st30" d="M1157,199.8h27"/>
		<path class="st29" d="M997.1,162.1h1.2"/>
		<path class="st29" d="M997.1,166.6h1.2"/>
		<path class="st31" d="M996.9,156.8h27.9"/>
		<path class="st30" d="M1000.1,162.1h6.3"/>
		<path class="st30" d="M1000.1,166.6h6.3"/>
		<path class="st29" d="M1021.4,171.1h6.3"/>
		<path class="st30" d="M1009.2,162.1h4.5"/>
		<path class="st27" d="M1077.3,162.1h4.5"/>
		<path class="st27" d="M1077.3,166.6h4.5"/>
		<path class="st30" d="M1009.2,166.4h4.5"/>
		<path class="st30" d="M1030.5,171.1h4.5"/>
		<path class="st29" d="M1015.6,162.1h1.2"/>
		<path class="st29" d="M1015.6,166.6h1.2"/>
		<path class="st28" d="M1036.9,171.1h1.2"/>
		<path class="st29" d="M1018.4,171.1h1.2"/>
		<path class="st30" d="M1018.9,162.1h27"/>
		<path class="st30" d="M1018.9,166.4h27"/>
		<path class="st27" d="M1069.6,171.1h11.5"/>
		<path class="st27" d="M1040.2,171.1h27"/>
		<path class="st31" d="M1005.4,213.3h27.8"/>
		<path class="st31" d="M1135,205.2h27.8"/>
		<g class="st22">
			<path class="st32" d="M1034.5,169h104.5v58c0,1.3-0.5,2.6-1.5,3.6c-0.9,0.9-2.2,1.5-3.6,1.5h-94.4c-1.3,0-2.6-0.5-3.6-1.5
				c-1-0.9-1.5-2.2-1.5-3.6V169z"/>
		</g>
		<path class="st38" d="M1134,156.3h-64.1l-8.6-8.5c-1-0.9-2.2-1.4-3.5-1.5h-18.2c-1.3,0-2.6,0.5-3.6,1.5c-1,0.9-1.5,2.2-1.5,3.6
			v18.2h104.5v-8.2c0-1.3-0.5-2.6-1.5-3.6C1136.6,156.8,1135.3,156.3,1134,156.3z"/>
		<path class="st12" d="M1043.3,157.2c1.3,0,2.3-1,2.3-2.3s-1-2.3-2.3-2.3c-1.3,0-2.3,1-2.3,2.3S1042,157.2,1043.3,157.2z"/>
		<path class="st12" d="M1049.9,157.2c1.3,0,2.3-1,2.3-2.3s-1-2.3-2.3-2.3c-1.3,0-2.3,1-2.3,2.3S1048.6,157.2,1049.9,157.2z"/>
		<path class="st12" d="M1056.5,157.2c1.3,0,2.3-1,2.3-2.3s-1-2.3-2.3-2.3c-1.3,0-2.3,1-2.3,2.3S1055.2,157.2,1056.5,157.2z"/>
		<path class="st38" d="M1130.1,177.9h-86.6v16.3h86.6V177.9z"/>
		<path class="st39" d="M1069.1,200.3h-24.6v16.3h24.6V200.3z"/>
		<path class="st12" d="M1130.1,200.3h-24.6v16.3h24.6V200.3z"/>
		<path class="st40" d="M1100.1,200.3h-24.6v16.3h24.6V200.3z"/>
		<path class="st12" d="M1069.1,219.3h-24.6v3.8h24.6V219.3z"/>
		<path class="st12" d="M1130.1,219.3h-24.6v3.8h24.6V219.3z"/>
		<path class="st12" d="M1100.1,219.3h-24.6v3.8h24.6V219.3z"/>
	</g>
	<g class="st8">
		<path class="st41" d="M951.5,307.8h123c7.7,0,14-6.3,14-14v-6"/>
		<path class="st42" d="M1098.4,283.4l-9.2-16l-9.2,16H1098.4z"/>
		<path class="st41" d="M941.5,341.4h153.6c17.7,0,32-14.3,32-32v-49.2"/>
		<path class="st43" d="M1138.2,272.4l-11.1-19.3l-11.1,19.3H1138.2z"/>
		<path class="st41" d="M946.9,280.1h94.3c6,0,10.8-4.8,10.8-10.8l0,0"/>
		<path class="st44" d="M1059.1,265l-7.1-11.3L1045,265h7.1H1059.1z"/>
	</g>
	<g class="st8">
		<g class="st37">
			<path class="st34" d="M1131.9,67.1c0-2.3-0.6-4.5-1.6-6.5c-1.1-2-2.6-3.7-4.5-5c-1.9-1.3-4-2.1-6.3-2.3c-2.2-0.2-4.5,0.1-6.6,0.9
				c-1.8-3.2-4.6-5.7-7.9-7.1c-3.3-1.4-7.1-1.7-10.6-0.8c-3.5,0.9-6.6,3-8.8,5.9c-2.2,2.9-3.4,6.4-3.4,10c0,0.4,0,0.9,0.1,1.3
				c-0.3,0-0.7,0-1,0c-1.4,0-2.8,0.2-4,0.7c-1.3,0.5-2.5,1.3-3.4,2.2c-1,1-1.8,2.1-2.3,3.4c-0.5,1.3-0.8,2.6-0.8,4s0.3,2.7,0.8,4
				c0.5,1.3,1.3,2.4,2.3,3.4c1,1,2.2,1.7,3.4,2.2c1.3,0.5,2.7,0.7,4,0.7h46.9c2.1,0,4-0.7,5.6-2c1.6-1.3,2.7-3.1,3.2-5.1
				c0.4-2,0.2-4.1-0.7-5.9C1135.2,69.5,1133.7,68,1131.9,67.1z"/>
		</g>
		<path class="st45" d="M1107.9,62.5h0.9l2.5-2.5l0.1-1.1c-1.4-1.3-3.2-2.2-5-2.6c-1.9-0.4-3.8-0.4-5.7,0.2
			c-1.8,0.5-3.5,1.6-4.9,2.9c-1.3,1.4-2.3,3.1-2.8,4.9c0.3-0.1,0.6-0.1,0.9,0l5-0.8c0,0,0.2-0.4,0.4-0.4c1.1-1.2,2.6-1.9,4.2-2
			C1105.1,61,1106.7,61.5,1107.9,62.5L1107.9,62.5z"/>
		<path class="st46" d="M1114.9,64.4c-0.6-2.1-1.8-4-3.4-5.5l-3.5,3.5c0.7,0.6,1.3,1.3,1.7,2.2c0.4,0.8,0.6,1.8,0.6,2.7V68
			c0.4,0,0.8,0,1.2,0.2c0.4,0.1,0.8,0.4,1.1,0.7c0.3,0.3,0.6,0.6,0.7,1c0.2,0.4,0.2,0.8,0.2,1.2c0,0.4-0.1,0.8-0.2,1.2
			c-0.2,0.4-0.4,0.7-0.7,1c-0.3,0.3-0.7,0.5-1.1,0.7c-0.4,0.1-0.8,0.2-1.2,0.2h-6.3l-0.6,0.6v3.8l0.6,0.6h6.3c1.7,0,3.4-0.6,4.8-1.6
			c1.4-1,2.4-2.5,3-4.1c0.5-1.7,0.5-3.4-0.1-5.1C1117.4,66.8,1116.3,65.4,1114.9,64.4L1114.9,64.4z"/>
		<path class="st47" d="M1097.7,79.3h6.3v-5h-6.3c-0.4,0-0.9-0.1-1.3-0.3l-0.9,0.3l-2.5,2.5l-0.2,0.8
			C1094.2,78.7,1095.9,79.3,1097.7,79.3L1097.7,79.3z"/>
		<path class="st48" d="M1097.7,63c-1.7,0-3.4,0.5-4.8,1.5c-1.4,1-2.4,2.4-3,4c-0.5,1.6-0.6,3.4-0.1,5c0.5,1.6,1.5,3.1,2.9,4.1
			l3.6-3.6c-0.5-0.2-0.9-0.5-1.2-0.9c-0.3-0.4-0.5-0.9-0.6-1.4c-0.1-0.5-0.1-1,0.1-1.5c0.1-0.5,0.4-0.9,0.8-1.3
			c0.4-0.4,0.8-0.6,1.3-0.8c0.5-0.2,1-0.2,1.5-0.1c0.5,0.1,1,0.3,1.4,0.6s0.7,0.7,0.9,1.2l3.6-3.6c-0.8-1-1.8-1.8-2.9-2.4
			C1100.2,63.3,1098.9,63,1097.7,63L1097.7,63z"/>
	</g>
	<g class="st8">
		<g class="st37">
			<path class="st34" d="M1022.6,86c-0.1,0-0.3,0-0.4,0c0-0.1,0-0.2,0-0.3c0-3.7-1.2-7.3-3.5-10.2c-2.3-2.9-5.5-5-9-5.8
				c-3.6-0.9-7.4-0.5-10.7,1c-3.4,1.5-6.1,4.1-7.8,7.4c-2.2-1.2-4.7-1.7-7.1-1.4c-2.5,0.2-4.8,1.2-6.8,2.7c-1.9,1.5-3.4,3.6-4.2,6
				c-0.8,2.4-0.9,4.9-0.2,7.3c-2,0.4-3.7,1.6-4.8,3.3c-1.1,1.7-1.5,3.7-1.1,5.7c0.4,2,1.6,3.7,3.3,4.8c1.7,1.1,3.7,1.5,5.7,1.1
				c7.2-0.2,46.6,0.1,46.6,0.1c2.9,0,5.6-1.1,7.6-3.2c2-2,3.2-4.8,3.2-7.6c0-2.9-1.1-5.6-3.2-7.6C1028.2,87.1,1025.4,86,1022.6,86
				L1022.6,86z"/>
		</g>
		<path class="st49" d="M1003.8,82.2l-4.2,8.6l7.5,8.7l-14,1.6l21.7,0.2L1003.8,82.2z M1002.9,78.8l-9.8,8.2l-7.3,12.3l6.2-0.6
			L1002.9,78.8z"/>
	</g>
	<g class="st8">
		<g class="st37">
			<path class="st34" d="M958.3,143.4L958.3,143.4c0-0.4,0-0.9,0-1.3c0-1.8-0.5-3.5-1.4-5.1s-2.3-2.8-3.9-3.6
				c-1.6-0.8-3.4-1.2-5.2-1c-1.8,0.1-3.5,0.8-4.9,1.8c-1.6-3.5-4.3-6.4-7.8-8.1c-3.4-1.7-7.4-2.2-11.2-1.4c-3.8,0.8-7.2,2.9-9.6,5.9
				c-2.4,3-3.7,6.7-3.7,10.6c0,0.3,0,0.6,0,0.9c-2.6,0.4-4.9,1.7-6.6,3.7c-1.6,2-2.5,4.6-2.3,7.2c0.2,2.6,1.3,5,3.2,6.8
				c1.9,1.8,4.4,2.8,7,2.8h46.2c1.3,0,2.5-0.2,3.7-0.7c1.2-0.5,2.2-1.2,3.1-2.1c0.9-0.9,1.6-2,2.1-3.1c0.5-1.2,0.7-2.4,0.7-3.7
				c0-1.3-0.2-2.5-0.7-3.7c-0.5-1.2-1.2-2.2-2.1-3.1c-0.9-0.9-2-1.6-3.1-2.1C960.8,143.6,959.5,143.4,958.3,143.4L958.3,143.4z"/>
		</g>
		<path class="st50" d="M942.8,147.8c0.4,0.2,0.8,0.4,1.3,0.5c0.6,0.1,1.2,0.2,1.8,0.2c0.5,0,1.1-0.1,1.6-0.2
			c0.5-0.1,0.9-0.4,1.3-0.6c0.4-0.3,0.6-0.6,0.8-1c0.2-0.4,0.3-0.9,0.3-1.3c0-0.6-0.2-1.1-0.5-1.6c-0.5-0.5-1.1-0.9-1.8-1.1L946,142
			c-0.5-0.1-0.9-0.3-1.3-0.6c-0.1-0.1-0.2-0.3-0.3-0.4c-0.1-0.2-0.1-0.3-0.1-0.5c0-0.2,0.1-0.3,0.2-0.5c0.1-0.2,0.2-0.3,0.4-0.4
			c0.5-0.2,1-0.4,1.5-0.3c0.8,0,1.5,0.2,2.2,0.5c0.1,0.1,0.3,0.1,0.5,0.2c0.2,0,0.3-0.1,0.3-0.4V139c0-0.1,0-0.3-0.1-0.4
			c-0.1-0.1-0.2-0.2-0.3-0.3c-0.1-0.1-0.3-0.2-0.5-0.2c-0.2-0.1-0.4-0.1-0.6-0.2c-0.2-0.1-0.5-0.1-0.7-0.1c-0.3-0.1-0.5-0.1-0.8-0.1
			c-0.5,0-1,0.1-1.4,0.2c-0.4,0.1-0.9,0.3-1.3,0.6c-0.3,0.3-0.6,0.6-0.8,0.9c-0.2,0.4-0.3,0.8-0.3,1.3c0,0.6,0.2,1.2,0.6,1.6
			c0.5,0.6,1.1,1,1.8,1.1l1.7,0.5c0.4,0.1,0.8,0.3,1.1,0.6c0.1,0.1,0.2,0.2,0.2,0.4c0,0.1,0.1,0.3,0.1,0.4c0,0.2,0,0.4-0.1,0.6
			c-0.1,0.2-0.3,0.4-0.4,0.5c-0.5,0.3-1.1,0.4-1.7,0.4c-0.4,0-0.9,0-1.3-0.2c-0.4-0.1-0.9-0.2-1.3-0.4c-0.1,0-0.2-0.1-0.3-0.1
			c-0.1,0-0.1,0-0.2,0c-0.2,0-0.3,0.1-0.3,0.4v0.6c0,0.1,0,0.3,0.1,0.4S942.6,147.8,942.8,147.8L942.8,147.8z"/>
		<path class="st50" d="M923.5,142.3c-0.4-0.1-0.8-0.1-1.2-0.1c-1-0.1-2,0.3-2.8,0.9c-0.3,0.3-0.6,0.6-0.8,1
			c-0.2,0.4-0.3,0.8-0.2,1.3c0,0.4,0,0.8,0.2,1.2c0.1,0.4,0.4,0.7,0.6,1c0.3,0.3,0.7,0.5,1,0.6c0.4,0.1,0.8,0.2,1.2,0.2
			c0.6,0,1.3-0.1,1.9-0.4c0.6-0.3,1.1-0.7,1.5-1.2c0.1,0.2,0.2,0.5,0.3,0.7c0.1,0.2,0.3,0.4,0.4,0.5c0,0,0.1,0.1,0.2,0.1
			c0.1,0,0.1,0,0.2,0c0.1,0,0.2,0,0.3-0.1l0.7-0.5c0.1,0,0.1-0.1,0.2-0.1c0-0.1,0.1-0.1,0.1-0.2c0-0.1,0-0.2-0.1-0.3
			c-0.2-0.3-0.3-0.5-0.4-0.8c-0.1-0.3-0.1-0.7-0.1-1v-3.7c0-0.5,0-1-0.2-1.5c-0.2-0.5-0.4-0.9-0.7-1.3c-0.4-0.3-0.9-0.6-1.4-0.8
			c-0.5-0.2-1.1-0.2-1.6-0.2c-0.6,0-1.2,0.1-1.8,0.2c-0.5,0.1-1,0.3-1.4,0.5c-0.1,0.1-0.2,0.1-0.3,0.2c-0.1,0.1-0.1,0.2-0.1,0.4v0.6
			c0,0.2,0.1,0.4,0.2,0.4c0.1,0,0.1,0,0.2,0c0.1,0,0.3-0.1,0.4-0.2c0.4-0.2,0.8-0.3,1.2-0.4c0.4-0.1,0.8-0.2,1.2-0.2
			c0.7-0.1,1.3,0.1,1.9,0.5c0.2,0.3,0.4,0.5,0.5,0.9c0.1,0.3,0.1,0.6,0.1,1v0.8C924.4,142.5,924,142.4,923.5,142.3L923.5,142.3z
			 M924.8,144.3c0,0.3,0,0.6-0.1,1c-0.1,0.3-0.2,0.5-0.4,0.7c-0.3,0.3-0.7,0.6-1.1,0.7c-0.4,0.1-0.8,0.2-1.2,0.2
			c-0.4,0-0.9-0.1-1.2-0.4c-0.3-0.4-0.4-0.8-0.4-1.3c0-0.5,0.2-0.9,0.6-1.2c0.5-0.3,1.1-0.5,1.7-0.4c0.4,0,0.7,0,1.1,0.1
			c0.3,0,0.7,0.1,1,0.2V144.3L924.8,144.3z"/>
		<path class="st50" d="M930.6,147.6c0.1,0.2,0.1,0.3,0.2,0.4c0.1,0.1,0.2,0.1,0.5,0.1h1c0.2,0,0.3,0,0.5-0.1
			c0.1-0.1,0.2-0.3,0.2-0.4l1.8-7.3l1.8,7.3c0,0.1,0,0.2,0.1,0.2c0,0.1,0.1,0.1,0.2,0.2c0.1,0.1,0.3,0.1,0.5,0.1h1
			c0.1,0,0.2,0,0.2,0c0.1,0,0.2-0.1,0.2-0.1c0.1-0.1,0.1-0.1,0.1-0.2c0-0.1,0.1-0.2,0.1-0.2l2.8-8.8c0-0.1,0.1-0.2,0.1-0.3
			c0-0.1,0-0.1,0-0.2c0,0,0-0.1,0-0.1c0,0,0-0.1-0.1-0.1s-0.1,0-0.1-0.1c0,0-0.1,0-0.1,0h-1c-0.2,0-0.3,0-0.4,0.1
			c-0.1,0.1-0.2,0.3-0.2,0.5l-1.9,7.7l-1.8-7.7c0-0.1,0-0.2-0.1-0.2c0-0.1-0.1-0.1-0.2-0.2c-0.1-0.1-0.3-0.1-0.5-0.1h-0.9
			c-0.2,0-0.3,0-0.5,0.1c-0.1,0.1-0.2,0.3-0.2,0.4l-1.8,7.5l-1.9-7.5c-0.1-0.2-0.1-0.3-0.2-0.4c-0.1-0.1-0.2-0.1-0.4-0.1h-1.1
			c-0.2,0-0.3,0.1-0.3,0.3c0,0.2,0.1,0.3,0.1,0.5L930.6,147.6L930.6,147.6z"/>
		<path class="st51" d="M947.5,153.1c-4.1,1.7-8.5,2.6-12.9,2.6c-5.9,0-11.8-1.5-16.9-4.5c-0.4-0.3-0.7,0.2-0.4,0.5
			c4.6,4.2,10.7,6.5,16.9,6.4c4.7,0,10.1-1.5,13.9-4.2C948.6,153.5,948.1,152.9,947.5,153.1L947.5,153.1z"/>
		<path class="st51" d="M945.1,151.6c-0.3,0.2-0.3,0.6,0.1,0.5c1.2-0.2,3.9-0.5,4.4,0.2s-0.5,3.1-1,4.2c-0.2,0.3,0.2,0.5,0.5,0.2
			c2-1.7,2.5-5.2,2.1-5.7C950.8,150.6,947.2,150.1,945.1,151.6L945.1,151.6z"/>
	</g>
</g>
</svg>
