<svg width="288" height="129" viewBox="0 0 288 129" fill="none" xmlns="http://www.w3.org/2000/svg">
<path d="M76.8075 94.0738C76.761 94.0286 76.7243 93.9746 76.6994 93.9148C76.6745 93.8551 76.662 93.7909 76.6626 93.7261V65.9026C76.6626 65.772 76.7145 65.6467 76.8069 65.5544C76.8992 65.462 77.0245 65.4102 77.1551 65.4102H81.9709C82.1015 65.4102 82.2268 65.462 82.3191 65.5544C82.4115 65.6467 82.4634 65.772 82.4634 65.9026V89.0768C82.4598 89.1043 82.4626 89.1322 82.4716 89.1584C82.4805 89.1846 82.4953 89.2085 82.5149 89.2281C82.5345 89.2476 82.5583 89.2625 82.5845 89.2714C82.6108 89.2803 82.6387 89.2831 82.6662 89.2796H93.7028C93.7675 89.2796 93.8315 89.2923 93.8913 89.3171C93.951 89.3418 94.0053 89.3781 94.051 89.4238C94.0968 89.4696 94.133 89.5238 94.1578 89.5836C94.1825 89.6433 94.1953 89.7074 94.1953 89.772V93.7696C94.1953 93.8343 94.1825 93.8983 94.1578 93.958C94.133 94.0178 94.0968 94.0721 94.051 94.1178C94.0053 94.1635 93.951 94.1998 93.8913 94.2246C93.8315 94.2493 93.7675 94.262 93.7028 94.262H77.1623C77.0929 94.2588 77.0251 94.2402 76.9638 94.2077C76.9024 94.1751 76.8491 94.1294 76.8075 94.0738Z" fill="white"/>
<path d="M114.017 83.4288L113.973 85.0365C113.983 85.1034 113.977 85.1717 113.955 85.2358C113.934 85.3 113.898 85.3583 113.85 85.4062C113.803 85.454 113.744 85.49 113.68 85.5113C113.616 85.5326 113.548 85.5386 113.481 85.5289H102.567C102.539 85.5241 102.51 85.526 102.483 85.5343C102.456 85.5427 102.431 85.5574 102.411 85.5771C102.39 85.5969 102.375 85.6211 102.365 85.648C102.356 85.6748 102.353 85.7035 102.357 85.7317C102.41 86.3642 102.466 86.8301 102.524 87.1294C102.625 87.8363 102.983 88.4811 103.53 88.9399C104.097 89.3904 104.806 89.6241 105.529 89.5989C106.131 89.6196 106.724 89.4521 107.227 89.1198C107.729 88.7876 108.115 88.307 108.332 87.745C108.376 87.6239 108.463 87.5233 108.576 87.4619C108.69 87.4006 108.822 87.3828 108.947 87.4118L113.292 88.2736C113.361 88.2798 113.428 88.303 113.486 88.3411C113.544 88.3793 113.591 88.4311 113.624 88.492C113.657 88.553 113.674 88.6211 113.675 88.6904C113.675 88.7597 113.658 88.828 113.625 88.8892C113.115 90.571 112.067 92.0389 110.642 93.0678C109.127 94.0755 107.333 94.5821 105.515 94.5162C103.452 94.6191 101.414 94.0332 99.721 92.8505C98.2253 91.6514 97.2206 89.9459 96.8967 88.0564C96.6039 86.3564 96.4802 84.6317 96.5273 82.9073C96.5112 81.7894 96.5936 80.6723 96.7736 79.5688C97.0032 77.6141 97.9755 75.8224 99.4893 74.5646C101.215 73.3064 103.305 72.649 105.44 72.6935C107.575 72.738 109.637 73.4818 111.308 74.8108C112.089 75.523 112.72 76.3835 113.166 77.3421C113.611 78.3007 113.861 79.3382 113.901 80.3944C113.978 81.3165 114.017 82.328 114.017 83.4288ZM103.414 78.3594C102.911 78.8421 102.585 79.4796 102.487 80.1699C102.404 80.687 102.362 81.2102 102.364 81.7341C102.361 81.7623 102.363 81.791 102.373 81.8178C102.382 81.8447 102.398 81.869 102.418 81.8887C102.438 81.9085 102.463 81.9231 102.49 81.9315C102.518 81.9399 102.546 81.9417 102.574 81.9369H107.904C107.932 81.9405 107.96 81.9377 107.986 81.9287C108.012 81.9198 108.036 81.905 108.056 81.8854C108.075 81.8658 108.09 81.842 108.099 81.8158C108.108 81.7895 108.111 81.7616 108.107 81.7341C108.109 81.2102 108.068 80.687 107.984 80.1699C107.905 79.4849 107.584 78.8506 107.079 78.3811C106.56 77.9532 105.908 77.7192 105.236 77.7192C104.563 77.7192 103.912 77.9532 103.393 78.3811L103.414 78.3594Z" fill="white"/>
<path d="M128.08 92.7974C126.573 91.6149 125.578 89.8987 125.299 88.0033C125.051 86.5346 124.94 85.046 124.966 83.5567C124.975 82.1023 125.086 80.6503 125.299 79.2116C125.595 77.3389 126.598 75.6512 128.102 74.4971C129.744 73.2865 131.748 72.6687 133.787 72.7445C135.794 72.6788 137.768 73.2714 139.407 74.4319C140.887 75.4924 141.897 77.0869 142.224 78.8784C142.3 79.2735 142.356 79.6724 142.39 80.0734C142.394 80.1411 142.384 80.209 142.362 80.2729C142.339 80.3368 142.303 80.3955 142.257 80.4455C142.212 80.4955 142.156 80.5357 142.094 80.5639C142.032 80.592 141.966 80.6074 141.898 80.6093L137.162 81.0655H137.082C136.836 81.0655 136.684 80.9134 136.633 80.6093C136.638 80.4703 136.624 80.3313 136.59 80.1965C136.532 79.9792 136.481 79.7837 136.423 79.6171C136.262 79.0728 135.929 78.5951 135.474 78.2556C134.974 77.8878 134.364 77.699 133.743 77.7197C133.077 77.6933 132.427 77.93 131.933 78.3787C131.442 78.8672 131.124 79.5031 131.028 80.1892C130.846 81.3193 130.764 82.463 130.782 83.6074C130.753 84.7948 130.85 85.9818 131.071 87.1487C131.17 87.8189 131.479 88.4403 131.955 88.923C132.194 89.1462 132.476 89.3195 132.783 89.4326C133.09 89.5458 133.416 89.5966 133.743 89.582C134.442 89.6159 135.126 89.38 135.655 88.923C136.13 88.4974 136.431 87.9124 136.503 87.2791L136.582 86.7866C136.608 86.6542 136.674 86.5329 136.771 86.439C136.815 86.3931 136.87 86.3596 136.931 86.3418C136.992 86.324 137.056 86.3225 137.118 86.3376L141.898 86.7504C141.963 86.755 142.027 86.7725 142.086 86.8021C142.144 86.8316 142.196 86.8725 142.239 86.9225C142.281 86.9724 142.313 87.0303 142.333 87.0928C142.353 87.1552 142.36 87.221 142.354 87.2863C142.344 87.5629 142.318 87.8386 142.274 88.1119C142.172 89.0442 141.88 89.9456 141.415 90.7603C140.951 91.575 140.324 92.2856 139.573 92.8481C137.888 94.0529 135.85 94.6619 133.78 94.579C131.732 94.6515 129.722 94.023 128.08 92.7974Z" fill="white"/>
<path d="M147.93 92.7544C147.171 92.155 146.539 91.4113 146.069 90.566C145.599 89.7208 145.301 88.7909 145.193 87.8299C144.96 86.4275 144.849 85.0076 144.86 83.5861C144.847 82.1645 144.958 80.7445 145.193 79.3424C145.308 78.3954 145.609 77.4806 146.079 76.6505C146.549 75.8203 147.178 75.0911 147.93 74.5047C149.625 73.2576 151.694 72.6265 153.796 72.716C155.876 72.6231 157.924 73.2554 159.59 74.5047C161.09 75.7059 162.07 77.4381 162.327 79.3424C162.766 82.14 162.766 84.9888 162.327 87.7865C162.116 89.7314 161.145 91.5142 159.626 92.7472C157.957 93.9912 155.912 94.6228 153.832 94.5359C151.719 94.6359 149.635 94.0069 147.93 92.7544ZM155.628 88.8655C156.158 88.357 156.511 87.692 156.635 86.9681C156.769 85.8482 156.836 84.7213 156.838 83.5934C156.839 82.4774 156.771 81.3624 156.635 80.2548C156.538 79.5362 156.195 78.8734 155.665 78.3792C155.136 77.9189 154.453 77.6757 153.753 77.6984C153.064 77.6791 152.393 77.9225 151.877 78.3792C151.346 78.873 151.003 79.536 150.907 80.2548C150.752 81.3606 150.684 82.4769 150.704 83.5934C150.692 84.7206 150.747 85.8476 150.87 86.9681C150.996 87.6961 151.358 88.3626 151.899 88.8655C152.415 89.3413 153.094 89.6005 153.796 89.5897C154.481 89.5964 155.142 89.3338 155.636 88.8583L155.628 88.8655Z" fill="white"/>
<path d="M181.163 74.6369C182.303 75.9114 182.872 77.6881 182.872 79.9669V93.7266C182.872 93.8572 182.82 93.9825 182.728 94.0748C182.636 94.1672 182.51 94.2191 182.38 94.2191H177.564C177.499 94.2191 177.435 94.2063 177.376 94.1816C177.316 94.1568 177.262 94.1206 177.216 94.0748C177.17 94.0291 177.134 93.9748 177.109 93.9151C177.084 93.8553 177.072 93.7913 177.072 93.7266V80.7925C177.112 79.9742 176.855 79.169 176.347 78.5258C176.115 78.2531 175.823 78.0371 175.494 77.8941C175.165 77.751 174.808 77.6847 174.45 77.7002C174.081 77.6844 173.714 77.7524 173.375 77.8992C173.036 78.0459 172.735 78.2676 172.495 78.5475C171.983 79.1971 171.726 80.0105 171.77 80.836V93.7266C171.77 93.8572 171.719 93.9825 171.626 94.0748C171.534 94.1672 171.409 94.2191 171.278 94.2191H166.462C166.332 94.2191 166.206 94.1672 166.114 94.0748C166.022 93.9825 165.97 93.8572 165.97 93.7266V73.5433C165.97 73.4127 166.022 73.2875 166.114 73.1951C166.206 73.1028 166.332 73.0509 166.462 73.0509H171.278C171.409 73.0509 171.534 73.1028 171.626 73.1951C171.719 73.2875 171.77 73.4127 171.77 73.5433V74.6948C171.77 74.7745 171.77 74.8252 171.85 74.8396C171.93 74.8541 171.973 74.8396 172.053 74.6948C172.562 74.0366 173.223 73.5125 173.981 73.168C174.738 72.8235 175.568 72.6689 176.398 72.7178C177.285 72.6646 178.172 72.8093 178.997 73.1412C179.821 73.4731 180.561 73.9839 181.163 74.6369Z" fill="white"/>
<path d="M189.115 92.7974C187.608 91.6149 186.612 89.8987 186.334 88.0033C186.086 86.5346 185.974 85.046 186.001 83.5567C186.01 82.1023 186.121 80.6503 186.334 79.2116C186.629 77.3389 187.633 75.6512 189.137 74.4971C190.779 73.2865 192.783 72.6687 194.822 72.7445C196.829 72.6788 198.802 73.2714 200.441 74.4319C201.922 75.4924 202.932 77.0869 203.258 78.8784C203.335 79.2735 203.391 79.6724 203.425 80.0734C203.429 80.1411 203.419 80.209 203.396 80.2729C203.373 80.3368 203.338 80.3955 203.292 80.4455C203.246 80.4955 203.191 80.5357 203.129 80.5639C203.067 80.592 203 80.6074 202.933 80.6093L198.196 81.0655H198.117C197.87 81.0655 197.718 80.9134 197.668 80.6093C197.673 80.4703 197.658 80.3313 197.624 80.1965C197.566 79.9792 197.516 79.7837 197.458 79.6171C197.297 79.0728 196.964 78.5951 196.509 78.2556C196.009 77.8878 195.399 77.699 194.778 77.7197C194.112 77.6933 193.461 77.93 192.968 78.3787C192.476 78.8672 192.158 79.5031 192.062 80.1892C191.881 81.3193 191.798 82.463 191.816 83.6074C191.788 84.7948 191.885 85.9818 192.106 87.1487C192.205 87.8189 192.514 88.4403 192.989 88.923C193.229 89.1462 193.51 89.3195 193.817 89.4326C194.125 89.5458 194.451 89.5966 194.778 89.582C195.476 89.6159 196.161 89.38 196.69 88.923C197.164 88.4974 197.466 87.9124 197.537 87.2791L197.617 86.7866C197.643 86.6542 197.708 86.5329 197.805 86.439C197.849 86.3931 197.904 86.3596 197.965 86.3418C198.026 86.324 198.091 86.3225 198.153 86.3376L202.933 86.7504C202.998 86.755 203.062 86.7725 203.12 86.8021C203.179 86.8316 203.231 86.8725 203.273 86.9225C203.316 86.9724 203.348 87.0303 203.368 87.0928C203.388 87.1552 203.395 87.221 203.389 87.2863C203.379 87.5629 203.352 87.8386 203.309 88.1119C203.207 89.0442 202.915 89.9456 202.45 90.7603C201.985 91.575 201.358 92.2856 200.608 92.8481C198.923 94.0529 196.884 94.6619 194.814 94.579C192.767 94.6515 190.756 94.023 189.115 92.7974Z" fill="white"/>
<path d="M207.118 69.7314C206.543 69.0896 206.224 68.2579 206.224 67.3958C206.224 66.5338 206.543 65.702 207.118 65.0603C207.422 64.757 207.786 64.5199 208.186 64.3641C208.586 64.2083 209.014 64.1371 209.443 64.1551C210.307 64.1551 211.136 64.4984 211.747 65.1096C212.358 65.7207 212.702 66.5496 212.702 67.4139C212.702 68.2782 212.358 69.1071 211.747 69.7183C211.136 70.3295 210.307 70.6728 209.443 70.6728C209.011 70.6874 208.581 70.6112 208.181 70.449C207.78 70.2868 207.418 70.0423 207.118 69.7314ZM206.684 94.0715C206.637 94.0267 206.6 93.9726 206.575 93.9128C206.55 93.853 206.538 93.7887 206.539 93.7239V73.5406C206.539 73.41 206.591 73.2848 206.683 73.1924C206.776 73.1 206.901 73.0482 207.031 73.0482H211.847C211.978 73.0482 212.103 73.1 212.195 73.1924C212.288 73.2848 212.34 73.41 212.34 73.5406V93.7167C212.34 93.7813 212.327 93.8454 212.302 93.9051C212.277 93.9649 212.241 94.0191 212.195 94.0649C212.15 94.1106 212.095 94.1469 212.036 94.1716C211.976 94.1964 211.912 94.2091 211.847 94.2091H207.046C206.982 94.2111 206.918 94.2 206.858 94.1763C206.798 94.1526 206.744 94.117 206.698 94.0715H206.684Z" fill="white"/>
<path d="M233.32 83.4288L233.276 85.0365C233.286 85.1034 233.28 85.1717 233.259 85.2358C233.237 85.3 233.201 85.3583 233.153 85.4062C233.106 85.454 233.047 85.49 232.983 85.5113C232.919 85.5326 232.851 85.5386 232.784 85.5289H221.877C221.849 85.5241 221.821 85.526 221.793 85.5343C221.766 85.5427 221.741 85.5574 221.721 85.5771C221.701 85.5969 221.685 85.6211 221.676 85.648C221.666 85.6748 221.664 85.7035 221.667 85.7317C221.72 86.3642 221.776 86.8301 221.834 87.1294C221.935 87.8363 222.293 88.4811 222.841 88.9399C223.407 89.3904 224.116 89.6241 224.839 89.5989C225.441 89.6196 226.035 89.4521 226.537 89.1198C227.039 88.7876 227.425 88.307 227.642 87.745C227.686 87.6239 227.773 87.5233 227.887 87.4619C228 87.4006 228.132 87.3828 228.258 87.4118L232.603 88.2736C232.672 88.2798 232.738 88.303 232.796 88.3411C232.854 88.3793 232.901 88.4311 232.934 88.492C232.967 88.553 232.985 88.6211 232.985 88.6904C232.985 88.7597 232.968 88.828 232.936 88.8892C232.425 90.571 231.377 92.0389 229.952 93.0678C228.437 94.0755 226.643 94.5821 224.825 94.5162C222.762 94.6191 220.724 94.0332 219.031 92.8505C217.536 91.6514 216.531 89.9459 216.207 88.0564C215.914 86.3564 215.79 84.6317 215.838 82.9073C215.821 81.7894 215.904 80.6723 216.084 79.5688C216.313 77.6141 217.286 75.8224 218.8 74.5646C220.525 73.3064 222.616 72.649 224.751 72.6935C226.885 72.738 228.947 73.4818 230.618 74.8108C231.394 75.524 232.021 76.3841 232.463 77.3413C232.904 78.2985 233.151 79.3338 233.189 80.3871C233.281 81.3141 233.324 82.328 233.32 83.4288ZM222.717 78.3594C222.215 78.8421 221.888 79.4796 221.79 80.1699C221.707 80.687 221.665 81.2102 221.667 81.7341C221.664 81.7623 221.666 81.791 221.676 81.8178C221.685 81.8447 221.701 81.869 221.721 81.8887C221.741 81.9085 221.766 81.9231 221.793 81.9315C221.821 81.9399 221.849 81.9417 221.877 81.9369H227.229C227.257 81.9405 227.285 81.9377 227.311 81.9287C227.337 81.9198 227.361 81.905 227.38 81.8854C227.4 81.8658 227.415 81.842 227.424 81.8158C227.433 81.7895 227.435 81.7616 227.432 81.7341C227.434 81.2102 227.393 80.687 227.309 80.1699C227.23 79.4849 226.909 78.8506 226.404 78.3811C225.885 77.9532 225.233 77.7192 224.561 77.7192C223.888 77.7192 223.236 77.9532 222.717 78.3811V78.3594Z" fill="white"/>
<path d="M248.52 73.2508C248.628 73.3184 248.71 73.4196 248.755 73.5386C248.799 73.6577 248.803 73.7882 248.766 73.9098L247.941 78.646C247.912 78.9743 247.719 79.0709 247.362 78.9357C246.971 78.832 246.57 78.7761 246.167 78.7691C245.806 78.7724 245.447 78.8136 245.095 78.8923C244.298 79.0008 243.574 79.4134 243.074 80.0437C242.521 80.7153 242.228 81.5636 242.249 82.4336V93.7165C242.249 93.8471 242.197 93.9724 242.105 94.0647C242.012 94.1571 241.887 94.209 241.756 94.209H236.94C236.81 94.209 236.685 94.1571 236.592 94.0647C236.5 93.9724 236.448 93.8471 236.448 93.7165V73.5405C236.448 73.4099 236.5 73.2846 236.592 73.1923C236.685 73.0999 236.81 73.048 236.94 73.048H241.756C241.887 73.048 242.012 73.0999 242.105 73.1923C242.197 73.2846 242.249 73.4099 242.249 73.5405V75.1844C242.249 75.293 242.249 75.3582 242.314 75.3727C242.379 75.3872 242.401 75.3727 242.459 75.2713C242.826 74.5148 243.399 73.8776 244.113 73.4329C244.827 72.9883 245.652 72.7545 246.493 72.7583C247.199 72.7471 247.897 72.9166 248.52 73.2508Z" fill="white"/>
<path d="M261.49 73.3414L261.635 73.1965C261.68 73.1501 261.734 73.1133 261.794 73.0884C261.854 73.0635 261.918 73.051 261.983 73.0517H266.799C266.863 73.0517 266.927 73.0644 266.987 73.0892C267.047 73.1139 267.101 73.1502 267.147 73.1959C267.193 73.2416 267.229 73.2959 267.254 73.3557C267.278 73.4154 267.291 73.4795 267.291 73.5441V92.7787C267.291 96.0714 266.379 98.5216 264.554 100.129C262.729 101.737 260.114 102.541 256.711 102.541C255.967 102.541 255.185 102.5 254.364 102.418C254.295 102.42 254.226 102.408 254.162 102.381C254.099 102.355 254.041 102.314 253.994 102.264C253.948 102.213 253.912 102.152 253.891 102.086C253.87 102.02 253.863 101.951 253.872 101.882L253.995 97.725C253.995 97.4208 254.174 97.2687 254.531 97.2687C255.106 97.3312 255.684 97.3578 256.262 97.3484C258.101 97.3484 259.434 96.9573 260.259 96.1752C261.085 95.3931 261.498 94.1499 261.498 92.4456C261.502 92.4131 261.497 92.3799 261.483 92.3503C261.469 92.3206 261.446 92.2958 261.418 92.279C261.36 92.279 261.309 92.279 261.251 92.3587C260.73 92.9512 260.081 93.4184 259.354 93.7256C258.627 94.0328 257.84 94.172 257.051 94.133C255.402 94.1796 253.793 93.6235 252.525 92.5687C251.2 91.3554 250.365 89.6989 250.179 87.9121C249.929 86.478 249.832 85.0215 249.889 83.567C249.828 82.0201 249.952 80.4714 250.258 78.9539C250.449 77.23 251.214 75.6204 252.431 74.3842C253.034 73.8286 253.742 73.3974 254.512 73.1153C255.283 72.8332 256.101 72.7058 256.921 72.7403C257.738 72.7021 258.553 72.8491 259.305 73.1701C260.058 73.4911 260.728 73.9779 261.266 74.5942C261.324 74.6739 261.374 74.7028 261.432 74.6739C261.461 74.6571 261.483 74.6323 261.497 74.6026C261.512 74.573 261.517 74.5398 261.512 74.5073V73.3558L261.49 73.3414ZM261.49 83.5525C261.503 82.4108 261.447 81.2694 261.324 80.1343C261.223 79.4602 260.905 78.8373 260.419 78.36C259.937 77.9148 259.3 77.6779 258.644 77.701C258.322 77.6938 258.001 77.7502 257.7 77.867C257.4 77.9838 257.125 78.1587 256.892 78.3818C256.402 78.8509 256.077 79.4656 255.965 80.1343C255.79 81.2651 255.707 82.4083 255.719 83.5525C255.711 84.6686 255.779 85.784 255.921 86.891C256.024 87.5692 256.35 88.1937 256.848 88.6653C257.351 89.1134 258.008 89.3495 258.681 89.3243C259.336 89.3474 259.973 89.1105 260.455 88.6653C260.932 88.2041 261.236 87.5931 261.317 86.9345C261.442 85.8116 261.5 84.6823 261.49 83.5525Z" fill="white"/>
<path d="M287.974 83.4288L287.931 85.0365C287.941 85.1034 287.935 85.1717 287.913 85.2358C287.892 85.3 287.856 85.3583 287.808 85.4062C287.76 85.454 287.702 85.49 287.638 85.5113C287.574 85.5326 287.505 85.5386 287.438 85.5289H276.525C276.497 85.5241 276.468 85.526 276.441 85.5343C276.414 85.5427 276.389 85.5574 276.368 85.5771C276.348 85.5969 276.333 85.6211 276.323 85.648C276.314 85.6748 276.311 85.7035 276.315 85.7317C276.368 86.3642 276.423 86.8301 276.481 87.1294C276.582 87.8363 276.941 88.4811 277.488 88.9399C278.055 89.3904 278.763 89.6241 279.487 89.5989C280.089 89.6196 280.682 89.4521 281.184 89.1198C281.687 88.7876 282.073 88.307 282.289 87.745C282.334 87.6239 282.421 87.5233 282.534 87.4619C282.648 87.4006 282.779 87.3828 282.905 87.4118L287.25 88.2736C287.319 88.2798 287.386 88.303 287.443 88.3411C287.501 88.3793 287.549 88.4311 287.582 88.492C287.615 88.553 287.632 88.6211 287.632 88.6904C287.633 88.7597 287.616 88.828 287.583 88.8892C287.073 90.571 286.025 92.0389 284.6 93.0678C283.084 94.0755 281.291 94.5821 279.472 94.5162C277.41 94.6191 275.372 94.0332 273.679 92.8505C272.183 91.6514 271.178 89.9459 270.854 88.0564C270.562 86.3564 270.438 84.6317 270.485 82.9073C270.469 81.7894 270.551 80.6723 270.731 79.5688C270.961 77.6141 271.933 75.8224 273.447 74.5646C275.172 73.3064 277.263 72.649 279.398 72.6935C281.533 72.738 283.594 73.4818 285.266 74.8108C286.047 75.523 286.678 76.3835 287.123 77.3421C287.568 78.3007 287.818 79.3382 287.858 80.3944C287.936 81.3165 287.974 82.328 287.974 83.4288ZM277.372 78.3594C276.869 78.8421 276.543 79.4796 276.445 80.1699C276.361 80.687 276.32 81.2102 276.322 81.7341C276.318 81.7623 276.321 81.791 276.33 81.8178C276.34 81.8447 276.355 81.869 276.376 81.8887C276.396 81.9085 276.421 81.9231 276.448 81.9315C276.475 81.9399 276.504 81.9417 276.532 81.9369H281.884C281.911 81.9405 281.939 81.9377 281.965 81.9287C281.992 81.9198 282.016 81.905 282.035 81.8854C282.055 81.8658 282.07 81.842 282.078 81.8158C282.087 81.7895 282.09 81.7616 282.087 81.7341C282.089 81.2102 282.048 80.687 281.964 80.1699C281.884 79.4849 281.563 78.8506 281.058 78.3811C280.539 77.9532 279.888 77.7192 279.215 77.7192C278.543 77.7192 277.891 77.9532 277.372 78.3811V78.3594Z" fill="white"/>
<path d="M34.3411 128.999C29.8314 128.999 25.3658 128.111 21.1993 126.385C17.0329 124.659 13.2471 122.13 10.0583 118.941C6.86941 115.752 4.33986 111.966 2.61406 107.8C0.888259 103.633 0 99.1675 0 94.6577C0 90.1479 0.888259 85.6823 2.61406 81.5158C4.33986 77.3494 6.86941 73.5636 10.0583 70.3747C13.2471 67.1858 17.0329 64.6563 21.1993 62.9305C25.3658 61.2047 29.8314 60.3164 34.3411 60.3164H68.6822V94.6577C68.6822 103.766 65.0641 112.5 58.6239 118.941C52.1837 125.381 43.4489 128.999 34.3411 128.999Z" fill="white"/>
<path d="M40.446 0C32.9554 0 25.7716 2.97565 20.4749 8.27235C15.1783 13.569 12.2026 20.7529 12.2026 28.2436C12.2026 35.7342 15.1783 42.9181 20.4749 48.2148C25.7716 53.5115 32.9554 56.4871 40.446 56.4871H68.6895V28.2436C68.6895 20.7529 65.7138 13.569 60.4172 8.27235C55.1205 2.97565 47.9367 0 40.446 0Z" fill="white"/>
<path d="M109.708 19.3138C106.671 16.2551 102.793 14.1686 98.5675 13.3199C94.3418 12.4712 89.9592 12.8986 85.977 14.5476C81.9949 16.1967 78.5932 18.993 76.2048 22.5807C73.8163 26.1685 72.5489 30.3856 72.5639 34.6957V56.4867H94.2896C98.6002 56.5031 102.818 55.2368 106.407 52.8488C109.996 50.4609 112.793 47.0593 114.443 43.0768C116.093 39.0944 116.521 34.7111 115.673 30.4847C114.824 26.2583 112.738 22.3798 109.679 19.3428L109.708 19.3138Z" fill="white"/>
<path d="M77.9663 113.734V102.727H79.4147V107.456C79.6688 107.05 80.0275 106.72 80.4532 106.501C80.8788 106.282 81.3556 106.181 81.8335 106.21C84.0567 106.21 85.1937 107.912 85.1937 110.041C85.1937 112.17 83.9626 113.937 81.79 113.937C81.317 113.963 80.8459 113.859 80.4274 113.637C80.0089 113.415 79.6588 113.083 79.4147 112.677V113.742L77.9663 113.734ZM81.5366 107.47C80.2765 107.47 79.364 108.462 79.364 110.041C79.364 111.62 80.2765 112.655 81.5366 112.655C82.7967 112.655 83.7091 111.62 83.7091 110.041C83.7091 108.462 82.8618 107.47 81.5366 107.47Z" fill="white"/>
<path d="M88.4598 116.792L90.2847 112.932L87.1345 106.414H88.7784L91.0596 111.483L93.2322 106.414H94.7675L90.0096 116.785L88.4598 116.792Z" fill="white"/>
<path d="M106.456 109.269L105.116 110.717V113.715H103.016V102.961H105.116V107.842L109.461 102.961H112.213L107.941 107.661L112.242 113.744H109.613L106.456 109.269Z" fill="white"/>
<path d="M117.022 113.734H115.001V102.727H117.022V106.876C117.282 106.605 117.597 106.393 117.945 106.252C118.293 106.111 118.667 106.045 119.042 106.058C120.94 106.058 121.823 107.383 121.823 109.02V113.734H119.803V109.389C119.829 109.196 119.812 109 119.753 108.815C119.694 108.63 119.595 108.46 119.463 108.317C119.331 108.174 119.169 108.063 118.988 107.99C118.808 107.918 118.614 107.886 118.42 107.897C118.232 107.897 118.046 107.935 117.873 108.008C117.7 108.082 117.543 108.189 117.413 108.324C117.282 108.46 117.181 108.62 117.113 108.795C117.046 108.971 117.015 109.158 117.022 109.346V113.734Z" fill="white"/>
<path d="M127.175 109.431L129.014 109.156C129.442 109.098 129.579 108.881 129.579 108.627C129.579 108.099 129.166 107.657 128.319 107.657C128.144 107.64 127.967 107.658 127.799 107.71C127.631 107.763 127.475 107.848 127.34 107.961C127.205 108.074 127.094 108.213 127.013 108.37C126.933 108.527 126.884 108.698 126.871 108.873L125.075 108.49C125.198 107.316 126.277 106.027 128.283 106.027C130.658 106.027 131.535 107.367 131.535 108.873V112.552C131.538 112.95 131.569 113.347 131.629 113.74H129.775C129.722 113.444 129.695 113.143 129.695 112.842C129.458 113.197 129.134 113.485 128.753 113.679C128.373 113.873 127.949 113.966 127.523 113.95C127.204 113.979 126.884 113.943 126.58 113.844C126.276 113.745 125.995 113.585 125.755 113.375C125.514 113.164 125.319 112.907 125.181 112.619C125.043 112.33 124.965 112.017 124.952 111.698C124.944 110.358 125.929 109.612 127.175 109.431ZM129.579 110.706V110.373L127.892 110.633C127.645 110.637 127.409 110.738 127.236 110.914C127.062 111.09 126.965 111.327 126.965 111.575C126.965 111.698 126.991 111.819 127.042 111.931C127.092 112.043 127.165 112.143 127.257 112.225C127.348 112.307 127.456 112.369 127.573 112.407C127.69 112.444 127.813 112.457 127.935 112.444C128.165 112.465 128.396 112.434 128.612 112.352C128.827 112.271 129.022 112.142 129.18 111.974C129.338 111.807 129.456 111.606 129.526 111.386C129.595 111.166 129.613 110.934 129.579 110.706Z" fill="white"/>
<path d="M137.538 105.435V106.253H139.225V107.984H137.538V113.734H135.496V107.984H134.25V106.253H135.496V105.399C135.466 105.031 135.516 104.661 135.641 104.314C135.767 103.967 135.965 103.651 136.224 103.388C136.482 103.124 136.793 102.919 137.138 102.786C137.482 102.653 137.851 102.596 138.219 102.618C138.558 102.611 138.896 102.662 139.218 102.77V104.472C139.01 104.418 138.796 104.393 138.581 104.399C138.441 104.385 138.3 104.401 138.167 104.448C138.034 104.495 137.914 104.571 137.814 104.67C137.714 104.769 137.637 104.889 137.59 105.021C137.542 105.154 137.524 105.295 137.538 105.435Z" fill="white"/>
<path d="M150.689 109.586H149.596V113.736H147.481V102.96H151.696C152.145 102.931 152.594 102.997 153.016 103.152C153.438 103.307 153.823 103.548 154.147 103.86C154.47 104.172 154.726 104.548 154.896 104.964C155.066 105.38 155.148 105.827 155.136 106.276C155.161 106.979 154.942 107.67 154.518 108.23C154.093 108.791 153.488 109.188 152.804 109.354L155.114 113.765H152.804L150.689 109.586ZM151.298 107.775C151.507 107.796 151.718 107.773 151.918 107.707C152.117 107.641 152.301 107.534 152.457 107.392C152.613 107.251 152.737 107.079 152.822 106.887C152.908 106.695 152.952 106.487 152.952 106.276C152.952 106.066 152.908 105.858 152.822 105.666C152.737 105.474 152.613 105.301 152.457 105.16C152.301 105.019 152.117 104.912 151.918 104.846C151.718 104.78 151.507 104.757 151.298 104.777H149.596V107.775H151.298Z" fill="white"/>
<path d="M165.427 110.001C165.418 110.775 165.181 111.53 164.744 112.17C164.308 112.809 163.692 113.306 162.974 113.596C162.256 113.887 161.468 113.958 160.709 113.802C159.951 113.645 159.256 113.268 158.711 112.718C158.166 112.167 157.797 111.468 157.649 110.707C157.501 109.947 157.581 109.16 157.88 108.445C158.178 107.731 158.681 107.12 159.325 106.691C159.97 106.261 160.727 106.032 161.502 106.032C162.024 106.02 162.543 106.115 163.028 106.311C163.513 106.506 163.952 106.799 164.32 107.17C164.687 107.542 164.975 107.985 165.165 108.471C165.356 108.958 165.445 109.479 165.427 110.001ZM163.406 110.001C163.364 109.634 163.217 109.288 162.983 109.003C162.748 108.718 162.436 108.507 162.084 108.396C161.733 108.284 161.356 108.277 161.001 108.374C160.645 108.472 160.325 108.671 160.079 108.946C159.834 109.222 159.673 109.562 159.617 109.927C159.561 110.291 159.611 110.665 159.763 111.001C159.914 111.338 160.159 111.623 160.469 111.824C160.779 112.024 161.14 112.13 161.509 112.13C161.778 112.129 162.043 112.071 162.288 111.96C162.533 111.849 162.752 111.688 162.931 111.488C163.11 111.287 163.245 111.051 163.327 110.795C163.409 110.539 163.436 110.268 163.406 110.001Z" fill="white"/>
<path d="M168.635 116.692L170.402 112.803L167.223 106.285H169.46L171.452 110.63L173.291 106.285H175.464L170.764 116.714L168.635 116.692Z" fill="white"/>
<path d="M179.78 109.431L181.62 109.156C182.047 109.098 182.185 108.881 182.185 108.627C182.185 108.099 181.772 107.657 180.924 107.657C180.749 107.64 180.572 107.658 180.404 107.71C180.236 107.763 180.08 107.848 179.945 107.961C179.81 108.074 179.699 108.213 179.619 108.37C179.538 108.527 179.49 108.698 179.476 108.873L177.68 108.49C177.803 107.316 178.882 106.027 180.888 106.027C183.264 106.027 184.14 107.367 184.14 108.873V112.552C184.143 112.95 184.174 113.347 184.234 113.74H182.38C182.327 113.444 182.3 113.143 182.3 112.842C182.063 113.197 181.739 113.485 181.358 113.679C180.978 113.873 180.554 113.966 180.128 113.95C179.81 113.979 179.489 113.943 179.185 113.844C178.881 113.745 178.6 113.585 178.36 113.375C178.12 113.164 177.925 112.907 177.786 112.619C177.648 112.33 177.57 112.017 177.557 111.698C177.55 110.358 178.535 109.612 179.78 109.431ZM182.185 110.706V110.373L180.497 110.633C180.25 110.637 180.014 110.738 179.841 110.914C179.667 111.09 179.57 111.327 179.57 111.575C179.57 111.698 179.597 111.819 179.647 111.931C179.697 112.043 179.77 112.143 179.862 112.225C179.953 112.307 180.061 112.369 180.178 112.407C180.295 112.444 180.418 112.457 180.541 112.444C180.77 112.465 181.001 112.434 181.217 112.352C181.432 112.271 181.627 112.142 181.785 111.974C181.943 111.807 182.062 111.606 182.131 111.386C182.2 111.166 182.218 110.934 182.185 110.706Z" fill="white"/>
<path d="M187.725 113.734V102.727H189.738V113.734H187.725Z" fill="white"/>
<path d="M189.414 61.7219V49.2781H193.793C194.384 49.2781 194.935 49.3765 195.444 49.5735C195.966 49.7589 196.418 50.0254 196.8 50.373C197.182 50.7206 197.484 51.1377 197.704 51.6243C197.924 52.0994 198.034 52.6265 198.034 53.2059C198.034 53.7968 197.924 54.3356 197.704 54.8222C197.484 55.2973 197.182 55.7086 196.8 56.0562C196.418 56.4037 195.966 56.676 195.444 56.873C194.935 57.0583 194.384 57.1511 193.793 57.1511H191.76V61.7219H189.414ZM193.828 54.9265C194.442 54.9265 194.906 54.7527 195.218 54.4051C195.531 54.0575 195.688 53.6578 195.688 53.2059C195.688 52.9858 195.648 52.7714 195.566 52.5628C195.496 52.3543 195.381 52.1747 195.218 52.0241C195.068 51.8618 194.877 51.7344 194.645 51.6417C194.414 51.549 194.141 51.5027 193.828 51.5027H191.76V54.9265H193.828ZM199.699 49.2781H204.235C204.861 49.2781 205.429 49.3765 205.938 49.5735C206.448 49.7705 206.883 50.0428 207.242 50.3904C207.613 50.738 207.897 51.1551 208.093 51.6417C208.291 52.1168 208.389 52.6382 208.389 53.2059C208.389 53.623 208.319 54.0169 208.18 54.3877C208.041 54.7469 207.85 55.0771 207.607 55.3783C207.363 55.668 207.08 55.9287 206.755 56.1604C206.431 56.3805 206.089 56.5543 205.73 56.6818L205.712 56.8035L209.049 61.5829V61.7219H206.355L203.14 57.0468H202.045V61.7219H199.699V49.2781ZM204.218 54.8917C204.751 54.8917 205.186 54.7295 205.521 54.4051C205.869 54.0807 206.042 53.6693 206.042 53.1711C206.042 52.951 206.002 52.7366 205.921 52.5281C205.851 52.3195 205.742 52.1342 205.591 51.9719C205.44 51.8097 205.249 51.6823 205.017 51.5896C204.797 51.4853 204.543 51.4332 204.252 51.4332H202.045V54.8917H204.218ZM216.369 62C215.441 62 214.578 61.832 213.779 61.496C212.991 61.16 212.307 60.7023 211.728 60.123C211.149 59.5321 210.691 58.8427 210.355 58.0548C210.03 57.2553 209.869 56.4037 209.869 55.5C209.869 54.5963 210.03 53.7505 210.355 52.9626C210.691 52.1631 211.149 51.4737 211.728 50.8944C212.307 50.3035 212.991 49.84 213.779 49.504C214.578 49.168 215.441 49 216.369 49C217.295 49 218.153 49.168 218.941 49.504C219.74 49.84 220.429 50.3035 221.009 50.8944C221.588 51.4737 222.04 52.1631 222.365 52.9626C222.7 53.7505 222.869 54.5963 222.869 55.5C222.869 56.4037 222.7 57.2553 222.365 58.0548C222.04 58.8427 221.588 59.5321 221.009 60.123C220.429 60.7023 219.74 61.16 218.941 61.496C218.153 61.832 217.295 62 216.369 62ZM216.369 59.7754C216.947 59.7754 217.486 59.6711 217.985 59.4626C218.494 59.254 218.935 58.9644 219.306 58.5936C219.688 58.2228 219.984 57.7767 220.192 57.2553C220.412 56.7224 220.522 56.1372 220.522 55.5C220.522 54.8628 220.412 54.2834 220.192 53.762C219.984 53.2291 219.688 52.7772 219.306 52.4064C218.935 52.0356 218.494 51.746 217.985 51.5374C217.486 51.3289 216.947 51.2246 216.369 51.2246C215.789 51.2246 215.244 51.3289 214.735 51.5374C214.236 51.746 213.796 52.0356 213.414 52.4064C213.043 52.7772 212.748 53.2291 212.528 53.762C212.319 54.2834 212.215 54.8628 212.215 55.5C212.215 56.1372 212.319 56.7224 212.528 57.2553C212.748 57.7767 213.043 58.2228 213.414 58.5936C213.796 58.9644 214.236 59.254 214.735 59.4626C215.244 59.6711 215.789 59.7754 216.369 59.7754ZM223.198 49.2781H225.735L228.308 56.7687L228.759 58.3676H228.898L229.385 56.7687L232.062 49.2781H234.599L230.063 61.7219H227.595L223.198 49.2781ZM236.054 49.2781H238.4V61.7219H236.054V49.2781ZM240.908 49.2781H245.114C246.098 49.2781 246.985 49.4287 247.773 49.7299C248.561 50.0312 249.233 50.4599 249.789 51.016C250.345 51.5606 250.768 52.2152 251.058 52.9799C251.359 53.7447 251.509 54.5847 251.509 55.5C251.509 56.4269 251.359 57.2727 251.058 58.0374C250.768 58.8021 250.345 59.4567 249.789 60.0013C249.233 60.5459 248.561 60.9688 247.773 61.2701C246.985 61.5713 246.098 61.7219 245.114 61.7219H240.908V49.2781ZM245.009 59.4973C245.693 59.4973 246.296 59.4046 246.817 59.2193C247.338 59.0223 247.773 58.75 248.12 58.4024C248.468 58.0548 248.729 57.6377 248.902 57.1511C249.076 56.6529 249.163 56.1025 249.163 55.5C249.163 54.8975 249.076 54.3529 248.902 53.8663C248.729 53.3681 248.468 52.9452 248.12 52.5976C247.773 52.25 247.338 51.9835 246.817 51.7981C246.296 51.6011 245.693 51.5027 245.009 51.5027H243.254V59.4973H245.009ZM255.746 51.5027V54.3877H260.734V56.6123H255.746V59.4973H261.29V61.7219H253.399V49.2781H261.29V51.5027H255.746ZM263.448 49.2781H267.984C268.609 49.2781 269.177 49.3765 269.687 49.5735C270.196 49.7705 270.631 50.0428 270.99 50.3904C271.36 50.738 271.645 51.1551 271.842 51.6417C272.038 52.1168 272.137 52.6382 272.137 53.2059C272.137 53.623 272.068 54.0169 271.929 54.3877C271.79 54.7469 271.599 55.0771 271.355 55.3783C271.112 55.668 270.828 55.9287 270.504 56.1604C270.179 56.3805 269.837 56.5543 269.478 56.6818L269.461 56.8035L272.798 61.5829V61.7219H270.104L266.889 57.0468H265.794V61.7219H263.448V49.2781ZM267.966 54.8917C268.499 54.8917 268.933 54.7295 269.27 54.4051C269.617 54.0807 269.791 53.6693 269.791 53.1711C269.791 52.951 269.75 52.7366 269.669 52.5281C269.6 52.3195 269.49 52.1342 269.339 51.9719C269.188 51.8097 268.997 51.6823 268.766 51.5896C268.545 51.4853 268.29 51.4332 268.001 51.4332H265.794V54.8917H267.966Z" fill="white"/>
<path d="M183 54H129V57H183V54Z" fill="white"/>
</svg>
