<svg width="318" height="160" viewBox="0 0 318 160" fill="none" xmlns="http://www.w3.org/2000/svg">
<rect width="318" height="160" rx="10" fill="#2C93FA"/>
<g clip-path="url(#clip0_2422_3035)">
<mask id="mask0_2422_3035" style="mask-type:luminance" maskUnits="userSpaceOnUse" x="18" y="16" width="287" height="129">
<path d="M305 16H18V145H305V16Z" fill="white"/>
</mask>
<g mask="url(#mask0_2422_3035)">
<path d="M52.232 145.001C42.7713 145.001 34.2494 141.162 28.0385 134.933C21.8276 128.776 18 120.157 18 110.668C18 101.18 21.8276 92.6329 28.0385 86.4038C34.2494 80.1748 42.7713 76.3359 52.232 76.3359H86.464V98.5723V103.28V105.381V107.337V110.741C86.464 129.646 71.1535 145.001 52.232 145.001Z" fill="white"/>
<path d="M94.6952 110.091C94.623 110.019 94.5508 109.874 94.5508 109.729V81.8429C94.5508 81.698 94.623 81.5532 94.6952 81.4807C94.7674 81.4083 94.9119 81.3359 95.0563 81.3359H99.895C100.039 81.3359 100.112 81.4083 100.256 81.4807C100.328 81.5532 100.401 81.698 100.401 81.8429V105.021C100.401 105.166 100.473 105.238 100.617 105.238H111.595C111.739 105.238 111.883 105.311 111.956 105.383C112.028 105.456 112.1 105.6 112.1 105.745V109.729C112.1 109.874 112.028 110.019 111.956 110.091C111.883 110.164 111.739 110.236 111.595 110.236H95.0563C94.9119 110.236 94.7674 110.164 94.6952 110.091Z" fill="white"/>
<path d="M127.123 89.5879C128.422 90.1674 129.434 91.0365 130.156 92.0506C130.878 93.1371 131.239 94.2959 131.239 95.6721V109.724C131.239 109.869 131.167 110.014 131.095 110.086C131.022 110.158 130.878 110.231 130.734 110.231H125.895C125.75 110.231 125.606 110.158 125.534 110.086C125.461 110.014 125.389 109.869 125.389 109.724V108.565C125.389 108.493 125.389 108.42 125.317 108.42C125.245 108.42 125.173 108.42 125.173 108.493C124.162 109.869 122.5 110.521 120.334 110.521C118.456 110.521 116.939 110.014 115.639 109.072C114.412 108.13 113.762 106.537 113.762 104.219C113.762 99.7283 116.578 97.4829 122.139 97.4829H125.173C125.317 97.4829 125.389 97.4105 125.389 97.2656V96.3965C125.389 95.5997 125.173 94.9478 124.667 94.4408C124.162 93.9338 123.512 93.7165 122.717 93.7165C122.067 93.7165 121.489 93.8614 121.056 94.1511C120.623 94.4408 120.334 94.8754 120.262 95.3824C120.189 95.6721 119.973 95.817 119.684 95.817L114.701 95.5273C114.556 95.5273 114.412 95.4548 114.34 95.3824C114.267 95.31 114.195 95.1651 114.267 95.0203C114.412 93.137 115.278 91.616 116.867 90.4571C118.384 89.2982 120.334 88.7188 122.717 88.7188C124.378 88.7188 125.823 89.0085 127.123 89.5879ZM124.45 105.378C125.1 104.871 125.461 104.147 125.461 103.35V101.612C125.461 101.467 125.389 101.394 125.245 101.394H122.934C121.923 101.394 121.128 101.612 120.551 102.046C119.973 102.481 119.684 103.133 119.684 103.929C119.684 104.654 119.901 105.161 120.334 105.595C120.767 105.957 121.345 106.175 122.067 106.175C123.006 106.102 123.8 105.885 124.45 105.378Z" fill="white"/>
<path d="M145.614 108.788C144.097 107.629 143.23 106.035 142.869 104.007C142.653 102.849 142.508 101.4 142.508 99.5891C142.508 98.213 142.653 96.7643 142.869 95.2433C143.23 93.2876 144.169 91.6941 145.686 90.5352C147.202 89.3763 149.08 88.7969 151.319 88.7969C153.558 88.7969 155.435 89.3763 156.952 90.4628C158.469 91.6217 159.407 93.0703 159.769 94.8811C159.841 95.0984 159.913 95.533 159.913 96.04C159.913 96.3297 159.769 96.547 159.407 96.547L154.713 96.9816H154.641C154.424 96.9816 154.208 96.8368 154.208 96.547C154.208 96.3297 154.208 96.1849 154.135 96.1124C154.063 95.8952 153.991 95.6779 153.991 95.533C153.847 94.9536 153.485 94.519 153.052 94.1568C152.619 93.7947 152.041 93.6498 151.319 93.6498C150.597 93.6498 149.947 93.8671 149.513 94.3017C149.08 94.7363 148.719 95.3157 148.575 96.1124C148.43 97.0541 148.358 98.1405 148.358 99.5167C148.358 101.038 148.43 102.197 148.647 103.066C148.791 103.79 149.08 104.37 149.513 104.804C149.947 105.239 150.524 105.456 151.319 105.456C152.113 105.456 152.763 105.239 153.197 104.804C153.702 104.37 153.991 103.79 154.063 103.138L154.135 102.631C154.135 102.486 154.208 102.341 154.352 102.269C154.424 102.197 154.569 102.124 154.713 102.197L159.48 102.631C159.769 102.704 159.913 102.849 159.913 103.138C159.913 103.283 159.913 103.573 159.841 103.935C159.552 105.963 158.685 107.484 157.169 108.643C155.652 109.802 153.702 110.381 151.391 110.381C149.008 110.526 147.058 109.947 145.614 108.788Z" fill="white"/>
<path d="M165.399 108.714C163.882 107.555 162.943 105.889 162.655 103.789C162.438 102.557 162.293 101.109 162.293 99.5152C162.293 97.9217 162.438 96.4731 162.655 95.2418C162.943 93.2137 163.882 91.6202 165.399 90.3889C166.915 89.23 168.865 88.5781 171.249 88.5781C173.632 88.5781 175.51 89.1575 177.026 90.3889C178.543 91.5478 179.409 93.2137 179.771 95.2418C179.987 96.4731 180.132 97.9217 180.132 99.5152C180.132 101.036 179.987 102.485 179.771 103.716C179.482 105.817 178.543 107.483 177.098 108.714C175.582 109.873 173.704 110.525 171.321 110.525C168.865 110.525 166.915 109.945 165.399 108.714ZM173.054 104.875C173.56 104.441 173.921 103.789 174.065 102.992C174.21 101.833 174.282 100.747 174.282 99.5876C174.282 98.4287 174.21 97.3423 174.065 96.2558C173.921 95.4591 173.632 94.8072 173.126 94.3726C172.621 93.938 171.971 93.7207 171.249 93.7207C170.526 93.7207 169.876 93.938 169.371 94.3726C168.865 94.8072 168.577 95.4591 168.432 96.2558C168.288 97.0525 168.215 98.2114 168.215 99.5876C168.215 100.964 168.288 102.123 168.36 102.992C168.504 103.789 168.865 104.441 169.371 104.875C169.876 105.31 170.526 105.599 171.249 105.599C171.971 105.527 172.549 105.31 173.054 104.875Z" fill="white"/>
<path d="M198.547 90.6053C199.703 91.909 200.281 93.6474 200.281 95.9652V109.727C200.281 109.872 200.208 110.017 200.136 110.089C200.064 110.162 199.92 110.234 199.775 110.234H194.936C194.792 110.234 194.648 110.162 194.575 110.089C194.503 110.017 194.431 109.872 194.431 109.727V96.7619C194.431 95.8203 194.214 95.0236 193.709 94.5166C193.275 93.9371 192.625 93.7198 191.831 93.7198C191.037 93.7198 190.387 94.0095 189.881 94.589C189.375 95.1684 189.159 95.8927 189.159 96.9068V109.8C189.159 109.944 189.087 110.089 189.014 110.162C188.942 110.234 188.798 110.307 188.653 110.307H183.815C183.67 110.307 183.526 110.234 183.454 110.162C183.381 110.089 183.309 109.944 183.309 109.8V89.5912C183.309 89.4464 183.381 89.3015 183.454 89.2291C183.526 89.1566 183.67 89.0842 183.815 89.0842H188.653C188.798 89.0842 188.942 89.1566 189.014 89.2291C189.087 89.3015 189.159 89.4464 189.159 89.5912V90.7501C189.159 90.8226 189.159 90.895 189.231 90.895C189.303 90.895 189.375 90.895 189.448 90.7501C190.459 89.4464 191.903 88.7945 193.781 88.7945C195.803 88.7221 197.392 89.3739 198.547 90.6053Z" fill="white"/>
<path d="M206.421 108.788C204.905 107.629 204.038 106.035 203.677 104.007C203.46 102.849 203.316 101.4 203.316 99.5891C203.316 98.213 203.46 96.7643 203.677 95.2433C204.038 93.2876 204.977 91.6941 206.494 90.5352C208.01 89.3763 209.888 88.7969 212.127 88.7969C214.366 88.7969 216.243 89.3763 217.76 90.4628C219.276 91.6217 220.215 93.0703 220.576 94.8811C220.649 95.0984 220.721 95.533 220.721 96.04C220.721 96.3297 220.576 96.547 220.215 96.547L215.521 96.9816H215.449C215.232 96.9816 215.088 96.8368 215.015 96.547C215.015 96.3297 215.015 96.1849 214.943 96.1124C214.871 95.8952 214.799 95.6779 214.799 95.533C214.654 94.9536 214.293 94.519 213.86 94.1568C213.427 93.7947 212.849 93.6498 212.127 93.6498C211.405 93.6498 210.755 93.8671 210.321 94.3017C209.888 94.7363 209.527 95.3157 209.455 96.1124C209.31 97.0541 209.238 98.1405 209.238 99.5167C209.238 101.038 209.31 102.197 209.527 103.066C209.671 103.79 209.96 104.37 210.393 104.804C210.827 105.239 211.405 105.456 212.199 105.456C212.993 105.456 213.643 105.239 214.077 104.804C214.582 104.37 214.871 103.79 214.943 103.138L215.015 102.631C215.015 102.486 215.088 102.341 215.232 102.269C215.304 102.197 215.449 102.124 215.593 102.197L220.36 102.631C220.649 102.704 220.793 102.849 220.793 103.138C220.793 103.283 220.793 103.573 220.721 103.935C220.432 105.963 219.565 107.484 218.049 108.643C216.532 109.802 214.582 110.381 212.271 110.381C209.816 110.526 207.938 109.947 206.421 108.788Z" fill="white"/>
<path d="M224.404 85.7491C223.826 85.0972 223.465 84.3729 223.465 83.4313C223.465 82.4897 223.754 81.6929 224.332 81.1135C224.91 80.534 225.704 80.1719 226.643 80.1719C227.582 80.1719 228.376 80.4616 228.954 81.1135C229.532 81.6929 229.893 82.4897 229.893 83.4313C229.893 84.3729 229.604 85.1696 228.954 85.7491C228.304 86.401 227.582 86.6907 226.643 86.6907C225.776 86.6183 225.054 86.3285 224.404 85.7491ZM223.971 110.086C223.898 110.013 223.826 109.869 223.826 109.724V89.5155C223.826 89.3706 223.898 89.2258 223.971 89.1533C224.043 89.0809 224.187 89.0085 224.332 89.0085H229.17C229.315 89.0085 229.459 89.0809 229.532 89.1533C229.604 89.2258 229.676 89.3706 229.676 89.5155V109.724C229.676 109.869 229.604 110.013 229.532 110.086C229.459 110.158 229.315 110.231 229.17 110.231H224.332C224.187 110.231 224.115 110.158 223.971 110.086Z" fill="white"/>
<path d="M250.545 99.4386L250.473 101.032C250.473 101.394 250.329 101.539 249.968 101.539H239.063C238.918 101.539 238.846 101.612 238.846 101.756C238.918 102.408 238.99 102.843 238.99 103.133C239.135 103.929 239.496 104.509 240.001 104.943C240.507 105.378 241.229 105.595 242.024 105.595C243.396 105.595 244.262 104.943 244.84 103.712C244.985 103.422 245.201 103.35 245.49 103.35L249.823 104.219C250.184 104.292 250.257 104.509 250.184 104.871C249.607 106.682 248.596 108.058 247.223 109.072C245.851 110.014 244.118 110.521 242.096 110.521C239.64 110.521 237.69 109.941 236.318 108.855C234.874 107.768 233.935 106.175 233.502 104.074C233.285 102.915 233.141 101.249 233.141 98.9315C233.141 97.6278 233.213 96.4689 233.357 95.5997C233.646 93.4992 234.585 91.8333 236.102 90.602C237.618 89.3706 239.496 88.7188 241.807 88.7188C244.262 88.7188 246.357 89.4431 247.873 90.8193C249.462 92.2679 250.329 94.0787 250.473 96.3965C250.473 97.3381 250.545 98.2797 250.545 99.4386ZM239.929 94.3684C239.424 94.803 239.135 95.3824 238.99 96.1792C238.918 96.6862 238.846 97.1932 238.846 97.7726C238.846 97.9175 238.918 97.9899 239.063 97.9899H244.407C244.551 97.9899 244.623 97.9175 244.623 97.7726C244.623 97.1932 244.551 96.6862 244.479 96.1792C244.335 95.4548 244.046 94.8754 243.54 94.3684C243.035 93.9338 242.457 93.7165 241.663 93.7165C240.868 93.7165 240.435 93.9338 239.929 94.3684Z" fill="white"/>
<path d="M265.713 89.2299C265.929 89.3747 266.001 89.592 265.929 89.8818L265.135 94.5898C265.135 94.9519 264.918 95.0244 264.557 94.8795C264.124 94.7347 263.69 94.7347 263.401 94.7347C263.04 94.7347 262.752 94.8071 262.318 94.8795C261.524 95.0244 260.874 95.3865 260.296 96.0384C259.718 96.6903 259.502 97.487 259.502 98.4287V109.728C259.502 109.873 259.429 110.018 259.357 110.09C259.285 110.162 259.141 110.235 258.996 110.235H254.157C254.013 110.235 253.869 110.162 253.796 110.09C253.724 110.018 253.652 109.873 253.652 109.728V89.5196C253.652 89.3747 253.724 89.2299 253.796 89.1575C253.869 89.085 254.013 89.0126 254.157 89.0126H258.996C259.141 89.0126 259.285 89.085 259.357 89.1575C259.429 89.2299 259.502 89.3747 259.502 89.5196V91.1855C259.502 91.3304 259.502 91.3304 259.574 91.4028C259.646 91.4028 259.646 91.4028 259.718 91.3304C260.657 89.6645 262.029 88.7953 263.763 88.7953C264.413 88.7229 265.063 88.9402 265.713 89.2299Z" fill="white"/>
<path d="M278.639 89.2982C278.639 89.2982 278.711 89.2258 278.783 89.1533C278.856 89.0809 279 89.0085 279.144 89.0085H283.983C284.128 89.0085 284.272 89.0809 284.344 89.1533C284.416 89.2258 284.489 89.3706 284.489 89.5155V108.782C284.489 112.042 283.55 114.504 281.744 116.098C279.939 117.691 277.339 118.488 273.945 118.488C273.222 118.488 272.428 118.416 271.634 118.343C271.272 118.343 271.128 118.126 271.128 117.836L271.272 113.708C271.272 113.418 271.417 113.273 271.778 113.273C272.211 113.345 272.789 113.345 273.511 113.345C275.317 113.345 276.689 112.983 277.483 112.187C278.278 111.39 278.711 110.158 278.711 108.493C278.711 108.42 278.711 108.348 278.639 108.348C278.567 108.348 278.494 108.348 278.494 108.42C277.483 109.579 276.111 110.158 274.306 110.158C272.5 110.158 271.056 109.651 269.756 108.565C268.528 107.551 267.734 105.957 267.445 103.929C267.228 103.205 267.156 101.756 267.156 99.5835C267.156 97.4106 267.3 95.817 267.517 94.9478C267.806 92.9922 268.528 91.4712 269.684 90.3848C270.839 89.2983 272.356 88.7188 274.161 88.7188C275.967 88.7188 277.411 89.3706 278.494 90.602C278.567 90.6744 278.639 90.7468 278.639 90.6744C278.639 90.602 278.711 90.602 278.711 90.5295V89.5879C278.639 89.3706 278.639 89.2982 278.639 89.2982ZM278.639 99.511C278.639 98.1348 278.567 96.976 278.494 96.1068C278.35 95.3825 278.061 94.803 277.556 94.3684C277.122 93.9338 276.472 93.7165 275.822 93.7165C275.172 93.7165 274.522 93.9338 274.089 94.3684C273.584 94.803 273.295 95.3825 273.15 96.1068C273.006 97.1209 272.934 98.2072 272.934 99.511C272.934 100.742 273.006 101.829 273.15 102.843C273.295 103.567 273.584 104.147 274.089 104.581C274.595 105.016 275.172 105.233 275.895 105.233C276.617 105.233 277.194 105.016 277.628 104.581C278.061 104.147 278.35 103.567 278.494 102.843C278.567 102.046 278.639 100.887 278.639 99.511Z" fill="white"/>
<path d="M304.999 99.4386L304.927 101.032C304.927 101.394 304.782 101.539 304.421 101.539H293.516C293.372 101.539 293.299 101.612 293.299 101.756C293.372 102.408 293.444 102.843 293.444 103.133C293.588 103.929 293.949 104.509 294.455 104.943C294.96 105.378 295.683 105.595 296.477 105.595C297.849 105.595 298.716 104.943 299.294 103.712C299.438 103.422 299.655 103.35 299.943 103.35L304.277 104.219C304.638 104.292 304.71 104.509 304.638 104.871C304.06 106.682 303.049 108.058 301.677 109.072C300.305 110.014 298.571 110.521 296.549 110.521C294.094 110.521 292.144 109.941 290.772 108.855C289.327 107.768 288.388 106.175 287.955 104.074C287.738 102.915 287.594 101.249 287.594 98.9315C287.594 97.6278 287.666 96.4689 287.811 95.5997C288.1 93.4992 289.038 91.8333 290.555 90.602C292.072 89.3706 293.949 88.7188 296.26 88.7188C298.716 88.7188 300.81 89.4431 302.327 90.8193C303.916 92.2679 304.782 94.0787 304.927 96.3965C304.999 97.3381 304.999 98.2797 304.999 99.4386ZM294.455 94.3684C293.949 94.803 293.66 95.3824 293.516 96.1792C293.444 96.6862 293.372 97.1932 293.372 97.7726C293.372 97.9175 293.444 97.9899 293.588 97.9899H298.932C299.077 97.9899 299.149 97.9175 299.149 97.7726C299.149 97.1932 299.077 96.6862 299.005 96.1792C298.86 95.4548 298.571 94.8754 298.066 94.3684C297.56 93.9338 296.983 93.7165 296.188 93.7165C295.538 93.7165 294.96 93.9338 294.455 94.3684Z" fill="white"/>
<path d="M58.3726 16C50.5729 16 43.4954 19.187 38.44 24.2572C33.3124 29.3998 30.207 36.4256 30.207 44.2482C30.207 52.0707 33.3846 59.0966 38.44 64.2392C43.4954 69.3094 50.5729 72.4963 58.3726 72.4963H86.5381V54.2437V50.4048V48.6665V47.073V44.2482C86.4659 28.603 73.8997 16 58.3726 16Z" fill="white"/>
<path d="M127.411 35.3348C123.511 31.4235 118.023 28.9609 112.029 28.9609C106.035 28.9609 100.618 31.4235 96.7186 35.3348C92.8187 39.2461 90.3633 44.6785 90.3633 50.6902V72.492H93.6131H96.2853H99.6796H102.279H112.101C124.089 72.492 133.839 62.7138 133.839 50.6902C133.767 44.6785 131.311 39.2461 127.411 35.3348Z" fill="white"/>
<path d="M95.7812 129.79V118.781H97.2258V123.489C97.5869 122.837 98.4535 122.258 99.609 122.258C101.848 122.258 102.931 123.996 102.931 126.096C102.931 128.269 101.703 130.008 99.5368 130.008C98.4535 130.008 97.659 129.501 97.1535 128.776V129.863H95.7812V129.79ZM99.3201 123.489C98.0924 123.489 97.1535 124.503 97.1535 126.024C97.1535 127.545 98.0924 128.632 99.3201 128.632C100.62 128.632 101.487 127.618 101.487 126.024C101.487 124.431 100.62 123.489 99.3201 123.489Z" fill="white"/>
<path d="M106.179 132.835L107.984 128.996L104.879 122.477H106.54L108.779 127.547L110.945 122.477H112.462L107.695 132.835H106.179Z" fill="white"/>
<path d="M124.165 125.296L122.865 126.744V129.714H120.77V118.922H122.865V123.775L127.198 118.922H129.942L125.681 123.63L129.942 129.714H127.342L124.165 125.296Z" fill="white"/>
<path d="M134.706 129.79H132.684V118.781H134.706V122.909C135.212 122.33 136.006 122.113 136.729 122.113C138.606 122.113 139.473 123.417 139.473 125.082V129.79H137.451V125.445C137.451 124.575 137.017 123.924 136.079 123.924C135.212 123.924 134.706 124.575 134.706 125.372V129.79Z" fill="white"/>
<path d="M144.817 125.441L146.623 125.151C147.056 125.078 147.2 124.861 147.2 124.644C147.2 124.137 146.767 123.702 145.973 123.702C145.106 123.702 144.601 124.282 144.528 124.934L142.723 124.571C142.867 123.412 143.951 122.109 145.9 122.109C148.284 122.109 149.15 123.412 149.15 124.934V128.628C149.15 128.99 149.223 129.569 149.223 129.786H147.345C147.273 129.569 147.273 129.207 147.273 128.917C146.912 129.497 146.189 130.004 145.106 130.004C143.517 130.004 142.578 128.917 142.578 127.758C142.578 126.382 143.589 125.658 144.817 125.441ZM147.2 126.744V126.382L145.539 126.672C145.034 126.744 144.601 127.034 144.601 127.614C144.601 128.048 144.889 128.483 145.539 128.483C146.406 128.483 147.2 128.048 147.2 126.744Z" fill="white"/>
<path d="M155.145 121.458V122.255H156.806V123.993H155.145V129.715H153.123V123.993H151.895V122.255H153.123V121.385C153.123 119.72 154.206 118.633 155.867 118.633C156.3 118.633 156.733 118.705 156.878 118.778V120.516C156.806 120.516 156.589 120.444 156.228 120.444C155.722 120.444 155.145 120.589 155.145 121.458Z" fill="white"/>
<path d="M168.287 125.585H167.203V129.714H165.109V118.922H169.298C171.392 118.922 172.692 120.37 172.692 122.254C172.692 123.775 171.825 124.934 170.381 125.296L172.692 129.714H170.381L168.287 125.585ZM168.864 123.775C169.948 123.775 170.525 123.195 170.525 122.254C170.525 121.312 169.875 120.733 168.864 120.733H167.131V123.702H168.864V123.775Z" fill="white"/>
<path d="M182.948 126.023C182.948 128.341 181.287 130.007 179.048 130.007C176.809 130.007 175.148 128.341 175.148 126.023C175.148 123.705 176.809 122.039 179.048 122.039C181.287 122.039 182.948 123.705 182.948 126.023ZM180.926 126.023C180.926 124.574 179.987 123.923 179.048 123.923C178.109 123.923 177.171 124.647 177.171 126.023C177.171 127.399 178.109 128.124 179.048 128.124C179.987 128.124 180.926 127.399 180.926 126.023Z" fill="white"/>
<path d="M186.198 132.688L187.931 128.776L184.754 122.258H186.992L189.015 126.603L190.82 122.258H192.987L188.292 132.688H186.198Z" fill="white"/>
<path d="M197.321 125.441L199.126 125.151C199.56 125.078 199.704 124.861 199.704 124.644C199.704 124.137 199.271 123.702 198.476 123.702C197.61 123.702 197.104 124.282 197.032 124.934L195.226 124.571C195.371 123.412 196.454 122.109 198.404 122.109C200.787 122.109 201.654 123.412 201.654 124.934V128.628C201.654 128.99 201.726 129.569 201.726 129.786H199.849C199.776 129.569 199.776 129.207 199.776 128.917C199.415 129.497 198.693 130.004 197.61 130.004C196.021 130.004 195.082 128.917 195.082 127.758C195.082 126.382 196.021 125.658 197.321 125.441ZM199.704 126.744V126.382L198.043 126.672C197.537 126.744 197.104 127.034 197.104 127.614C197.104 128.048 197.393 128.483 198.043 128.483C198.91 128.483 199.704 128.048 199.704 126.744Z" fill="white"/>
<path d="M205.191 129.79V118.781H207.213V129.79H205.191Z" fill="white"/>
<path d="M201.726 66H139.148V71H201.726V66Z" fill="white"/>
</g>
<path d="M217.574 72.4595H212.271L211.394 74.9962H208.59L213.378 61.6641H216.487L221.274 74.9962H218.451L217.574 72.4595ZM216.849 70.3233L214.923 64.7539L212.996 70.3233H216.849ZM227.717 61.6831C229.116 61.6831 230.343 61.9565 231.398 62.5033C232.467 63.05 233.287 63.832 233.859 64.8493C234.444 65.8538 234.736 67.0236 234.736 68.3587C234.736 69.6939 234.444 70.8637 233.859 71.8682C233.287 72.86 232.467 73.6293 231.398 74.1761C230.343 74.7228 229.116 74.9962 227.717 74.9962H223.063V61.6831H227.717ZM227.622 72.7265C229.021 72.7265 230.101 72.345 230.864 71.5821C231.627 70.8192 232.009 69.7447 232.009 68.3587C232.009 66.9728 231.627 65.8919 230.864 65.1163C230.101 64.3279 229.021 63.9338 227.622 63.9338H225.734V72.7265H227.622ZM251.25 61.6831V74.9962H248.579V66.337L245.013 74.9962H242.991L239.405 66.337V74.9962H236.735V61.6831H239.768L244.002 71.5821L248.236 61.6831H251.25ZM256.56 61.6831V74.9962H253.89V61.6831H256.56ZM270.585 74.9962H267.915L261.868 65.8602V74.9962H259.198V61.6641H261.868L267.915 70.8192V61.6641H270.585V74.9962Z" fill="white"/>
</g>
<defs>
<clipPath id="clip0_2422_3035">
<rect width="287" height="129" fill="white" transform="translate(18 16)"/>
</clipPath>
</defs>
</svg>
