<svg width="287" height="129" viewBox="0 0 287 129" fill="none" xmlns="http://www.w3.org/2000/svg">
<g clip-path="url(#clip0_401_4293)">
<path d="M34.232 129C24.7713 129 16.2494 125.161 10.0385 118.932C3.82763 112.775 0 104.156 0 94.6676C0 85.1791 3.82763 76.6322 10.0385 70.4031C16.2494 64.1741 24.7713 60.3352 34.232 60.3352H68.464V82.5716V87.2796V89.3801V91.3358V94.74C68.464 113.645 53.1535 129 34.232 129Z" fill="white"/>
<path d="M76.6969 94.0882C76.6247 94.0157 76.5525 93.8709 76.5525 93.726V65.84C76.5525 65.6951 76.6247 65.5503 76.6969 65.4778C76.7691 65.4054 76.9136 65.333 77.058 65.333H81.8967C82.0412 65.333 82.1134 65.4054 82.2578 65.4778C82.33 65.5503 82.4023 65.6951 82.4023 65.84V89.018C82.4023 89.1629 82.4745 89.2353 82.6189 89.2353H93.5963C93.7407 89.2353 93.8852 89.3077 93.9574 89.3801C94.0296 89.4526 94.1018 89.5974 94.1018 89.7423V93.726C94.1018 93.8709 94.0296 94.0157 93.9574 94.0882C93.8852 94.1606 93.7407 94.233 93.5963 94.233H77.058C76.9136 94.233 76.7691 94.1606 76.6969 94.0882Z" fill="white"/>
<path d="M109.124 73.5901C110.423 74.1696 111.435 75.0387 112.157 76.0528C112.879 77.1393 113.24 78.2981 113.24 79.6743V93.726C113.24 93.8709 113.168 94.0157 113.096 94.0882C113.023 94.1606 112.879 94.233 112.735 94.233H107.896C107.751 94.233 107.607 94.1606 107.535 94.0882C107.462 94.0157 107.39 93.8709 107.39 93.726V92.5671C107.39 92.4947 107.39 92.4222 107.318 92.4222C107.246 92.4222 107.174 92.4222 107.174 92.4947C106.163 93.8709 104.501 94.5227 102.335 94.5227C100.457 94.5227 98.9406 94.0157 97.6406 93.0741C96.4129 92.1325 95.7629 90.539 95.7629 88.2212C95.7629 83.7305 98.5795 81.4851 104.14 81.4851H107.174C107.318 81.4851 107.39 81.4127 107.39 81.2678V80.3987C107.39 79.6019 107.174 78.95 106.668 78.443C106.163 77.936 105.513 77.7187 104.718 77.7187C104.068 77.7187 103.49 77.8636 103.057 78.1533C102.624 78.443 102.335 78.8776 102.263 79.3846C102.19 79.6743 101.974 79.8192 101.685 79.8192L96.7018 79.5295C96.5573 79.5295 96.4129 79.457 96.3407 79.3846C96.2685 79.3122 96.1963 79.1673 96.2685 79.0225C96.4129 77.1392 97.2795 75.6182 98.8684 74.4593C100.385 73.3004 102.335 72.7209 104.718 72.7209C106.379 72.7209 107.824 73.0107 109.124 73.5901ZM106.451 89.3801C107.101 88.8731 107.462 88.1488 107.462 87.352V85.6137C107.462 85.4688 107.39 85.3964 107.246 85.3964H104.935C103.924 85.3964 103.129 85.6137 102.552 86.0483C101.974 86.4829 101.685 87.1348 101.685 87.9315C101.685 88.6558 101.902 89.1628 102.335 89.5974C102.768 89.9596 103.346 90.1769 104.068 90.1769C105.007 90.1044 105.801 89.8871 106.451 89.3801Z" fill="white"/>
<path d="M127.612 92.7844C126.095 91.6255 125.228 90.032 124.867 88.004C124.651 86.8451 124.506 85.3964 124.506 83.5856C124.506 82.2095 124.651 80.7608 124.867 79.2398C125.228 77.2841 126.167 75.6906 127.684 74.5317C129.2 73.3728 131.078 72.7934 133.317 72.7934C135.556 72.7934 137.433 73.3728 138.95 74.4593C140.467 75.6182 141.405 77.0668 141.767 78.8776C141.839 79.0949 141.911 79.5295 141.911 80.0365C141.911 80.3262 141.767 80.5435 141.405 80.5435L136.711 80.9781H136.639C136.422 80.9781 136.206 80.8333 136.206 80.5435C136.206 80.3262 136.206 80.1814 136.133 80.1089C136.061 79.8917 135.989 79.6744 135.989 79.5295C135.845 78.9501 135.483 78.5155 135.05 78.1533C134.617 77.7912 134.039 77.6463 133.317 77.6463C132.595 77.6463 131.945 77.8636 131.511 78.2982C131.078 78.7328 130.717 79.3122 130.573 80.1089C130.428 81.0506 130.356 82.137 130.356 83.5132C130.356 85.0343 130.428 86.1932 130.645 87.0623C130.789 87.7867 131.078 88.3661 131.511 88.8007C131.945 89.2353 132.522 89.4526 133.317 89.4526C134.111 89.4526 134.761 89.2353 135.195 88.8007C135.7 88.3661 135.989 87.7867 136.061 87.1348L136.133 86.6278C136.133 86.4829 136.206 86.338 136.35 86.2656C136.422 86.1932 136.567 86.1207 136.711 86.1932L141.478 86.6278C141.767 86.7002 141.911 86.8451 141.911 87.1348C141.911 87.2796 141.911 87.5694 141.839 87.9315C141.55 89.9596 140.683 91.4806 139.167 92.6395C137.65 93.7984 135.7 94.3779 133.389 94.3779C131.006 94.5228 129.056 93.9433 127.612 92.7844Z" fill="white"/>
<path d="M147.4 92.712C145.883 91.5531 144.944 89.8871 144.656 87.7866C144.439 86.5553 144.294 85.1067 144.294 83.5132C144.294 81.9197 144.439 80.4711 144.656 79.2398C144.944 77.2117 145.883 75.6182 147.4 74.3869C148.916 73.228 150.866 72.5761 153.25 72.5761C155.633 72.5761 157.511 73.1555 159.027 74.3869C160.544 75.5458 161.41 77.2117 161.772 79.2398C161.988 80.4711 162.133 81.9197 162.133 83.5132C162.133 85.0343 161.988 86.4829 161.772 87.7142C161.483 89.8147 160.544 91.4806 159.099 92.712C157.583 93.8709 155.705 94.5227 153.322 94.5227C150.866 94.5227 148.916 93.9433 147.4 92.712ZM155.055 88.8731C155.561 88.4385 155.922 87.7866 156.066 86.9899C156.211 85.831 156.283 84.7445 156.283 83.5856C156.283 82.4267 156.211 81.3403 156.066 80.2538C155.922 79.4571 155.633 78.8052 155.127 78.3706C154.622 77.936 153.972 77.7187 153.25 77.7187C152.527 77.7187 151.877 77.936 151.372 78.3706C150.866 78.8052 150.578 79.4571 150.433 80.2538C150.289 81.0505 150.216 82.2094 150.216 83.5856C150.216 84.9618 150.289 86.1207 150.361 86.9899C150.505 87.7866 150.866 88.4385 151.372 88.8731C151.877 89.3077 152.527 89.5974 153.25 89.5974C153.972 89.525 154.55 89.3077 155.055 88.8731Z" fill="white"/>
<path d="M180.548 74.6042C181.704 75.9079 182.282 77.6463 182.282 79.9641V93.726C182.282 93.8709 182.209 94.0157 182.137 94.0882C182.065 94.1606 181.921 94.233 181.776 94.233H176.937C176.793 94.233 176.649 94.1606 176.576 94.0882C176.504 94.0157 176.432 93.8709 176.432 93.726V80.7608C176.432 79.8192 176.215 79.0225 175.71 78.5155C175.276 77.936 174.626 77.7187 173.832 77.7187C173.038 77.7187 172.388 78.0084 171.882 78.5879C171.376 79.1673 171.16 79.8916 171.16 80.9057V93.7984C171.16 93.9433 171.088 94.0882 171.015 94.1606C170.943 94.233 170.799 94.3055 170.654 94.3055H165.816C165.671 94.3055 165.527 94.233 165.455 94.1606C165.382 94.0882 165.31 93.9433 165.31 93.7984V73.5901C165.31 73.4453 165.382 73.3004 165.455 73.228C165.527 73.1555 165.671 73.0831 165.816 73.0831H170.654C170.799 73.0831 170.943 73.1555 171.015 73.228C171.088 73.3004 171.16 73.4453 171.16 73.5901V74.749C171.16 74.8215 171.16 74.8939 171.232 74.8939C171.304 74.8939 171.376 74.8939 171.449 74.749C172.46 73.4453 173.904 72.7934 175.782 72.7934C177.804 72.721 179.393 73.3728 180.548 74.6042Z" fill="white"/>
<path d="M188.42 92.7844C186.904 91.6255 186.037 90.032 185.676 88.004C185.459 86.8451 185.315 85.3964 185.315 83.5856C185.315 82.2095 185.459 80.7608 185.676 79.2398C186.037 77.2841 186.976 75.6906 188.493 74.5317C190.009 73.3728 191.887 72.7934 194.126 72.7934C196.365 72.7934 198.242 73.3728 199.759 74.4593C201.275 75.6182 202.214 77.0668 202.575 78.8776C202.648 79.0949 202.72 79.5295 202.72 80.0365C202.72 80.3262 202.575 80.5435 202.214 80.5435L197.52 80.9781H197.448C197.231 80.9781 197.087 80.8333 197.014 80.5435C197.014 80.3262 197.014 80.1814 196.942 80.1089C196.87 79.8917 196.798 79.6744 196.798 79.5295C196.653 78.9501 196.292 78.5155 195.859 78.1533C195.426 77.7912 194.848 77.6463 194.126 77.6463C193.404 77.6463 192.754 77.8636 192.32 78.2982C191.887 78.7328 191.526 79.3122 191.454 80.1089C191.309 81.0506 191.237 82.137 191.237 83.5132C191.237 85.0343 191.309 86.1932 191.526 87.0623C191.67 87.7867 191.959 88.3661 192.392 88.8007C192.826 89.2353 193.404 89.4526 194.198 89.4526C194.992 89.4526 195.642 89.2353 196.076 88.8007C196.581 88.3661 196.87 87.7867 196.942 87.1348L197.014 86.6278C197.014 86.4829 197.087 86.338 197.231 86.2656C197.303 86.1932 197.448 86.1207 197.592 86.1932L202.359 86.6278C202.648 86.7002 202.792 86.8451 202.792 87.1348C202.792 87.2796 202.792 87.5694 202.72 87.9315C202.431 89.9596 201.564 91.4806 200.048 92.6395C198.531 93.7984 196.581 94.3779 194.27 94.3779C191.815 94.5228 189.937 93.9433 188.42 92.7844Z" fill="white"/>
<path d="M206.403 69.7513C205.825 69.0994 205.464 68.3751 205.464 67.4335C205.464 66.4919 205.753 65.6951 206.331 65.1157C206.909 64.5362 207.703 64.1741 208.642 64.1741C209.581 64.1741 210.375 64.4638 210.953 65.1157C211.531 65.6951 211.892 66.4919 211.892 67.4335C211.892 68.3751 211.603 69.1718 210.953 69.7513C210.303 70.4032 209.581 70.6929 208.642 70.6929C207.775 70.6205 207.053 70.3307 206.403 69.7513ZM205.97 94.0882C205.897 94.0157 205.825 93.8709 205.825 93.726V73.5177C205.825 73.3728 205.897 73.228 205.97 73.1555C206.042 73.0831 206.186 73.0107 206.331 73.0107H211.169C211.314 73.0107 211.458 73.0831 211.531 73.1555C211.603 73.228 211.675 73.3728 211.675 73.5177V93.726C211.675 93.8709 211.603 94.0157 211.531 94.0882C211.458 94.1606 211.314 94.233 211.169 94.233H206.331C206.186 94.233 206.114 94.1606 205.97 94.0882Z" fill="white"/>
<path d="M232.546 83.4408L232.474 85.0343C232.474 85.3964 232.33 85.5413 231.969 85.5413H221.064C220.919 85.5413 220.847 85.6137 220.847 85.7586C220.919 86.4104 220.991 86.845 220.991 87.1348C221.136 87.9315 221.497 88.511 222.002 88.9455C222.508 89.3801 223.23 89.5974 224.025 89.5974C225.397 89.5974 226.263 88.9455 226.841 87.7142C226.986 87.4245 227.202 87.352 227.491 87.352L231.824 88.2212C232.185 88.2937 232.258 88.5109 232.185 88.8731C231.608 90.6839 230.597 92.0601 229.224 93.0741C227.852 94.0157 226.119 94.5227 224.097 94.5227C221.641 94.5227 219.691 93.9433 218.319 92.8568C216.875 91.7704 215.936 90.1769 215.503 88.0764C215.286 86.9175 215.142 85.2515 215.142 82.9337C215.142 81.63 215.214 80.4711 215.358 79.6019C215.647 77.5014 216.586 75.8355 218.103 74.6042C219.619 73.3728 221.497 72.7209 223.808 72.7209C226.263 72.7209 228.358 73.4453 229.874 74.8215C231.463 76.2701 232.33 78.0809 232.474 80.3987C232.474 81.3403 232.546 82.2819 232.546 83.4408ZM221.93 78.3706C221.425 78.8052 221.136 79.3846 220.991 80.1814C220.919 80.6884 220.847 81.1954 220.847 81.7748C220.847 81.9197 220.919 81.9921 221.064 81.9921H226.408C226.552 81.9921 226.624 81.9197 226.624 81.7748C226.624 81.1954 226.552 80.6884 226.48 80.1814C226.336 79.457 226.047 78.8776 225.541 78.3706C225.036 77.936 224.458 77.7187 223.664 77.7187C222.869 77.7187 222.436 77.936 221.93 78.3706Z" fill="white"/>
<path d="M247.713 73.228C247.929 73.3728 248.001 73.5901 247.929 73.8799L247.135 78.5879C247.135 78.95 246.918 79.0225 246.557 78.8776C246.124 78.7328 245.69 78.7328 245.401 78.7328C245.04 78.7328 244.752 78.8052 244.318 78.8776C243.524 79.0225 242.874 79.3846 242.296 80.0365C241.718 80.6884 241.502 81.4851 241.502 82.4268V93.726C241.502 93.8709 241.429 94.0157 241.357 94.0882C241.285 94.1606 241.141 94.233 240.996 94.233H236.157C236.013 94.233 235.869 94.1606 235.796 94.0882C235.724 94.0157 235.652 93.8709 235.652 93.726V73.5177C235.652 73.3728 235.724 73.228 235.796 73.1556C235.869 73.0831 236.013 73.0107 236.157 73.0107H240.996C241.141 73.0107 241.285 73.0831 241.357 73.1556C241.429 73.228 241.502 73.3728 241.502 73.5177V75.1836C241.502 75.3285 241.502 75.3285 241.574 75.4009C241.646 75.4009 241.646 75.4009 241.718 75.3285C242.657 73.6626 244.029 72.7934 245.763 72.7934C246.413 72.721 247.063 72.9383 247.713 73.228Z" fill="white"/>
<path d="M260.64 73.3004C260.64 73.3004 260.712 73.228 260.784 73.1555C260.857 73.0831 261.001 73.0107 261.145 73.0107H265.984C266.129 73.0107 266.273 73.0831 266.345 73.1555C266.417 73.228 266.49 73.3728 266.49 73.5177V92.7844C266.49 96.0438 265.551 98.5065 263.745 100.1C261.94 101.693 259.34 102.49 255.946 102.49C255.223 102.49 254.429 102.418 253.635 102.345C253.273 102.345 253.129 102.128 253.129 101.838L253.273 97.7097C253.273 97.42 253.418 97.2751 253.779 97.2751C254.212 97.3476 254.79 97.3476 255.512 97.3476C257.318 97.3476 258.69 96.9854 259.484 96.1887C260.279 95.3919 260.712 94.1606 260.712 92.4947C260.712 92.4222 260.712 92.3498 260.64 92.3498C260.568 92.3498 260.495 92.3498 260.495 92.4222C259.484 93.5811 258.112 94.1606 256.307 94.1606C254.501 94.1606 253.057 93.6536 251.757 92.5671C250.529 91.5531 249.735 89.9596 249.446 87.9315C249.229 87.2072 249.157 85.7586 249.157 83.5856C249.157 81.4127 249.301 79.8192 249.518 78.95C249.807 76.9944 250.529 75.4733 251.685 74.3869C252.84 73.3004 254.357 72.7209 256.162 72.7209C257.968 72.7209 259.412 73.3728 260.495 74.6042C260.568 74.6766 260.64 74.749 260.64 74.6766C260.64 74.6042 260.712 74.6042 260.712 74.5317V73.5901C260.64 73.3728 260.64 73.3004 260.64 73.3004ZM260.64 83.5132C260.64 82.137 260.568 80.9781 260.495 80.1089C260.351 79.3846 260.062 78.8052 259.557 78.3706C259.123 77.936 258.473 77.7187 257.823 77.7187C257.173 77.7187 256.523 77.936 256.09 78.3706C255.585 78.8052 255.296 79.3846 255.151 80.1089C255.007 81.123 254.935 82.2094 254.935 83.5132C254.935 84.7445 255.007 85.831 255.151 86.845C255.296 87.5693 255.585 88.1488 256.09 88.5834C256.596 89.018 257.173 89.2353 257.896 89.2353C258.618 89.2353 259.195 89.018 259.629 88.5834C260.062 88.1488 260.351 87.5693 260.495 86.845C260.568 86.0483 260.64 84.8894 260.64 83.5132Z" fill="white"/>
<path d="M287 83.4408L286.928 85.0343C286.928 85.3964 286.783 85.5413 286.422 85.5413H275.517C275.373 85.5413 275.3 85.6137 275.3 85.7586C275.373 86.4104 275.445 86.845 275.445 87.1348C275.589 87.9315 275.95 88.511 276.456 88.9455C276.961 89.3801 277.684 89.5974 278.478 89.5974C279.85 89.5974 280.717 88.9455 281.295 87.7142C281.439 87.4245 281.656 87.352 281.944 87.352L286.278 88.2212C286.639 88.2937 286.711 88.5109 286.639 88.8731C286.061 90.6839 285.05 92.0601 283.678 93.0741C282.306 94.0157 280.572 94.5227 278.55 94.5227C276.095 94.5227 274.145 93.9433 272.773 92.8568C271.328 91.7704 270.389 90.1769 269.956 88.0764C269.739 86.9175 269.595 85.2515 269.595 82.9337C269.595 81.63 269.667 80.4711 269.812 79.6019C270.101 77.5014 271.039 75.8355 272.556 74.6042C274.073 73.3728 275.95 72.7209 278.261 72.7209C280.717 72.7209 282.811 73.4453 284.328 74.8215C285.917 76.2701 286.783 78.0809 286.928 80.3987C287 81.3403 287 82.2819 287 83.4408ZM276.456 78.3706C275.95 78.8052 275.661 79.3846 275.517 80.1814C275.445 80.6884 275.373 81.1954 275.373 81.7748C275.373 81.9197 275.445 81.9921 275.589 81.9921H280.933C281.078 81.9921 281.15 81.9197 281.15 81.7748C281.15 81.1954 281.078 80.6884 281.006 80.1814C280.861 79.457 280.572 78.8776 280.067 78.3706C279.561 77.936 278.984 77.7187 278.189 77.7187C277.539 77.7187 276.961 77.936 276.456 78.3706Z" fill="white"/>
<path d="M40.3707 0C32.571 0 25.4935 3.18697 20.4381 8.25716C15.3105 13.3998 12.2051 20.4256 12.2051 28.2482C12.2051 36.0707 15.3827 43.0966 20.4381 48.2392C25.4935 53.3094 32.571 56.4963 40.3707 56.4963H68.5362V38.2437V34.4048V32.6665V31.073V28.2482C68.464 12.603 55.8978 0 40.3707 0Z" fill="white"/>
<path d="M109.412 19.3391C105.512 15.4278 100.024 12.9652 94.0296 12.9652C88.0354 12.9652 82.6189 15.4278 78.7191 19.3391C74.8192 23.2504 72.3638 28.6828 72.3638 34.6945V56.4963H75.6136H78.2858H81.6801H84.28H94.1018C106.09 56.4963 115.84 46.7181 115.84 34.6945C115.768 28.6828 113.312 23.2504 109.412 19.3391Z" fill="white"/>
<path d="M77.7803 113.789V102.78H79.2247V107.488C79.5858 106.836 80.4524 106.257 81.6079 106.257C83.8467 106.257 84.93 107.995 84.93 110.095C84.93 112.268 83.7023 114.007 81.5357 114.007C80.4524 114.007 79.658 113.5 79.1524 112.775V113.862H77.7803V113.789ZM81.319 107.488C80.0913 107.488 79.1524 108.502 79.1524 110.023C79.1524 111.544 80.0913 112.631 81.319 112.631C82.619 112.631 83.4856 111.617 83.4856 110.023C83.4856 108.43 82.619 107.488 81.319 107.488Z" fill="white"/>
<path d="M88.1798 116.832L89.9853 112.993L86.8799 106.474H88.5409L90.7797 111.544L92.9463 106.474H94.4629L89.6964 116.832H88.1798Z" fill="white"/>
<path d="M106.163 109.299L104.863 110.747V113.717H102.768V102.925H104.863V107.778L109.196 102.925H111.94L107.679 107.633L111.94 113.717H109.34L106.163 109.299Z" fill="white"/>
<path d="M116.706 113.789H114.684V102.78H116.706V106.908C117.212 106.329 118.006 106.112 118.729 106.112C120.606 106.112 121.473 107.416 121.473 109.081V113.789H119.451V109.444C119.451 108.574 119.017 107.923 118.079 107.923C117.212 107.923 116.706 108.574 116.706 109.371V113.789Z" fill="white"/>
<path d="M126.817 109.444L128.623 109.154C129.056 109.081 129.2 108.864 129.2 108.647C129.2 108.14 128.767 107.705 127.973 107.705C127.106 107.705 126.601 108.285 126.528 108.937L124.723 108.574C124.867 107.415 125.951 106.112 127.9 106.112C130.284 106.112 131.15 107.415 131.15 108.937V112.631C131.15 112.993 131.223 113.572 131.223 113.789H129.345C129.273 113.572 129.273 113.21 129.273 112.92C128.912 113.5 128.189 114.007 127.106 114.007C125.517 114.007 124.578 112.92 124.578 111.761C124.578 110.385 125.589 109.661 126.817 109.444ZM129.2 110.747V110.385L127.539 110.675C127.034 110.747 126.601 111.037 126.601 111.617C126.601 112.051 126.889 112.486 127.539 112.486C128.406 112.486 129.2 112.051 129.2 110.747Z" fill="white"/>
<path d="M137.145 105.46V106.257H138.806V107.995H137.145V113.717H135.123V107.995H133.895V106.257H135.123V105.387C135.123 103.722 136.206 102.635 137.867 102.635C138.3 102.635 138.733 102.707 138.878 102.78V104.518C138.806 104.518 138.589 104.446 138.228 104.446C137.722 104.446 137.145 104.591 137.145 105.46Z" fill="white"/>
<path d="M150.289 109.588H149.205V113.717H147.111V102.925H151.3C153.394 102.925 154.694 104.373 154.694 106.257C154.694 107.778 153.827 108.937 152.383 109.299L154.694 113.717H152.383L150.289 109.588ZM150.866 107.778C151.95 107.778 152.527 107.198 152.527 106.257C152.527 105.315 151.877 104.736 150.866 104.736H149.133V107.705H150.866V107.778Z" fill="white"/>
<path d="M164.949 110.023C164.949 112.341 163.288 114.007 161.049 114.007C158.81 114.007 157.149 112.341 157.149 110.023C157.149 107.705 158.81 106.039 161.049 106.039C163.288 106.039 164.949 107.705 164.949 110.023ZM162.927 110.023C162.927 108.574 161.988 107.923 161.049 107.923C160.11 107.923 159.172 108.647 159.172 110.023C159.172 111.399 160.11 112.124 161.049 112.124C161.988 112.124 162.927 111.399 162.927 110.023Z" fill="white"/>
<path d="M168.199 116.687L169.932 112.775L166.755 106.257H168.993L171.016 110.602L172.821 106.257H174.988L170.293 116.687H168.199Z" fill="white"/>
<path d="M179.321 109.444L181.126 109.154C181.56 109.081 181.704 108.864 181.704 108.647C181.704 108.14 181.271 107.705 180.476 107.705C179.61 107.705 179.104 108.285 179.032 108.937L177.226 108.574C177.371 107.415 178.454 106.112 180.404 106.112C182.787 106.112 183.654 107.415 183.654 108.937V112.631C183.654 112.993 183.726 113.572 183.726 113.789H181.849C181.776 113.572 181.776 113.21 181.776 112.92C181.415 113.5 180.693 114.007 179.61 114.007C178.021 114.007 177.082 112.92 177.082 111.761C177.082 110.385 178.021 109.661 179.321 109.444ZM181.704 110.747V110.385L180.043 110.675C179.537 110.747 179.104 111.037 179.104 111.617C179.104 112.051 179.393 112.486 180.043 112.486C180.91 112.486 181.704 112.051 181.704 110.747Z" fill="white"/>
<path d="M187.193 113.789V102.78H189.215V113.789H187.193Z" fill="white"/>
<path d="M190.842 58.4961V44.1761H195.882C196.562 44.1761 197.196 44.2894 197.782 44.5161C198.382 44.7294 198.902 45.0361 199.342 45.4361C199.782 45.8361 200.129 46.3161 200.382 46.8761C200.636 47.4228 200.762 48.0294 200.762 48.6961C200.762 49.3761 200.636 49.9961 200.382 50.5561C200.129 51.1028 199.782 51.5761 199.342 51.9761C198.902 52.3761 198.382 52.6894 197.782 52.9161C197.196 53.1294 196.562 53.2361 195.882 53.2361H193.542V58.4961H190.842ZM195.922 50.6761C196.629 50.6761 197.162 50.4761 197.522 50.0761C197.882 49.6761 198.062 49.2161 198.062 48.6961C198.062 48.4428 198.016 48.1961 197.922 47.9561C197.842 47.7161 197.709 47.5094 197.522 47.3361C197.349 47.1494 197.129 47.0028 196.862 46.8961C196.596 46.7894 196.282 46.7361 195.922 46.7361H193.542V50.6761H195.922ZM202.678 44.1761H207.898C208.618 44.1761 209.272 44.2894 209.858 44.5161C210.445 44.7428 210.945 45.0561 211.358 45.4561C211.785 45.8561 212.112 46.3361 212.338 46.8961C212.565 47.4428 212.678 48.0428 212.678 48.6961C212.678 49.1761 212.598 49.6294 212.438 50.0561C212.278 50.4694 212.058 50.8494 211.778 51.1961C211.498 51.5294 211.172 51.8294 210.798 52.0961C210.425 52.3494 210.032 52.5494 209.618 52.6961L209.598 52.8361L213.438 58.3361V58.4961H210.338L206.638 53.1161H205.378V58.4961H202.678V44.1761ZM207.878 50.6361C208.492 50.6361 208.992 50.4494 209.378 50.0761C209.778 49.7028 209.978 49.2294 209.978 48.6561C209.978 48.4028 209.932 48.1561 209.838 47.9161C209.758 47.6761 209.632 47.4628 209.458 47.2761C209.285 47.0894 209.065 46.9428 208.798 46.8361C208.545 46.7161 208.252 46.6561 207.918 46.6561H205.378V50.6361H207.878ZM221.861 58.8161C220.794 58.8161 219.801 58.6228 218.881 58.2361C217.974 57.8494 217.187 57.3228 216.521 56.6561C215.854 55.9761 215.327 55.1828 214.941 54.2761C214.567 53.3561 214.381 52.3761 214.381 51.3361C214.381 50.2961 214.567 49.3228 214.941 48.4161C215.327 47.4961 215.854 46.7028 216.521 46.0361C217.187 45.3561 217.974 44.8228 218.881 44.4361C219.801 44.0494 220.794 43.8561 221.861 43.8561C222.927 43.8561 223.914 44.0494 224.821 44.4361C225.741 44.8228 226.534 45.3561 227.201 46.0361C227.867 46.7028 228.387 47.4961 228.761 48.4161C229.147 49.3228 229.341 50.2961 229.341 51.3361C229.341 52.3761 229.147 53.3561 228.761 54.2761C228.387 55.1828 227.867 55.9761 227.201 56.6561C226.534 57.3228 225.741 57.8494 224.821 58.2361C223.914 58.6228 222.927 58.8161 221.861 58.8161ZM221.861 56.2561C222.527 56.2561 223.147 56.1361 223.721 55.8961C224.307 55.6561 224.814 55.3228 225.241 54.8961C225.681 54.4694 226.021 53.9561 226.261 53.3561C226.514 52.7428 226.641 52.0694 226.641 51.3361C226.641 50.6028 226.514 49.9361 226.261 49.3361C226.021 48.7228 225.681 48.2028 225.241 47.7761C224.814 47.3494 224.307 47.0161 223.721 46.7761C223.147 46.5361 222.527 46.4161 221.861 46.4161C221.194 46.4161 220.567 46.5361 219.981 46.7761C219.407 47.0161 218.901 47.3494 218.461 47.7761C218.034 48.2028 217.694 48.7228 217.441 49.3361C217.201 49.9361 217.081 50.6028 217.081 51.3361C217.081 52.0694 217.201 52.7428 217.441 53.3561C217.694 53.9561 218.034 54.4694 218.461 54.8961C218.901 55.3228 219.407 55.6561 219.981 55.8961C220.567 56.1361 221.194 56.2561 221.861 56.2561ZM229.72 44.1761H232.64L235.6 52.7961L236.12 54.6361H236.28L236.84 52.7961L239.92 44.1761H242.84L237.62 58.4961H234.78L229.72 44.1761ZM244.514 44.1761H247.214V58.4961H244.514V44.1761ZM250.1 44.1761H254.94C256.073 44.1761 257.093 44.3494 258 44.6961C258.907 45.0428 259.68 45.5361 260.32 46.1761C260.96 46.8028 261.447 47.5561 261.78 48.4361C262.127 49.3161 262.3 50.2828 262.3 51.3361C262.3 52.4028 262.127 53.3761 261.78 54.2561C261.447 55.1361 260.96 55.8894 260.32 56.5161C259.68 57.1428 258.907 57.6294 258 57.9761C257.093 58.3228 256.073 58.4961 254.94 58.4961H250.1V44.1761ZM254.82 55.9361C255.607 55.9361 256.3 55.8294 256.9 55.6161C257.5 55.3894 258 55.0761 258.4 54.6761C258.8 54.2761 259.1 53.7961 259.3 53.2361C259.5 52.6628 259.6 52.0294 259.6 51.3361C259.6 50.6428 259.5 50.0161 259.3 49.4561C259.1 48.8828 258.8 48.3961 258.4 47.9961C258 47.5961 257.5 47.2894 256.9 47.0761C256.3 46.8494 255.607 46.7361 254.82 46.7361H252.8V55.9361H254.82ZM267.175 46.7361V50.0561H272.915V52.6161H267.175V55.9361H273.555V58.4961H264.475V44.1761H273.555V46.7361H267.175ZM276.038 44.1761H281.258C281.978 44.1761 282.631 44.2894 283.218 44.5161C283.804 44.7428 284.304 45.0561 284.718 45.4561C285.144 45.8561 285.471 46.3361 285.698 46.8961C285.924 47.4428 286.038 48.0428 286.038 48.6961C286.038 49.1761 285.958 49.6294 285.798 50.0561C285.638 50.4694 285.418 50.8494 285.138 51.1961C284.858 51.5294 284.531 51.8294 284.158 52.0961C283.784 52.3494 283.391 52.5494 282.978 52.6961L282.958 52.8361L286.798 58.3361V58.4961H283.698L279.998 53.1161H278.738V58.4961H276.038V44.1761ZM281.238 50.6361C281.851 50.6361 282.351 50.4494 282.738 50.0761C283.138 49.7028 283.338 49.2294 283.338 48.6561C283.338 48.4028 283.291 48.1561 283.198 47.9161C283.118 47.6761 282.991 47.4628 282.818 47.2761C282.644 47.0894 282.424 46.9428 282.158 46.8361C281.904 46.7161 281.611 46.6561 281.278 46.6561H278.738V50.6361H281.238Z" fill="white"/>
<rect x="121.149" y="49.998" width="62.5773" height="5" fill="white"/>
</g>
<defs>
<clipPath id="clip0_401_4293">
<rect width="287" height="129" fill="white"/>
</clipPath>
</defs>
</svg>
