<svg width="401" height="179" viewBox="0 0 401 179" fill="none" xmlns="http://www.w3.org/2000/svg">
<g clip-path="url(#clip0_3363_8682)">
<path d="M106.06 130.4C105.996 130.338 105.945 130.263 105.911 130.18C105.876 130.098 105.859 130.009 105.86 129.92V91.4998C105.86 91.3195 105.932 91.1465 106.059 91.019C106.187 90.8915 106.36 90.8198 106.54 90.8198H113.19C113.37 90.8198 113.543 90.8915 113.671 91.019C113.798 91.1465 113.87 91.3195 113.87 91.4998V123.5C113.865 123.538 113.869 123.576 113.881 123.613C113.894 123.649 113.914 123.682 113.941 123.709C113.968 123.736 114.001 123.756 114.037 123.769C114.074 123.781 114.112 123.785 114.15 123.78H129.4C129.489 123.78 129.578 123.797 129.66 123.832C129.743 123.866 129.818 123.916 129.881 123.979C129.944 124.042 129.994 124.117 130.028 124.2C130.062 124.282 130.08 124.371 130.08 124.46V129.98C130.08 130.069 130.062 130.158 130.028 130.24C129.994 130.323 129.944 130.398 129.881 130.461C129.818 130.524 129.743 130.574 129.66 130.608C129.578 130.642 129.489 130.66 129.4 130.66H106.54C106.446 130.654 106.354 130.628 106.271 130.583C106.189 130.538 106.116 130.475 106.06 130.4Z" fill="#414042"/>
<path d="M157.44 115.7L157.38 117.92C157.393 118.013 157.385 118.107 157.356 118.195C157.326 118.284 157.277 118.365 157.21 118.431C157.144 118.497 157.064 118.546 156.975 118.576C156.887 118.605 156.792 118.614 156.7 118.6H141.63C141.591 118.594 141.552 118.596 141.514 118.608C141.477 118.619 141.442 118.639 141.414 118.667C141.386 118.694 141.364 118.727 141.352 118.765C141.339 118.802 141.335 118.841 141.34 118.88C141.413 119.753 141.49 120.397 141.57 120.81C141.709 121.786 142.204 122.677 142.96 123.31C143.742 123.932 144.721 124.255 145.72 124.22C146.551 124.249 147.37 124.017 148.064 123.559C148.758 123.1 149.291 122.436 149.59 121.66C149.651 121.493 149.771 121.354 149.928 121.269C150.084 121.185 150.267 121.16 150.44 121.2L156.44 122.39C156.535 122.399 156.627 122.431 156.707 122.483C156.787 122.536 156.852 122.608 156.898 122.692C156.944 122.776 156.968 122.87 156.968 122.966C156.968 123.061 156.945 123.156 156.9 123.24C156.195 125.562 154.748 127.589 152.78 129.01C150.688 130.402 148.211 131.101 145.7 131.01C142.852 131.152 140.038 130.343 137.7 128.71C135.635 127.054 134.247 124.699 133.8 122.09C133.396 119.743 133.225 117.361 133.29 114.98C133.268 113.436 133.381 111.894 133.63 110.37C133.947 107.671 135.29 105.197 137.38 103.46C139.762 101.723 142.649 100.815 145.597 100.876C148.545 100.938 151.392 101.965 153.7 103.8C154.778 104.784 155.65 105.972 156.265 107.295C156.879 108.619 157.225 110.052 157.28 111.51C157.387 112.783 157.44 114.18 157.44 115.7ZM142.8 108.7C142.106 109.367 141.655 110.247 141.52 111.2C141.404 111.914 141.347 112.637 141.35 113.36C141.345 113.399 141.349 113.439 141.362 113.476C141.374 113.513 141.396 113.546 141.424 113.574C141.452 113.601 141.487 113.621 141.524 113.633C141.562 113.644 141.601 113.647 141.64 113.64H149C149.038 113.645 149.076 113.641 149.113 113.629C149.149 113.617 149.182 113.596 149.209 113.569C149.236 113.542 149.256 113.509 149.269 113.473C149.281 113.437 149.285 113.398 149.28 113.36C149.283 112.637 149.226 111.914 149.11 111.2C149.001 110.254 148.557 109.378 147.86 108.73C147.143 108.139 146.244 107.816 145.315 107.816C144.386 107.816 143.486 108.139 142.77 108.73L142.8 108.7Z" fill="#414042"/>
<path d="M207.11 128.58C206.062 127.752 205.189 126.725 204.54 125.558C203.891 124.391 203.48 123.107 203.33 121.78C203.009 119.843 202.855 117.883 202.87 115.92C202.852 113.957 203.006 111.996 203.33 110.06C203.489 108.752 203.905 107.489 204.554 106.343C205.202 105.196 206.071 104.189 207.11 103.38C209.45 101.658 212.307 100.786 215.21 100.91C218.082 100.782 220.91 101.655 223.21 103.38C225.281 105.038 226.635 107.43 226.99 110.06C227.596 113.923 227.596 117.857 226.99 121.72C226.698 124.405 225.357 126.867 223.26 128.57C220.956 130.288 218.131 131.16 215.26 131.04C212.342 131.178 209.465 130.309 207.11 128.58ZM217.74 123.21C218.472 122.508 218.959 121.589 219.13 120.59C219.315 119.043 219.408 117.487 219.41 115.93C219.412 114.389 219.318 112.849 219.13 111.32C218.996 110.328 218.523 109.412 217.79 108.73C217.06 108.094 216.117 107.758 215.15 107.79C214.199 107.763 213.273 108.099 212.56 108.73C211.827 109.412 211.353 110.327 211.22 111.32C211.006 112.847 210.912 114.388 210.94 115.93C210.923 117.486 211 119.043 211.17 120.59C211.344 121.595 211.843 122.515 212.59 123.21C213.303 123.867 214.241 124.225 215.21 124.21C216.155 124.222 217.067 123.863 217.75 123.21H217.74Z" fill="#414042"/>
<path d="M253 103.56C254.573 105.32 255.36 107.773 255.36 110.92V129.92C255.36 130.1 255.288 130.273 255.161 130.401C255.033 130.528 254.86 130.6 254.68 130.6H248C247.82 130.6 247.647 130.528 247.519 130.401C247.392 130.273 247.32 130.1 247.32 129.92V112.06C247.376 110.93 247.021 109.818 246.32 108.93C245.999 108.554 245.595 108.255 245.142 108.058C244.688 107.86 244.195 107.769 243.7 107.79C243.191 107.768 242.683 107.862 242.216 108.065C241.748 108.267 241.332 108.574 241 108.96C240.294 109.857 239.939 110.98 240 112.12V129.92C240 130.1 239.928 130.273 239.801 130.401C239.673 130.528 239.5 130.6 239.32 130.6H232.67C232.49 130.6 232.317 130.528 232.189 130.401C232.062 130.273 231.99 130.1 231.99 129.92V102.05C231.99 101.87 232.062 101.697 232.189 101.569C232.317 101.442 232.49 101.37 232.67 101.37H239.32C239.5 101.37 239.673 101.442 239.801 101.569C239.928 101.697 240 101.87 240 102.05V103.64C240 103.75 240 103.82 240.11 103.84C240.22 103.86 240.28 103.84 240.39 103.64C241.093 102.731 242.006 102.008 243.052 101.532C244.097 101.056 245.243 100.843 246.39 100.91C247.62 100.832 248.851 101.03 249.994 101.488C251.138 101.947 252.165 102.654 253 103.56Z" fill="#414042"/>
<path d="M264 128.64C261.919 127.007 260.544 124.637 260.16 122.02C259.817 119.992 259.663 117.936 259.7 115.88C259.712 113.872 259.866 111.867 260.16 109.88C260.568 107.294 261.953 104.964 264.03 103.37C266.298 101.698 269.065 100.845 271.88 100.95C274.652 100.859 277.377 101.678 279.64 103.28C281.684 104.744 283.079 106.946 283.53 109.42C283.636 109.966 283.713 110.516 283.76 111.07C283.765 111.164 283.752 111.257 283.72 111.346C283.689 111.434 283.64 111.515 283.577 111.584C283.513 111.653 283.437 111.708 283.351 111.747C283.266 111.786 283.174 111.807 283.08 111.81L276.54 112.44H276.43C276.09 112.44 275.883 112.23 275.81 111.81C275.817 111.618 275.797 111.426 275.75 111.24C275.67 110.94 275.6 110.67 275.52 110.44C275.298 109.688 274.838 109.029 274.21 108.56C273.519 108.052 272.677 107.791 271.82 107.82C270.9 107.784 270.002 108.11 269.32 108.73C268.642 109.404 268.202 110.283 268.07 111.23C267.819 112.79 267.705 114.37 267.73 115.95C267.691 117.59 267.825 119.229 268.13 120.84C268.267 121.765 268.694 122.623 269.35 123.29C269.681 123.598 270.069 123.837 270.493 123.994C270.917 124.15 271.369 124.22 271.82 124.2C272.784 124.247 273.729 123.921 274.46 123.29C275.115 122.702 275.531 121.895 275.63 121.02L275.74 120.34C275.776 120.157 275.866 119.99 276 119.86C276.061 119.797 276.137 119.75 276.221 119.726C276.306 119.701 276.395 119.699 276.48 119.72L283.08 120.29C283.17 120.296 283.258 120.321 283.339 120.361C283.42 120.402 283.492 120.459 283.551 120.528C283.609 120.596 283.654 120.676 283.681 120.763C283.708 120.849 283.718 120.94 283.71 121.03C283.697 121.412 283.66 121.793 283.6 122.17C283.459 123.457 283.055 124.702 282.414 125.827C281.772 126.952 280.906 127.933 279.87 128.71C277.543 130.374 274.728 131.215 271.87 131.1C269.043 131.2 266.267 130.332 264 128.64Z" fill="#414042"/>
<path d="M179.192 128.64C177.111 127.007 175.736 124.637 175.352 122.02C175.009 119.992 174.855 117.936 174.892 115.88C174.904 113.872 175.058 111.867 175.352 109.88C175.76 107.294 177.145 104.964 179.222 103.37C181.49 101.698 184.257 100.845 187.072 100.95C189.844 100.859 192.569 101.678 194.832 103.28C196.876 104.744 198.271 106.946 198.722 109.42C198.828 109.966 198.905 110.516 198.952 111.07C198.957 111.164 198.944 111.257 198.912 111.346C198.881 111.434 198.832 111.515 198.769 111.584C198.705 111.653 198.629 111.708 198.543 111.747C198.458 111.786 198.366 111.807 198.272 111.81L191.732 112.44H191.622C191.282 112.44 191.075 112.23 191.002 111.81C191.01 111.618 190.989 111.426 190.942 111.24C190.862 110.94 190.792 110.67 190.712 110.44C190.49 109.688 190.03 109.029 189.402 108.56C188.711 108.052 187.869 107.791 187.012 107.82C186.092 107.784 185.194 108.11 184.512 108.73C183.834 109.404 183.395 110.283 183.262 111.23C183.011 112.79 182.897 114.37 182.922 115.95C182.883 117.59 183.017 119.229 183.322 120.84C183.459 121.765 183.886 122.623 184.542 123.29C184.873 123.598 185.261 123.837 185.685 123.994C186.109 124.15 186.561 124.22 187.012 124.2C187.976 124.247 188.921 123.921 189.652 123.29C190.307 122.702 190.723 121.895 190.822 121.02L190.932 120.34C190.968 120.157 191.058 119.99 191.192 119.86C191.253 119.797 191.329 119.75 191.413 119.726C191.498 119.701 191.587 119.699 191.672 119.72L198.272 120.29C198.362 120.296 198.45 120.321 198.531 120.361C198.612 120.402 198.684 120.459 198.743 120.528C198.801 120.596 198.846 120.676 198.873 120.763C198.9 120.849 198.91 120.94 198.902 121.03C198.889 121.412 198.852 121.793 198.792 122.17C198.651 123.457 198.247 124.702 197.606 125.827C196.964 126.952 196.098 127.933 195.062 128.71C192.735 130.374 189.92 131.215 187.062 131.1C184.235 131.2 181.459 130.332 179.192 128.64Z" fill="#414042"/>
<path d="M288.86 96.7898C288.065 95.9037 287.626 94.7552 287.626 93.5648C287.626 92.3744 288.065 91.226 288.86 90.3398C289.271 89.9279 289.761 89.6038 290.301 89.3872C290.84 89.1706 291.419 89.066 292 89.0798C293.194 89.0798 294.338 89.5539 295.182 90.3978C296.026 91.2418 296.5 92.3863 296.5 93.5798C296.5 94.7733 296.026 95.9179 295.182 96.7618C294.338 97.6057 293.194 98.0798 292 98.0798C291.416 98.0915 290.836 97.983 290.296 97.7611C289.756 97.5392 289.267 97.2086 288.86 96.7898ZM288.26 130.4C288.195 130.338 288.144 130.263 288.11 130.181C288.076 130.098 288.059 130.009 288.06 129.92V102.05C288.06 101.869 288.132 101.697 288.259 101.569C288.387 101.441 288.56 101.37 288.74 101.37H295.39C295.479 101.37 295.568 101.387 295.65 101.422C295.733 101.456 295.808 101.506 295.871 101.569C295.934 101.632 295.984 101.707 296.018 101.79C296.052 101.872 296.07 101.961 296.07 102.05V129.91C296.07 129.999 296.052 130.088 296.018 130.17C295.984 130.253 295.934 130.328 295.871 130.391C295.808 130.454 295.733 130.504 295.65 130.538C295.568 130.572 295.479 130.59 295.39 130.59H288.74C288.651 130.593 288.563 130.577 288.48 130.545C288.398 130.512 288.323 130.463 288.26 130.4Z" fill="#414042"/>
<path d="M325 115.7L324.94 117.92C324.953 118.013 324.945 118.107 324.916 118.195C324.886 118.284 324.836 118.365 324.77 118.431C324.704 118.497 324.624 118.546 324.535 118.576C324.447 118.605 324.352 118.614 324.26 118.6H309.22C309.181 118.594 309.142 118.596 309.104 118.608C309.067 118.619 309.032 118.639 309.004 118.667C308.976 118.694 308.954 118.728 308.941 118.765C308.929 118.802 308.925 118.841 308.93 118.88C309.003 119.754 309.08 120.397 309.16 120.81C309.299 121.786 309.794 122.677 310.55 123.31C311.332 123.932 312.311 124.255 313.31 124.22C314.141 124.249 314.96 124.018 315.654 123.559C316.348 123.1 316.881 122.436 317.18 121.66C317.241 121.493 317.361 121.354 317.518 121.269C317.674 121.185 317.857 121.16 318.03 121.2L324.03 122.39C324.125 122.399 324.217 122.431 324.297 122.483C324.377 122.536 324.442 122.608 324.488 122.692C324.533 122.776 324.558 122.87 324.558 122.966C324.558 123.061 324.535 123.156 324.49 123.24C323.785 125.563 322.338 127.589 320.37 129.01C318.278 130.402 315.801 131.101 313.29 131.01C310.442 131.152 307.628 130.343 305.29 128.71C303.225 127.054 301.837 124.699 301.39 122.09C300.986 119.743 300.815 117.361 300.88 114.98C300.858 113.437 300.971 111.894 301.22 110.37C301.554 107.681 302.907 105.222 305 103.5C307.382 101.763 310.269 100.855 313.217 100.916C316.165 100.978 319.012 102.005 321.32 103.84C322.398 104.824 323.27 106.012 323.885 107.335C324.499 108.659 324.844 110.092 324.9 111.55C324.967 112.797 325 114.18 325 115.7ZM310.36 108.7C309.665 109.367 309.215 110.247 309.08 111.2C308.964 111.914 308.907 112.637 308.91 113.36C308.905 113.399 308.909 113.439 308.921 113.476C308.934 113.513 308.956 113.546 308.984 113.574C309.012 113.601 309.047 113.621 309.084 113.633C309.122 113.644 309.161 113.647 309.2 113.64H316.59C316.628 113.645 316.666 113.641 316.703 113.629C316.739 113.617 316.772 113.596 316.799 113.569C316.826 113.542 316.846 113.509 316.859 113.473C316.871 113.437 316.875 113.398 316.87 113.36C316.873 112.637 316.816 111.914 316.7 111.2C316.591 110.254 316.147 109.379 315.45 108.73C314.733 108.139 313.834 107.816 312.905 107.816C311.976 107.816 311.076 108.139 310.36 108.73V108.7Z" fill="#414042"/>
<path d="M346 101.65C346.149 101.743 346.263 101.883 346.324 102.048C346.385 102.212 346.391 102.392 346.34 102.56L345.2 109.1C345.16 109.553 344.893 109.687 344.4 109.5C343.861 109.357 343.307 109.28 342.75 109.27C342.252 109.275 341.756 109.332 341.27 109.44C340.17 109.59 339.17 110.16 338.48 111.03C337.716 111.957 337.311 113.129 337.34 114.33V129.91C337.34 130.09 337.268 130.263 337.141 130.391C337.013 130.518 336.84 130.59 336.66 130.59H330C329.82 130.59 329.647 130.518 329.519 130.391C329.392 130.263 329.32 130.09 329.32 129.91V102.05C329.32 101.87 329.392 101.697 329.519 101.569C329.647 101.442 329.82 101.37 330 101.37H336.65C336.83 101.37 337.003 101.442 337.131 101.569C337.258 101.697 337.33 101.87 337.33 102.05V104.32C337.33 104.47 337.33 104.56 337.42 104.58C337.51 104.6 337.54 104.58 337.62 104.44C338.127 103.396 338.919 102.516 339.905 101.902C340.89 101.288 342.029 100.965 343.19 100.97C344.169 100.953 345.137 101.187 346 101.65Z" fill="#414042"/>
<path d="M363.92 101.77L364.12 101.57C364.182 101.506 364.257 101.455 364.339 101.421C364.422 101.386 364.511 101.369 364.6 101.37H371.25C371.43 101.37 371.603 101.441 371.731 101.569C371.858 101.696 371.93 101.869 371.93 102.05V128.61C371.93 133.156 370.67 136.54 368.15 138.76C365.63 140.98 362.02 142.09 357.32 142.09C356.293 142.09 355.213 142.033 354.08 141.92C353.984 141.923 353.889 141.906 353.801 141.869C353.713 141.833 353.634 141.777 353.569 141.707C353.504 141.636 353.456 141.553 353.427 141.462C353.397 141.371 353.388 141.275 353.4 141.18L353.57 135.44C353.57 135.02 353.817 134.81 354.31 134.81C355.104 134.896 355.902 134.933 356.7 134.92C359.24 134.92 361.08 134.38 362.22 133.3C363.36 132.22 363.93 130.503 363.93 128.15C363.936 128.105 363.929 128.059 363.91 128.018C363.89 127.977 363.859 127.943 363.82 127.92C363.74 127.92 363.67 127.92 363.59 128.03C362.87 128.848 361.974 129.493 360.97 129.917C359.966 130.341 358.879 130.534 357.79 130.48C355.513 130.544 353.291 129.776 351.54 128.32C349.711 126.644 348.558 124.357 348.3 121.89C347.955 119.909 347.821 117.898 347.9 115.89C347.816 113.754 347.987 111.615 348.41 109.52C348.673 107.139 349.73 104.917 351.41 103.21C352.244 102.443 353.22 101.847 354.284 101.458C355.348 101.068 356.478 100.892 357.61 100.94C358.738 100.887 359.864 101.09 360.903 101.533C361.942 101.977 362.867 102.649 363.61 103.5C363.69 103.61 363.76 103.65 363.84 103.61C363.879 103.587 363.91 103.552 363.93 103.511C363.949 103.471 363.956 103.425 363.95 103.38V101.79L363.92 101.77ZM363.92 115.87C363.937 114.293 363.861 112.717 363.69 111.15C363.551 110.219 363.112 109.359 362.44 108.7C361.775 108.085 360.895 107.758 359.99 107.79C359.545 107.78 359.102 107.858 358.686 108.019C358.271 108.18 357.892 108.422 357.57 108.73C356.894 109.378 356.445 110.226 356.29 111.15C356.048 112.711 355.935 114.29 355.95 115.87C355.94 117.411 356.033 118.951 356.23 120.48C356.372 121.416 356.822 122.279 357.51 122.93C358.204 123.548 359.111 123.875 360.04 123.84C360.945 123.872 361.825 123.545 362.49 122.93C363.164 122.286 363.592 121.426 363.7 120.5C363.865 118.962 363.939 117.416 363.92 115.87Z" fill="#414042"/>
<path d="M400.49 115.7L400.43 117.92C400.443 118.013 400.435 118.107 400.406 118.195C400.376 118.284 400.327 118.365 400.261 118.431C400.194 118.497 400.114 118.546 400.025 118.576C399.937 118.605 399.842 118.614 399.75 118.6H384.68C384.641 118.594 384.602 118.596 384.564 118.608C384.527 118.619 384.492 118.639 384.464 118.667C384.436 118.694 384.414 118.727 384.402 118.765C384.389 118.802 384.385 118.841 384.39 118.88C384.463 119.753 384.54 120.397 384.62 120.81C384.759 121.786 385.254 122.677 386.01 123.31C386.792 123.932 387.771 124.255 388.77 124.22C389.601 124.249 390.421 124.017 391.114 123.559C391.808 123.1 392.341 122.436 392.64 121.66C392.701 121.493 392.821 121.354 392.978 121.269C393.135 121.185 393.317 121.16 393.49 121.2L399.49 122.39C399.585 122.399 399.677 122.431 399.757 122.483C399.837 122.536 399.902 122.608 399.948 122.692C399.994 122.776 400.018 122.87 400.018 122.966C400.018 123.061 399.995 123.156 399.95 123.24C399.245 125.562 397.798 127.589 395.83 129.01C393.738 130.402 391.261 131.101 388.75 131.01C385.902 131.152 383.088 130.343 380.75 128.71C378.685 127.054 377.297 124.699 376.85 122.09C376.446 119.743 376.275 117.361 376.34 114.98C376.318 113.436 376.431 111.894 376.68 110.37C376.997 107.671 378.34 105.197 380.43 103.46C382.813 101.723 385.699 100.815 388.647 100.876C391.595 100.938 394.442 101.965 396.75 103.8C397.828 104.784 398.7 105.972 399.315 107.295C399.929 108.619 400.275 110.052 400.33 111.51C400.437 112.783 400.49 114.18 400.49 115.7ZM385.85 108.7C385.156 109.367 384.705 110.247 384.57 111.2C384.454 111.914 384.397 112.637 384.4 113.36C384.395 113.399 384.399 113.439 384.412 113.476C384.424 113.513 384.446 113.546 384.474 113.574C384.502 113.601 384.537 113.621 384.574 113.633C384.612 113.644 384.651 113.647 384.69 113.64H392.08C392.118 113.645 392.157 113.641 392.193 113.629C392.229 113.617 392.262 113.596 392.289 113.569C392.316 113.542 392.336 113.509 392.349 113.473C392.361 113.437 392.365 113.398 392.36 113.36C392.363 112.637 392.306 111.914 392.19 111.2C392.081 110.254 391.637 109.378 390.94 108.73C390.224 108.139 389.324 107.816 388.395 107.816C387.466 107.816 386.567 108.139 385.85 108.73V108.7Z" fill="#414042"/>
<path d="M47.42 178.63C41.1927 178.63 35.0264 177.403 29.2732 175.02C23.5199 172.637 18.2924 169.144 13.889 164.741C9.48564 160.338 5.99271 155.11 3.60963 149.357C1.22655 143.604 0 137.437 0 131.21C0 124.983 1.22655 118.816 3.60963 113.063C5.99271 107.31 9.48564 102.082 13.889 97.679C18.2924 93.2757 23.5199 89.7828 29.2732 87.3997C35.0264 85.0166 41.1927 83.79 47.42 83.79H94.84V131.21C94.84 143.787 89.844 155.848 80.951 164.741C72.058 173.634 59.9966 178.63 47.42 178.63Z" fill="#2C93FA"/>
<path d="M55.85 0.5C45.5065 0.5 35.5867 4.60892 28.2728 11.9228C20.9589 19.2368 16.85 29.1566 16.85 39.5C16.85 49.8434 20.9589 59.7632 28.2728 67.0772C35.5867 74.3911 45.5065 78.5 55.85 78.5H94.85V39.5C94.85 29.1566 90.7411 19.2368 83.4271 11.9228C76.1132 4.60892 66.1934 0.5 55.85 0.5Z" fill="#2C93FA"/>
<path d="M151.49 27.1702C147.297 22.9465 141.942 20.0655 136.107 18.8935C130.272 17.7216 124.22 18.3117 118.722 20.5888C113.223 22.8659 108.526 26.7271 105.228 31.6813C101.929 36.6355 100.179 42.4587 100.2 48.4102V78.5002H130.2C136.152 78.5229 141.977 76.7742 146.933 73.4769C151.888 70.1795 155.751 65.4824 158.03 59.9832C160.308 54.4841 160.899 48.4315 159.727 42.5955C158.556 36.7594 155.674 31.4039 151.45 27.2102L151.49 27.1702Z" fill="#2C93FA"/>
<path d="M107.66 157.55V142.35H109.66V148.88C110.011 148.32 110.506 147.864 111.094 147.562C111.682 147.259 112.34 147.12 113 147.16C116.07 147.16 117.64 149.51 117.64 152.45C117.64 155.39 115.94 157.83 112.94 157.83C112.287 157.865 111.636 157.722 111.058 157.416C110.481 157.109 109.997 156.651 109.66 156.09V157.56L107.66 157.55ZM112.59 148.9C110.85 148.9 109.59 150.27 109.59 152.45C109.59 154.63 110.85 156.06 112.59 156.06C114.33 156.06 115.59 154.63 115.59 152.45C115.59 150.27 114.42 148.9 112.59 148.9Z" fill="#939598"/>
<path d="M122.15 161.77L124.67 156.44L120.32 147.44H122.59L125.74 154.44L128.74 147.44H130.86L124.29 161.76L122.15 161.77Z" fill="#939598"/>
<path d="M147 151.38L145.15 153.38V157.52H142.25V142.67H145.15V149.41L151.15 142.67H154.95L149.05 149.16L154.99 157.56H151.36L147 151.38Z" fill="#58595B"/>
<path d="M161.59 157.55H158.8V142.35H161.59V148.08C161.95 147.706 162.384 147.412 162.865 147.218C163.345 147.023 163.862 146.932 164.38 146.95C167 146.95 168.22 148.78 168.22 151.04V157.55H165.43V151.55C165.466 151.284 165.442 151.013 165.361 150.757C165.28 150.501 165.144 150.266 164.961 150.07C164.778 149.873 164.555 149.719 164.305 149.618C164.056 149.518 163.788 149.474 163.52 149.49C163.261 149.49 163.004 149.542 162.765 149.643C162.526 149.745 162.31 149.893 162.13 150.08C161.95 150.267 161.809 150.488 161.716 150.73C161.624 150.972 161.581 151.231 161.59 151.49V157.55Z" fill="#58595B"/>
<path d="M175.61 151.61L178.15 151.23C178.74 151.15 178.93 150.85 178.93 150.5C178.93 149.77 178.36 149.16 177.19 149.16C176.948 149.137 176.704 149.162 176.471 149.234C176.239 149.306 176.024 149.424 175.837 149.58C175.651 149.737 175.498 149.929 175.387 150.145C175.276 150.361 175.209 150.598 175.19 150.84L172.71 150.31C172.88 148.69 174.37 146.91 177.14 146.91C180.42 146.91 181.63 148.76 181.63 150.84V155.92C181.634 156.469 181.678 157.017 181.76 157.56H179.2C179.127 157.151 179.09 156.736 179.09 156.32C178.762 156.81 178.315 157.208 177.789 157.476C177.264 157.744 176.679 157.873 176.09 157.85C175.65 157.89 175.208 157.84 174.788 157.703C174.368 157.567 173.981 157.346 173.649 157.055C173.317 156.765 173.048 156.41 172.857 156.012C172.666 155.614 172.558 155.181 172.54 154.74C172.53 152.89 173.89 151.86 175.61 151.61ZM178.93 153.37V152.91L176.6 153.27C176.259 153.275 175.933 153.415 175.694 153.658C175.454 153.901 175.32 154.229 175.32 154.57C175.32 154.74 175.356 154.907 175.426 155.062C175.495 155.217 175.596 155.355 175.723 155.469C175.849 155.582 175.998 155.667 176.159 155.719C176.321 155.771 176.491 155.788 176.66 155.77C176.977 155.799 177.296 155.756 177.594 155.644C177.892 155.532 178.16 155.353 178.378 155.122C178.597 154.891 178.76 154.613 178.856 154.31C178.951 154.006 178.977 153.685 178.93 153.37Z" fill="#58595B"/>
<path d="M189.92 146.09V147.22H192.25V149.61H189.92V157.55H187.1V149.61H185.38V147.22H187.1V146.04C187.059 145.532 187.128 145.022 187.301 144.543C187.474 144.063 187.748 143.627 188.105 143.263C188.461 142.899 188.892 142.616 189.367 142.432C189.842 142.249 190.351 142.17 190.86 142.2C191.329 142.19 191.796 142.261 192.24 142.41V144.76C191.953 144.686 191.657 144.652 191.36 144.66C191.167 144.64 190.972 144.663 190.788 144.728C190.605 144.792 190.439 144.897 190.301 145.034C190.163 145.17 190.057 145.336 189.991 145.519C189.926 145.702 189.901 145.897 189.92 146.09Z" fill="#58595B"/>
<path d="M208.08 151.82H206.57V157.55H203.65V142.67H209.47C210.09 142.631 210.71 142.721 211.293 142.935C211.876 143.149 212.407 143.482 212.854 143.913C213.301 144.344 213.653 144.863 213.888 145.438C214.124 146.012 214.237 146.629 214.22 147.25C214.254 148.221 213.953 149.174 213.366 149.948C212.78 150.722 211.944 151.27 211 151.5L214.19 157.59H211L208.08 151.82ZM208.92 149.32C209.209 149.348 209.501 149.316 209.776 149.225C210.052 149.134 210.306 148.986 210.521 148.791C210.736 148.596 210.908 148.358 211.025 148.093C211.143 147.827 211.204 147.54 211.204 147.25C211.204 146.96 211.143 146.673 211.025 146.407C210.908 146.142 210.736 145.904 210.521 145.709C210.306 145.514 210.052 145.366 209.776 145.275C209.501 145.184 209.209 145.152 208.92 145.18H206.57V149.32H208.92Z" fill="#58595B"/>
<path d="M228.43 152.39C228.418 153.459 228.09 154.501 227.488 155.385C226.885 156.268 226.034 156.954 225.043 157.355C224.052 157.756 222.964 157.854 221.916 157.639C220.869 157.423 219.909 156.902 219.157 156.141C218.405 155.381 217.894 154.415 217.69 153.366C217.486 152.316 217.597 151.229 218.009 150.242C218.421 149.255 219.115 148.412 220.005 147.82C220.895 147.227 221.941 146.91 223.01 146.91C223.731 146.893 224.449 147.024 225.118 147.294C225.787 147.565 226.394 147.969 226.901 148.482C227.409 148.995 227.806 149.606 228.069 150.278C228.332 150.95 228.455 151.669 228.43 152.39ZM225.64 152.39C225.582 151.884 225.379 151.406 225.056 151.013C224.733 150.62 224.302 150.329 223.817 150.174C223.332 150.02 222.813 150.009 222.322 150.143C221.831 150.277 221.389 150.551 221.049 150.93C220.71 151.309 220.488 151.779 220.409 152.282C220.33 152.785 220.398 153.3 220.606 153.765C220.813 154.23 221.15 154.625 221.577 154.902C222.003 155.18 222.501 155.329 223.01 155.33C223.382 155.33 223.75 155.251 224.09 155.098C224.429 154.946 224.733 154.724 224.981 154.447C225.229 154.17 225.416 153.843 225.53 153.489C225.643 153.134 225.681 152.76 225.64 152.39Z" fill="#58595B"/>
<path d="M232.86 161.63L235.3 156.26L230.91 147.26H234L236.75 153.26L239.29 147.26H242.29L235.8 161.66L232.86 161.63Z" fill="#58595B"/>
<path d="M248.25 151.61L250.79 151.23C251.38 151.15 251.57 150.85 251.57 150.5C251.57 149.77 251 149.16 249.83 149.16C249.588 149.137 249.344 149.162 249.111 149.234C248.879 149.306 248.664 149.424 248.477 149.58C248.291 149.737 248.138 149.929 248.027 150.145C247.916 150.361 247.849 150.598 247.83 150.84L245.35 150.31C245.52 148.69 247.01 146.91 249.78 146.91C253.06 146.91 254.27 148.76 254.27 150.84V155.92C254.274 156.469 254.318 157.017 254.4 157.56H251.84C251.767 157.151 251.73 156.736 251.73 156.32C251.402 156.81 250.955 157.208 250.429 157.476C249.904 157.744 249.319 157.873 248.73 157.85C248.291 157.89 247.848 157.84 247.428 157.703C247.008 157.567 246.621 157.346 246.289 157.055C245.957 156.765 245.688 156.41 245.497 156.012C245.306 155.614 245.199 155.181 245.18 154.74C245.17 152.89 246.53 151.86 248.25 151.61ZM251.57 153.37V152.91L249.24 153.27C248.899 153.275 248.573 153.415 248.334 153.658C248.094 153.901 247.96 154.229 247.96 154.57C247.96 154.74 247.996 154.907 248.066 155.062C248.135 155.217 248.236 155.355 248.363 155.469C248.489 155.582 248.638 155.667 248.799 155.719C248.961 155.771 249.131 155.788 249.3 155.77C249.617 155.799 249.936 155.756 250.234 155.644C250.532 155.532 250.8 155.353 251.019 155.122C251.237 154.891 251.4 154.613 251.496 154.31C251.591 154.006 251.617 153.685 251.57 153.37Z" fill="#58595B"/>
<path d="M259.22 157.55V142.35H262V157.55H259.22Z" fill="#58595B"/>
</g>
<defs>
<clipPath id="clip0_3363_8682">
<rect width="400.49" height="178.13" fill="white" transform="translate(0 0.5)"/>
</clipPath>
</defs>
</svg>
