<?xml version="1.0" standalone="no"?>
<!DOCTYPE svg PUBLIC "-//W3C//DTD SVG 20010904//EN"
 "http://www.w3.org/TR/2001/REC-SVG-20010904/DTD/svg10.dtd">
<svg version="1.0" xmlns="http://www.w3.org/2000/svg"
 width="100.000000pt" height="100.000000pt" viewBox="0 0 100.000000 100.000000"
 preserveAspectRatio="xMidYMid meet">
<metadata>
Created by potrace 1.14, written by Peter Selinger 2001-2017
</metadata>
<g transform="translate(0.000000,100.000000) scale(0.100000,-0.100000)"
fill="#000000" stroke="none">
<path d="M345 741 c-9 -28 22 -81 36 -60 13 21 11 34 -10 60 l-18 23 -8 -23z"/>
<path d="M506 725 c-68 -36 -106 -59 -106 -66 0 -5 29 -24 65 -44 l65 -37 66
37 c36 20 64 41 62 47 -2 5 -31 25 -64 44 -56 31 -61 33 -88 19z m80 -47 c12
-39 -64 -66 -106 -38 -11 8 -8 9 13 4 15 -3 39 -3 53 0 22 6 25 11 20 31 -8
31 10 33 20 3z m-46 2 c0 -5 -2 -10 -4 -10 -3 0 -8 5 -11 10 -3 6 -1 10 4 10
6 0 11 -4 11 -10z m-35 -10 c3 -5 1 -10 -4 -10 -6 0 -11 5 -11 10 0 6 2 10 4
10 3 0 8 -4 11 -10z"/>
<path d="M243 692 c-10 -6 -9 -13 2 -30 18 -24 75 -38 101 -24 16 9 15 12 -9
36 -26 26 -69 34 -94 18z"/>
<path d="M370 558 c0 -40 4 -78 8 -84 7 -10 128 -84 138 -84 7 0 4 144 -4 156
-7 10 -128 84 -138 84 -2 0 -4 -33 -4 -72z m85 -28 c14 -22 25 -49 25 -60 0
-30 -27 -24 -44 9 -14 26 -14 30 0 35 12 4 13 10 4 26 -14 27 -34 26 -27 -1 4
-16 3 -19 -5 -11 -12 12 -4 42 12 42 5 0 21 -18 35 -40z"/>
<path d="M633 597 c-32 -19 -53 -39 -53 -49 0 -20 32 -20 52 0 17 17 38 15 38
-3 0 -8 -10 -31 -22 -50 -18 -28 -28 -34 -45 -30 -20 5 -23 1 -23 -25 l0 -30
50 25 c28 14 53 32 56 39 3 7 4 45 2 84 l-3 70 -52 -31z"/>
<path d="M157 614 c-4 -4 -7 -15 -7 -25 0 -16 11 -19 98 -21 89 -3 97 -5 97
-23 0 -18 -8 -20 -63 -23 -59 -3 -63 -5 -60 -25 2 -18 10 -23 46 -25 34 -3 42
-7 42 -22 0 -18 -10 -20 -122 -22 -115 -3 -123 -4 -123 -23 0 -18 8 -20 90
-23 90 -3 115 -13 93 -39 -6 -7 -26 -13 -45 -13 -36 0 -57 -25 -32 -41 8 -5
58 -9 112 -9 84 0 100 -3 117 -20 26 -26 74 -26 100 0 18 18 33 20 136 20 101
0 119 -3 141 -20 14 -11 36 -20 48 -20 12 0 34 9 48 20 14 11 34 20 45 20 39
0 52 11 52 46 0 28 -4 34 -20 34 -11 0 -23 7 -27 16 -7 18 15 36 35 29 6 -2
12 2 12 10 0 15 -41 51 -69 60 -10 3 -27 24 -37 47 -33 74 -50 88 -104 88
l-49 0 -3 -76 -3 -77 -87 -49 -87 -50 -85 49 -85 48 -3 80 -3 80 -95 3 c-53 1
-99 0 -103 -4z m668 -84 l25 -50 -65 0 -65 0 0 50 0 50 40 0 c38 0 41 -3 65
-50z m-347 -211 c3 -28 -16 -43 -43 -33 -15 6 -21 45 -8 58 16 16 48 1 51 -25z
m379 15 c7 -18 -6 -45 -24 -51 -6 -2 -18 3 -27 12 -12 12 -13 21 -6 36 13 23
48 25 57 3z"/>
<path d="M33 504 c-8 -22 14 -34 68 -34 47 0 77 19 64 40 -3 5 -33 10 -66 10
-45 0 -61 -4 -66 -16z"/>
</g>
</svg>
