<svg width="327" height="118" viewBox="0 0 327 118" fill="none" xmlns="http://www.w3.org/2000/svg">
<g clip-path="url(#clip0_60_469)">
<path d="M24.7198 17.3672V31.6229H11.1258V17.3672H0.5V55.4681H11.1258V40.9983H24.7629V55.4681H35.3456V17.3672H24.7198Z" fill="url(#paint0_linear_60_469)"/>
<path d="M70.1482 41.4692C70.1482 32.8216 65.4591 25.3727 55.2205 25.3727C46.4876 25.3727 40.2928 32.1795 40.2928 40.7843V40.9127C40.2928 50.0741 46.8748 56.1959 56.167 56.1959C62.0606 56.1959 66.1904 53.7986 69.0297 50.2025L63.2651 45.4506C61.1142 47.5055 59.1783 48.4473 56.6832 48.4473C53.4567 48.4473 51.0907 46.8205 50.2733 43.6098H70.0622C70.1482 42.882 70.1482 42.1542 70.1482 41.4692ZM50.1443 38.3013C50.7035 35.0905 52.5533 32.95 55.3066 32.95C58.1458 32.95 60.0817 35.0049 60.4259 38.3013H50.1443Z" fill="url(#paint1_linear_60_469)"/>
<path d="M98.8851 29.1827C96.519 26.8282 92.9054 25.5867 87.614 25.5867C82.5377 25.5867 78.9671 26.5285 75.6547 27.8556L77.8056 35.1334C80.4298 34.1059 82.8389 33.5066 85.9363 33.5066C89.9371 33.5066 91.8299 35.2618 91.8299 38.3013V38.7722C90.1521 38.1729 87.4419 37.6163 84.7317 37.6163C77.8056 37.6163 73.1165 40.7843 73.1165 46.8633V46.9918C73.1165 52.8567 77.4184 56.0675 83.054 56.0675C86.9257 56.0675 89.722 54.6119 91.7439 52.3858V55.4253H102.025V38.5582C102.025 34.4056 101.122 31.3661 98.8851 29.1827ZM91.9159 44.8084C91.9159 47.7623 89.765 49.646 86.7536 49.646C84.6027 49.646 83.097 48.4473 83.097 46.4352V46.3068C83.097 44.1235 84.8608 42.6679 87.8721 42.6679C89.4208 42.6679 90.8835 43.0104 91.9159 43.4385V44.8084Z" fill="url(#paint2_linear_60_469)"/>
<path d="M107.575 15.7404V55.4682H117.943V15.7404H107.575Z" fill="url(#paint3_linear_60_469)"/>
<path d="M142.851 34.3628V26.0148H135.968V18.5659H125.557V26.0148H122.072V34.32H125.557V46.3068C125.557 53.3277 129.257 56.0675 135.494 56.0675C138.377 56.0675 140.872 55.4254 142.722 54.3979V46.3068C141.474 46.9061 140.141 47.2914 138.764 47.2914C136.828 47.2914 135.925 46.4352 135.925 44.3375V34.3628H142.851Z" fill="url(#paint4_linear_60_469)"/>
<path d="M166.554 25.3727C162.338 25.3727 159.628 27.5988 157.692 30.039V15.7404H147.325V55.4682H157.692V39.5C157.692 36.2892 159.542 34.534 162.08 34.534C164.532 34.534 166.253 36.2892 166.253 39.5V55.4682H176.664V36.2036C176.621 29.5252 172.835 25.3727 166.554 25.3727Z" fill="url(#paint5_linear_60_469)"/>
<path d="M201.357 26.0148L195.764 43.7382L189.871 26.0148H178.987L190.602 54.9116C189.957 55.8534 189.226 56.1103 188.193 56.1103C187.032 56.1103 185.311 55.511 183.676 54.5263L180.45 61.7612C183.203 63.3024 186.3 64.3298 189.957 64.3298C195.85 64.3298 198.647 61.59 201.228 54.7404L212.069 26.0148H201.357Z" fill="url(#paint6_linear_60_469)"/>
<path d="M128.31 66.2563L121.04 90.3156L112.995 66.1707H103.058L95.0133 90.3156L87.743 66.2563H75.5256L89.4638 108.125H99.5303L107.876 84.1937L116.265 108.125H126.331L140.27 66.2563H128.31Z" fill="#404553"/>
<path d="M171.502 92.5417C171.502 83.1235 166.382 74.9896 155.197 74.9896C145.647 74.9896 138.893 82.3957 138.893 91.7711V91.8996C138.893 101.874 146.034 108.595 156.187 108.595C162.64 108.595 167.114 105.984 170.211 102.046L163.973 96.8655C161.65 99.1345 159.499 100.119 156.832 100.119C153.304 100.119 150.766 98.3211 149.863 94.8534H171.459C171.502 94.0829 171.502 93.2695 171.502 92.5417ZM149.691 89.1169C150.293 85.6065 152.315 83.2947 155.283 83.2947C158.381 83.2947 160.489 85.5637 160.876 89.1169H149.691Z" fill="#404553"/>
<path d="M202.82 79.1421C200.238 76.5735 196.324 75.2036 190.516 75.2036C184.967 75.2036 181.095 76.2311 177.438 77.6866L179.761 85.6493C182.644 84.5362 185.268 83.8513 188.666 83.8513C193.011 83.8513 195.119 85.7349 195.119 89.0741V89.6306C193.269 88.9885 190.344 88.3891 187.376 88.3891C179.804 88.3891 174.728 91.8139 174.728 98.4923V98.6207C174.728 105.042 179.46 108.51 185.569 108.51C189.785 108.51 192.839 106.926 195.033 104.486V107.825H206.261V89.3738C206.261 84.8359 205.272 81.4967 202.82 79.1421ZM195.248 96.1806C195.248 99.3913 192.925 101.446 189.656 101.446C187.333 101.446 185.655 100.162 185.655 97.9358V97.8073C185.655 95.4528 187.548 93.826 190.86 93.826C192.538 93.826 194.13 94.1685 195.291 94.6394V96.1806H195.248Z" fill="#404553"/>
<path d="M212.284 64.4583V107.782H223.598V64.4583H212.284Z" fill="#404553"/>
<path d="M250.786 84.7931V75.7174H243.258V67.5834H231.944V75.7174H228.115V84.7931H231.944V97.8502C231.944 105.513 235.987 108.467 242.785 108.467C245.968 108.467 248.635 107.739 250.657 106.626V97.7646C249.28 98.4067 247.861 98.8348 246.355 98.8348C244.29 98.8348 243.258 97.893 243.258 95.6241V84.7503H250.786V84.7931Z" fill="#404553"/>
<path d="M276.641 74.9896C272.038 74.9896 269.069 77.4297 266.961 80.084V64.4583H255.647V107.782H266.961V90.4012C266.961 86.8908 268.983 85.0071 271.736 85.0071C274.404 85.0071 276.253 86.8908 276.253 90.4012V107.782H287.568V86.7623C287.611 79.4846 283.524 74.9896 276.641 74.9896Z" fill="#404553"/>
<path d="M314.584 75.6745L308.518 95.0247L302.065 75.6745H290.192L302.839 107.183C302.108 108.21 301.334 108.467 300.215 108.467C298.968 108.467 297.075 107.825 295.268 106.755L291.74 114.632C294.709 116.301 298.107 117.414 302.108 117.414C308.561 117.414 311.572 114.46 314.412 106.969L326.242 75.6317H314.584V75.6745Z" fill="#404553"/>
<path d="M232.933 31.0664C232.933 32.6076 231.686 33.8491 230.137 33.8491H219.64C218.866 33.8491 218.177 33.5494 217.661 33.0357C217.145 32.522 216.844 31.837 216.844 31.0664C216.844 29.5253 218.091 28.3266 219.64 28.3266H230.137C230.911 28.3266 231.599 28.6262 232.116 29.14C232.632 29.6537 232.933 30.3386 232.933 31.0664Z" fill="#404553"/>
<path d="M230.352 20.0642C230.352 18.5659 231.599 17.3244 233.148 17.3244H233.019C231.513 17.3244 230.223 18.5659 230.223 20.0642C230.223 20.8348 230.524 21.5198 231.04 22.0335C231.556 22.5472 232.245 22.8469 233.019 22.8469H233.148C232.374 22.8469 231.686 22.5472 231.169 22.0335C230.653 21.5198 230.352 20.8348 230.352 20.0642ZM231.643 53.1564C231.643 51.6153 232.89 50.3738 234.439 50.3738H234.31C232.761 50.3738 231.513 51.6153 231.513 53.1564C231.513 53.927 231.815 54.612 232.331 55.0829C232.804 55.5966 233.535 55.8963 234.31 55.8963H234.439C233.664 55.8963 232.976 55.5966 232.46 55.0829C231.944 54.612 231.643 53.927 231.643 53.1564ZM238.44 31.0664C238.44 29.5681 239.687 28.3266 241.236 28.3266H241.107C239.601 28.3266 238.31 29.5681 238.31 31.0664C238.31 31.837 238.612 32.522 239.128 33.0357C239.644 33.5494 240.332 33.8491 241.107 33.8491H241.236C240.461 33.8491 239.773 33.5494 239.257 33.0357C238.784 32.522 238.44 31.837 238.44 31.0664ZM242.397 45.6647C241.924 45.1509 241.236 44.8513 240.461 44.8513H240.332C241.107 44.8513 241.795 45.1509 242.268 45.6647C242.784 46.1784 243.086 46.8633 243.086 47.6339C243.086 49.1323 241.838 50.3738 240.332 50.3738H240.461C242.01 50.3738 243.215 49.1323 243.215 47.6339C243.215 46.8633 242.871 46.1784 242.397 45.6647ZM248.85 34.6625C248.377 34.1487 247.689 33.8491 246.914 33.8491H246.785C247.56 33.8491 248.248 34.1487 248.721 34.6625C249.237 35.1334 249.539 35.8611 249.539 36.5889C249.539 38.0873 248.291 39.3288 246.785 39.3288H246.914C248.463 39.3288 249.668 38.0873 249.668 36.5889C249.625 35.8183 249.323 35.1334 248.85 34.6625ZM253.496 23.6174C253.023 23.1037 252.292 22.8041 251.56 22.8041H251.431C252.206 22.8041 252.894 23.1037 253.367 23.6174C253.883 24.1312 254.185 24.8161 254.185 25.5439C254.185 27.0851 252.937 28.3266 251.431 28.3266H251.56C253.109 28.3266 254.314 27.0851 254.314 25.5439C254.314 24.8161 254.013 24.1312 253.496 23.6174ZM326.371 41.3408C326.371 41.298 326.371 41.298 326.371 41.298L325.941 41.5977C325.941 41.6405 325.941 41.6833 325.941 41.7261H326.414C326.414 41.5977 326.414 41.4693 326.371 41.3408ZM325.984 46.9061C325.984 47.7623 325.941 48.4045 325.941 48.4045H326.5C326.5 48.4045 326.5 47.9764 326.5 46.9061H325.984ZM293.848 17.2816H290.45L278.534 24.1312C277.63 24.6877 277.028 25.6295 277.028 26.6998V36.8458V42.6679C277.028 43.3101 277.716 43.6954 278.275 43.3957L289.719 36.8886L291.525 35.8611C292.988 35.0477 293.848 33.5066 293.848 31.837V17.2816ZM280.469 33.421C279.308 32.8644 279.308 30.9808 280.469 29.2256C281.072 28.3266 281.803 27.6416 282.577 27.2135C283.352 26.8282 284.083 26.6998 284.685 26.9566L285.331 27.2563L283.739 29.6965L282.749 29.2256L283.438 28.1981L281.072 29.4396V31.7942L281.76 30.7667L282.792 31.2376C282.19 32.4363 282.104 33.635 282.534 34.32L280.469 33.421ZM290.579 28.0697L287.955 32.0939L287.309 33.0785L285.503 35.8611L283.395 34.8765C283.266 34.8337 283.18 34.7481 283.094 34.7053C282.362 34.1059 282.319 32.7788 282.964 31.4089C283.094 31.152 283.223 30.8952 283.395 30.6811L283.911 29.8677L285.503 27.4275L286.363 26.1432C287.482 24.4308 289.331 23.4034 290.493 23.8743C290.536 23.8743 290.536 23.9171 290.579 23.9171C291.74 24.4308 291.74 26.3145 290.579 28.0697Z" fill="#404553"/>
<path d="M325.941 48.3617C325.941 48.3617 325.941 47.7195 325.984 46.8633H322.628C321.209 46.8633 320.047 45.7075 320.047 44.2947C320.047 42.882 321.209 41.7261 322.628 41.7261H325.984C325.984 41.6833 325.984 41.6405 325.984 41.5977L326.414 41.298C325.984 38.7294 324.263 36.5033 321.811 35.4758L316.778 33.3353L311.228 22.2903C309.679 19.208 306.582 17.3244 303.141 17.3244H295.44V34.7909C295.44 35.2618 295.182 35.7327 294.752 35.9896L275.909 46.8205C275.479 47.0774 274.963 47.0774 274.533 46.8205L260.767 38.9007L255.647 35.9468C255.217 35.6899 254.959 35.2618 254.959 34.7481V17.2816H233.105C231.599 17.2816 230.309 18.523 230.309 20.0214C230.309 20.792 230.61 21.4769 231.126 21.9907C231.642 22.5044 232.331 22.8041 233.105 22.8041H251.517C252.292 22.8041 252.98 23.1037 253.453 23.6174C253.969 24.1312 254.271 24.8161 254.271 25.5439C254.271 27.0851 253.023 28.3266 251.517 28.3266H241.193C239.644 28.3266 238.397 29.5681 238.397 31.0664C238.397 31.837 238.698 32.522 239.214 33.0357C239.73 33.5494 240.418 33.8491 241.193 33.8491H246.828C247.603 33.8491 248.291 34.1487 248.764 34.6625C249.28 35.1334 249.582 35.8611 249.582 36.5889C249.582 38.0873 248.334 39.3288 246.828 39.3288H222.694C221.189 39.3288 219.941 40.5702 219.941 42.0686C219.941 42.8392 220.242 43.5241 220.759 43.9951C221.232 44.5088 221.92 44.8085 222.694 44.8085H240.375C241.15 44.8085 241.838 45.1081 242.311 45.6218C242.827 46.1356 243.129 46.8205 243.129 47.5911C243.129 49.0895 241.881 50.331 240.375 50.331H234.396C232.847 50.331 231.599 51.5724 231.599 53.1136C231.599 53.8842 231.901 54.5692 232.417 55.0401C232.89 55.5538 233.621 55.8535 234.396 55.8535H257.497C258.96 58.893 262.057 60.9907 265.671 60.9907C269.284 60.9907 272.382 58.893 273.844 55.8535H301.463C302.925 58.893 306.023 60.9907 309.636 60.9907C313.25 60.9907 316.347 58.893 317.81 55.8535H323.833C325.252 55.8535 326.414 54.6976 326.414 53.2849V48.3617H325.941ZM265.714 55.8963C263.563 55.8963 261.842 54.1839 261.842 52.0434C261.842 49.9029 263.563 48.1904 265.714 48.1904C267.865 48.1904 269.585 49.9029 269.585 52.0434C269.585 54.141 267.865 55.8963 265.714 55.8963ZM297.075 33.5922C297.075 33.5922 296.774 21.4341 296.774 21.3913L304.216 21.3057C305.464 21.3057 306.625 21.905 307.227 22.9753L312.691 33.5494H297.075V33.5922ZM309.679 55.8963C307.528 55.8963 305.808 54.1839 305.808 52.0434C305.808 49.9029 307.528 48.1904 309.679 48.1904C311.83 48.1904 313.551 49.9029 313.551 52.0434C313.551 54.141 311.83 55.8963 309.679 55.8963Z" fill="#404553"/>
<path d="M255.26 14.1564C255.26 14.1564 255.131 14.1992 254.959 14.2848V13.3858C255.045 13.5143 255.088 13.6427 255.131 13.7283C255.217 13.9852 255.26 14.1564 255.26 14.1564Z" fill="white"/>
<path d="M257.626 11.2025C257.626 11.2025 257.497 11.1597 257.282 11.0313L258.013 10.6032C257.884 10.7744 257.755 10.9885 257.626 11.2025Z" fill="white"/>
<path d="M293.848 17.2816V16.7678C293.848 16.1257 293.16 15.7404 292.601 16.0829L290.45 17.3244L278.534 24.174C277.63 24.7305 277.028 25.6723 277.028 26.7426V36.8886V42.7108C277.028 43.3529 277.716 43.7382 278.275 43.4385L289.719 36.8886L291.525 35.8612C292.988 35.0478 293.848 33.5066 293.848 31.837V17.2816ZM280.469 33.421C279.308 32.8644 279.308 30.9808 280.469 29.2256C281.072 28.3266 281.803 27.6416 282.577 27.2135C283.352 26.8282 284.083 26.6998 284.685 26.9567L285.331 27.2563L283.739 29.6965L282.749 29.2256L283.438 28.1981L281.072 29.4396V31.7942L281.76 30.7668L282.792 31.2377C282.19 32.4363 282.104 33.635 282.534 34.32L280.469 33.421ZM290.579 28.0697L287.955 32.0939L287.309 33.0785L285.503 35.8612L283.395 34.8765C283.266 34.8337 283.18 34.7481 283.094 34.7053C282.362 34.1059 282.319 32.7788 282.964 31.4089C283.094 31.152 283.223 30.8952 283.395 30.6811L283.911 29.8677L285.503 27.4276L286.363 26.1433C287.482 24.4309 289.331 23.4034 290.493 23.8743C290.536 23.8743 290.536 23.9171 290.579 23.9171C291.74 24.4309 291.74 26.3145 290.579 28.0697Z" fill="white"/>
<path d="M293.848 17.2816V16.7678C293.848 16.1257 293.16 15.7404 292.601 16.0829L290.45 17.3244L278.534 24.174C277.63 24.7305 277.028 25.6723 277.028 26.7426V36.8886V42.7108C277.028 43.3529 277.716 43.7382 278.275 43.4385L289.719 36.8886L291.525 35.8612C292.988 35.0478 293.848 33.5066 293.848 31.837V17.2816ZM280.469 33.421C279.308 32.8644 279.308 30.9808 280.469 29.2256C281.072 28.3266 281.803 27.6416 282.577 27.2135C283.352 26.8282 284.083 26.6998 284.685 26.9567L285.331 27.2563L283.739 29.6965L282.749 29.2256L283.438 28.1981L281.072 29.4396V31.7942L281.76 30.7668L282.792 31.2377C282.19 32.4363 282.104 33.635 282.534 34.32L280.469 33.421ZM290.579 28.0697L287.955 32.0939L287.309 33.0785L285.503 35.8612L283.395 34.8765C283.266 34.8337 283.18 34.7481 283.094 34.7053C282.362 34.1059 282.319 32.7788 282.964 31.4089C283.094 31.152 283.223 30.8952 283.395 30.6811L283.911 29.8677L285.503 27.4276L286.363 26.1433C287.482 24.4309 289.331 23.4034 290.493 23.8743C290.536 23.8743 290.536 23.9171 290.579 23.9171C291.74 24.4309 291.74 26.3145 290.579 28.0697Z" fill="url(#paint7_linear_60_469)"/>
<path d="M255.26 14.1564C255.26 14.1564 255.131 14.1992 254.959 14.2849C254.959 14.2849 254.959 14.2849 254.916 14.2849C254.916 14.2421 254.916 14.1992 254.959 14.1992C255.002 14.028 255.045 13.8996 255.131 13.7283C255.217 13.9852 255.26 14.1564 255.26 14.1564Z" fill="white"/>
<path d="M290.665 11.5022L277.587 3.9248C276.167 3.11141 274.361 3.11141 272.898 3.9248L259.648 11.5878C259.089 11.9303 259.089 12.7009 259.648 13.0434L267.09 17.3244L273.543 21.006C274.447 21.5626 275.608 21.5626 276.512 21.006L282.964 17.3244L290.665 12.9149C291.224 12.6153 291.224 11.8019 290.665 11.5022ZM273.113 8.163C273.242 8.03457 273.414 7.99176 273.586 7.99176C273.715 7.99176 273.801 8.03457 273.93 8.07738L275.995 9.23325C276.383 9.4473 276.469 10.0038 276.124 10.3463L276.038 10.4319C275.823 10.646 275.479 10.6888 275.221 10.5176L273.242 9.27606C272.855 9.0192 272.769 8.46267 273.113 8.163ZM270.059 10.2179C270.188 10.0895 270.36 10.0466 270.532 10.0466C270.661 10.0466 270.79 10.0895 270.876 10.1323L272.941 11.2881C273.371 11.5022 273.414 12.0587 273.07 12.4012L272.984 12.4868C272.769 12.7009 272.425 12.7437 272.124 12.5724L270.145 11.3309C269.758 11.0741 269.715 10.5176 270.059 10.2179ZM281.459 12.7437C278.835 16.8106 272.812 15.6548 270.876 15.2267C268.983 14.7986 268.123 14.3277 268.338 13.8139C268.553 13.3002 269.413 13.4286 270.274 13.6855C271.134 13.9424 270.575 13.8567 272.898 14.3277C275.221 14.7558 279.781 13.8139 279.996 11.3738C280.168 9.66135 278.534 8.67672 278.534 8.67672C278.275 8.41986 277.931 8.163 278.103 7.77771C278.318 7.34961 279.222 7.52085 279.609 7.69209C280.039 7.82052 283.18 10.0895 281.459 12.7437Z" fill="#C62116"/>
<path d="M271.263 23.489L265.327 20.107L260.379 17.2816L257.97 15.9116C257.411 15.612 256.723 15.9973 256.723 16.6394V17.2816V32.6076C256.723 33.6778 257.282 34.6625 258.228 35.1762L260.939 36.7173L261.24 36.8886L272.296 43.2245C272.855 43.5241 273.543 43.1389 273.543 42.5395V36.7173V27.4704C273.586 25.8864 272.726 24.3452 271.263 23.489ZM268.553 36.0752C267.392 36.7173 265.929 36.3321 265.241 35.1762L262.745 30.8095L260.293 26.4857C259.648 25.3299 260.035 23.8315 261.197 23.1894C261.584 22.9753 261.971 22.8897 262.401 22.8897C263.176 22.8897 263.95 23.275 264.423 23.9599C264.466 24.0027 264.509 24.0456 264.509 24.1312L269.456 32.8644C270.102 33.9775 269.715 35.433 268.553 36.0752Z" fill="#404553"/>
<path d="M265.972 28.3266L263.09 29.9961L262.788 29.4396L260.939 26.186C260.508 25.3727 260.767 24.388 261.584 23.9171C261.842 23.7887 262.143 23.7031 262.401 23.7031C263.004 23.7031 263.563 24.0027 263.864 24.5593L263.95 24.7305L265.972 28.3266Z" fill="#404553"/>
<path d="M258.013 10.5604C257.884 10.7744 257.755 10.9885 257.626 11.1597C257.626 11.1597 257.497 11.1169 257.282 10.9885C255.776 10.1751 250.098 6.70746 254.142 0.5C254.142 0.5 257.54 1.82711 258.314 4.52415C259.003 6.8787 258.96 8.89078 258.013 10.5604Z" fill="#E88408"/>
<path d="M255.26 14.1564C255.26 14.1564 255.131 14.1992 254.959 14.2849C254.959 14.2849 254.959 14.2849 254.916 14.2849C253.883 14.713 250.657 15.9116 246.613 15.0554C241.666 14.028 240.246 9.27607 240.246 9.27607C240.246 9.27607 241.623 7.52086 247.388 7.77772C251.905 7.99177 254.142 11.7162 254.916 13.343C255.002 13.4715 255.045 13.5999 255.088 13.6855C255.217 13.9852 255.26 14.1564 255.26 14.1564Z" fill="#C62116"/>
<path d="M326.5 46.9061C326.5 47.9764 326.5 48.4045 326.5 48.4045H325.941C325.941 48.4045 325.941 47.7623 325.984 46.9061C326.027 45.1937 326.07 42.4967 325.984 41.7689C325.984 41.7261 325.984 41.6833 325.984 41.6405L326.414 41.3408V41.3836V41.4264V41.8117C326.414 41.7261 326.5 45.7931 326.5 46.9061Z" fill="#404553"/>
</g>
<defs>
<linearGradient id="paint0_linear_60_469" x1="209.318" y1="36.4176" x2="0.141524" y2="36.4176" gradientUnits="userSpaceOnUse">
<stop stop-color="#FAB900"/>
<stop offset="1" stop-color="#C31718"/>
</linearGradient>
<linearGradient id="paint1_linear_60_469" x1="209.331" y1="40.7693" x2="0.13716" y2="40.7693" gradientUnits="userSpaceOnUse">
<stop stop-color="#FAB900"/>
<stop offset="1" stop-color="#C31718"/>
</linearGradient>
<linearGradient id="paint2_linear_60_469" x1="209.314" y1="40.8506" x2="0.144313" y2="40.8506" gradientUnits="userSpaceOnUse">
<stop stop-color="#FAB900"/>
<stop offset="1" stop-color="#C31718"/>
</linearGradient>
<linearGradient id="paint3_linear_60_469" x1="209.318" y1="35.6021" x2="0.145186" y2="35.6021" gradientUnits="userSpaceOnUse">
<stop stop-color="#FAB900"/>
<stop offset="1" stop-color="#C31718"/>
</linearGradient>
<linearGradient id="paint4_linear_60_469" x1="209.318" y1="37.3167" x2="0.145548" y2="37.3167" gradientUnits="userSpaceOnUse">
<stop stop-color="#FAB900"/>
<stop offset="1" stop-color="#C31718"/>
</linearGradient>
<linearGradient id="paint5_linear_60_469" x1="209.322" y1="35.6021" x2="0.148773" y2="35.6021" gradientUnits="userSpaceOnUse">
<stop stop-color="#FAB900"/>
<stop offset="1" stop-color="#C31718"/>
</linearGradient>
<linearGradient id="paint6_linear_60_469" x1="209.322" y1="45.1787" x2="0.133153" y2="45.1787" gradientUnits="userSpaceOnUse">
<stop stop-color="#FAB900"/>
<stop offset="1" stop-color="#C31718"/>
</linearGradient>
<linearGradient id="paint7_linear_60_469" x1="277.024" y1="29.7516" x2="293.878" y2="29.7516" gradientUnits="userSpaceOnUse">
<stop stop-color="#FAB900"/>
<stop offset="1" stop-color="#C31718"/>
</linearGradient>
<clipPath id="clip0_60_469">
<rect width="326" height="117" fill="white" transform="translate(0.5 0.5)"/>
</clipPath>
</defs>
</svg>
