<svg width="120" height="120" viewBox="0 0 120 120" fill="none" xmlns="http://www.w3.org/2000/svg">
<g clip-path="url(#clip0_4101_244)">
<path d="M120 60C120 26.8629 93.1371 0 60 0C26.8629 0 0 26.8629 0 60C0 93.1371 26.8629 120 60 120C93.1371 120 120 93.1371 120 60Z" fill="black"/>
<path fill-rule="evenodd" clip-rule="evenodd" d="M51.0411 55.3275C51.7829 55.2532 52.524 55.4764 53.1013 55.9483C53.6786 56.4201 54.045 57.1019 54.1198 57.8438L55.9948 76.5938C56.0418 76.9661 56.0137 77.3441 55.9123 77.7055C55.8109 78.0669 55.6382 78.4043 55.4044 78.6979C55.1706 78.9915 54.8804 79.2353 54.5509 79.415C54.2213 79.5946 53.8592 79.7066 53.4858 79.7441C53.1123 79.7816 52.7351 79.7441 52.3764 79.6336C52.0178 79.5231 51.6848 79.3419 51.3972 79.1007C51.1096 78.8596 50.8732 78.5633 50.7019 78.2293C50.5306 77.8954 50.4279 77.5305 50.3998 77.1563L48.5248 58.4063C48.4505 57.6644 48.6737 56.9233 49.1456 56.346C49.6174 55.7687 50.2992 55.4023 51.0411 55.3275ZM70.3536 55.3275C71.0947 55.4024 71.7759 55.7682 72.2476 56.3446C72.7193 56.9211 72.9431 57.6612 72.8698 58.4025L70.9948 77.1525C70.9679 77.5275 70.866 77.8932 70.6953 78.2281C70.5246 78.563 70.2884 78.8603 70.0009 79.1024C69.7133 79.3445 69.3801 79.5265 69.021 79.6376C68.6619 79.7488 68.2841 79.7868 67.9101 79.7494C67.536 79.7121 67.1732 79.6001 66.8432 79.4201C66.5131 79.2402 66.2225 78.9959 65.9885 78.7017C65.7545 78.4075 65.5818 78.0694 65.4807 77.7073C65.3796 77.3453 65.3521 76.9666 65.3998 76.5938L67.2748 57.8438C67.3497 57.1026 67.7155 56.4215 68.2919 55.9497C68.8684 55.478 69.6123 55.2542 70.3536 55.3275Z" fill="#FFC087"/>
<path fill-rule="evenodd" clip-rule="evenodd" d="M53.6625 21.5625H66.3412C67.155 21.5625 67.86 21.5625 68.5275 21.6675C69.8283 21.8752 71.0625 22.3847 72.131 23.155C73.1996 23.9254 74.073 24.9352 74.6812 26.1037C74.9925 26.7037 75.2175 27.375 75.4725 28.1438L75.8925 29.4L76.0012 29.7187C76.3406 30.6606 76.9725 31.469 77.8045 32.0257C78.6365 32.5824 79.6249 32.8581 80.625 32.8125H91.875C92.6209 32.8125 93.3363 33.1088 93.8637 33.6363C94.3912 34.1637 94.6875 34.8791 94.6875 35.625C94.6875 36.3709 94.3912 37.0863 93.8637 37.6137C93.3363 38.1412 92.6209 38.4375 91.875 38.4375H28.125C27.3791 38.4375 26.6637 38.1412 26.1363 37.6137C25.6088 37.0863 25.3125 36.3709 25.3125 35.625C25.3125 34.8791 25.6088 34.1637 26.1363 33.6363C26.6637 33.1088 27.3791 32.8125 28.125 32.8125H39.7125C40.7141 32.7885 41.6817 32.4441 42.4733 31.83C43.265 31.2159 43.839 30.3642 44.1112 29.4L44.5312 28.1438C44.7862 27.375 45.0112 26.7037 45.3225 26.1037C45.9303 24.9357 46.8031 23.9261 47.871 23.1558C48.9389 22.3855 50.1723 21.8758 51.4725 21.6675C52.1437 21.5625 52.8487 21.5625 53.6625 21.5625ZM48.7837 32.8125C49.047 32.2968 49.2666 31.7599 49.44 31.2075L49.815 30.0825C50.1525 29.0588 50.235 28.8525 50.31 28.7025C50.5124 28.3125 50.8034 27.9754 51.1596 27.7182C51.5159 27.461 51.9274 27.2908 52.3612 27.2213C52.53 27.195 52.7512 27.1875 53.835 27.1875H66.1725C67.2525 27.1875 67.4737 27.195 67.6425 27.225C68.076 27.2941 68.4873 27.4637 68.8435 27.7203C69.1997 27.9769 69.4909 28.3132 69.6937 28.7025C69.7687 28.8525 69.8475 29.0588 70.1925 30.0863L70.5675 31.2112L70.71 31.635C70.86 32.04 71.0287 32.4337 71.2237 32.8125H48.7837ZM34.8862 45.945C35.6301 45.8956 36.3631 46.1436 36.9243 46.6344C37.4854 47.1252 37.8287 47.8187 37.8787 48.5625L39.6037 74.4375C39.9412 79.4888 40.1812 83.0063 40.7062 85.65C41.22 88.2188 41.9325 89.5762 42.9562 90.5362C43.9837 91.4962 45.3862 92.1188 47.9812 92.4563C50.655 92.805 54.1837 92.8125 59.2462 92.8125H62.1487C67.2112 92.8125 70.7362 92.805 73.4137 92.4563C76.0087 92.1188 77.4112 91.4962 78.4387 90.5362C79.4625 89.5762 80.175 88.2188 80.6887 85.65C81.2137 83.0063 81.4537 79.4888 81.7912 74.4375L83.5162 48.5625C83.5409 48.1939 83.6378 47.8338 83.8017 47.5026C83.9655 47.1715 84.1929 46.8759 84.4709 46.6327C84.749 46.3894 85.0722 46.2033 85.4222 46.085C85.7722 45.9667 86.142 45.9185 86.5106 45.9431C86.8792 45.9677 87.2394 46.0647 87.5705 46.2285C87.9016 46.3923 88.1972 46.6198 88.4405 46.8978C88.6837 47.1759 88.8698 47.4991 88.9881 47.8491C89.1064 48.1991 89.1546 48.5689 89.13 48.9375L87.39 75.0075C87.0712 79.815 86.8125 83.7 86.205 86.7525C85.5712 89.9213 84.4987 92.5688 82.2787 94.6425C80.0625 96.72 77.3475 97.6163 74.1412 98.0325C71.0587 98.4375 67.1662 98.4375 62.3437 98.4375H59.0512C54.2287 98.4375 50.3362 98.4375 47.2537 98.0362C44.0475 97.6162 41.3325 96.72 39.1162 94.6425C36.8962 92.5688 35.8237 89.9175 35.19 86.7525C34.5825 83.7 34.3275 79.815 34.005 75.0075L32.265 48.9375C32.2405 48.5689 32.289 48.1991 32.4075 47.8492C32.526 47.4993 32.7123 47.1761 32.9557 46.8982C33.1991 46.6203 33.4949 46.3931 33.8261 46.2296C34.1574 46.066 34.5176 45.9693 34.8862 45.945Z" fill="#FFC087"/>
</g>
<defs>
<clipPath id="clip0_4101_244">
<rect width="120" height="120" fill="white"/>
</clipPath>
</defs>
</svg>
