<svg width="120" height="120" viewBox="0 0 120 120" fill="none" xmlns="http://www.w3.org/2000/svg">
<g clip-path="url(#clip0_4101_248)">
<mask id="mask0_4101_248" style="mask-type:luminance" maskUnits="userSpaceOnUse" x="0" y="0" width="120" height="120">
<path d="M120 0H0V120H120V0Z" fill="white"/>
</mask>
<g mask="url(#mask0_4101_248)">
<mask id="mask1_4101_248" style="mask-type:luminance" maskUnits="userSpaceOnUse" x="0" y="0" width="120" height="120">
<path d="M120 0H0V120H120V0Z" fill="white"/>
</mask>
<g mask="url(#mask1_4101_248)">
<path d="M120 60C120 26.8629 93.1371 0 60 0C26.8629 0 0 26.8629 0 60C0 93.1371 26.8629 120 60 120C93.1371 120 120 93.1371 120 60Z" fill="black"/>
<path fill-rule="evenodd" clip-rule="evenodd" d="M70.9651 48.9905C71.2265 49.2517 71.4338 49.5618 71.5752 49.9032C71.7167 50.2445 71.7895 50.6104 71.7895 50.9799C71.7895 51.3494 71.7167 51.7152 71.5752 52.0566C71.4338 52.3979 71.2265 52.7081 70.9651 52.9693L52.9951 70.9393C52.7376 71.2156 52.4271 71.4372 52.0821 71.5909C51.7371 71.7447 51.3647 71.8273 50.9871 71.834C50.6094 71.8406 50.2343 71.7712 49.8841 71.6297C49.5339 71.4883 49.2158 71.2777 48.9487 71.0106C48.6816 70.7436 48.4711 70.4255 48.3297 70.0752C48.1882 69.725 48.1187 69.3499 48.1254 68.9723C48.1321 68.5947 48.2147 68.2222 48.3684 67.8772C48.5222 67.5322 48.7438 67.2217 49.0201 66.9643L66.9901 48.9905C67.5175 48.4638 68.2323 48.168 68.9776 48.168C69.7229 48.168 70.4378 48.4638 70.9651 48.9905Z" fill="#FFC087"/>
<path fill-rule="evenodd" clip-rule="evenodd" d="M49.0121 48.9866C49.5394 48.4599 50.2543 48.1641 50.9996 48.1641C51.7449 48.1641 52.4597 48.4599 52.9871 48.9866L70.9871 66.9866C71.4839 67.5198 71.7543 68.2249 71.7415 68.9536C71.7286 69.6822 71.4334 70.3774 70.9181 70.8927C70.4029 71.408 69.7077 71.7032 68.979 71.716C68.2504 71.7289 67.5452 71.4584 67.0121 70.9616L49.0121 52.9616C48.4854 52.4343 48.1895 51.7194 48.1895 50.9741C48.1895 50.2288 48.4854 49.5139 49.0121 48.9866Z" fill="#FFC087"/>
<path fill-rule="evenodd" clip-rule="evenodd" d="M30.9113 30.9113C37.1663 24.66 46.8375 22.5 60 22.5C73.1625 22.5 82.8337 24.66 89.0887 30.9113C95.3437 37.1663 97.5 46.8375 97.5 60C97.5 73.1625 95.3437 82.8375 89.0887 89.0887C82.8337 95.3437 73.1625 97.5 60 97.5C46.8375 97.5 37.1663 95.3437 30.9113 89.0887C24.66 82.8337 22.5 73.1625 22.5 60C22.5 46.8375 24.66 37.1663 30.9113 30.9113ZM34.89 34.89C30.3037 39.4762 28.125 47.1525 28.125 60C28.125 72.8513 30.3037 80.5237 34.89 85.11C39.4762 89.7 47.1525 91.875 60 91.875C72.8475 91.875 80.5237 89.7 85.11 85.11C89.6962 80.5237 91.875 72.8513 91.875 60C91.875 47.1487 89.6962 39.4762 85.11 34.89C80.5237 30.3037 72.8475 28.125 60 28.125C47.1525 28.125 39.4762 30.3037 34.89 34.89Z" fill="#FFC087"/>
</g>
</g>
</g>
<defs>
<clipPath id="clip0_4101_248">
<rect width="120" height="120" fill="white"/>
</clipPath>
</defs>
</svg>
