<svg width="120" height="120" viewBox="0 0 120 120" fill="none" xmlns="http://www.w3.org/2000/svg">
<g clip-path="url(#clip0_4101_261)">
<mask id="mask0_4101_261" style="mask-type:luminance" maskUnits="userSpaceOnUse" x="0" y="0" width="120" height="120">
<path d="M120 0H0V120H120V0Z" fill="white"/>
</mask>
<g mask="url(#mask0_4101_261)">
<mask id="mask1_4101_261" style="mask-type:luminance" maskUnits="userSpaceOnUse" x="0" y="0" width="120" height="120">
<path d="M120 0H0V120H120V0Z" fill="white"/>
</mask>
<g mask="url(#mask1_4101_261)">
<path d="M120 60C120 26.8629 93.1371 0 60 0C26.8629 0 0 26.8629 0 60C0 93.1371 26.8629 120 60 120C93.1371 120 120 93.1371 120 60Z" fill="black"/>
<path fill-rule="evenodd" clip-rule="evenodd" d="M75.3373 49.1137C75.864 49.641 76.1599 50.3559 76.1599 51.1012C76.1599 51.8465 75.864 52.5614 75.3373 53.0887L57.5398 70.8862C57.0125 71.4129 56.2977 71.7087 55.5523 71.7087C54.807 71.7087 54.0921 71.4129 53.5647 70.8862L44.6622 61.9949C44.3935 61.7356 44.1791 61.4254 44.0315 61.0823C43.884 60.7393 43.8063 60.3702 43.8029 59.9968C43.7995 59.6234 43.8705 59.253 44.0117 58.9073C44.153 58.5616 44.3617 58.2474 44.6256 57.9832C44.8896 57.719 45.2034 57.5101 45.5489 57.3685C45.8945 57.2269 46.2648 57.1556 46.6383 57.1586C47.0117 57.1617 47.3809 57.2391 47.7241 57.3863C48.0673 57.5336 48.3778 57.7477 48.6373 58.0162L55.5523 64.9237L71.3622 49.1174C71.8896 48.5908 72.6044 48.2949 73.3497 48.2949C74.0951 48.2949 74.81 48.587 75.3373 49.1137Z" fill="#FFC087"/>
<path fill-rule="evenodd" clip-rule="evenodd" d="M30.9113 30.9113C37.1663 24.66 46.8375 22.5 60 22.5C73.1625 22.5 82.8337 24.66 89.0887 30.9113C95.34 37.1663 97.5 46.8375 97.5 60C97.5 73.1625 95.34 82.8375 89.0887 89.0887C82.8337 95.3437 73.1625 97.5 60 97.5C46.8375 97.5 37.1625 95.3437 30.9113 89.0887C24.6563 82.8337 22.5 73.1625 22.5 60C22.5 46.8375 24.6563 37.1663 30.9113 30.9113ZM34.8862 34.89C30.3075 39.4762 28.125 47.1525 28.125 60C28.125 72.8513 30.3 80.5237 34.89 85.11C39.4762 89.7 47.1487 91.875 60 91.875C72.8513 91.875 80.5237 89.7 85.11 85.11C89.6962 80.5237 91.875 72.8513 91.875 60C91.875 47.1487 89.6962 39.4762 85.11 34.89C80.5237 30.3037 72.8475 28.125 60 28.125C47.1487 28.125 39.4725 30.3037 34.8862 34.89Z" fill="#FFC087"/>
</g>
</g>
</g>
<defs>
<clipPath id="clip0_4101_261">
<rect width="120" height="120" fill="white"/>
</clipPath>
</defs>
</svg>
