<svg width="327" height="118" viewBox="0 0 327 118" fill="none" xmlns="http://www.w3.org/2000/svg">
<path d="M24.2369 17.1978V31.4535H10.6428V17.1978H0.0170898V55.2987H10.6428V40.8289H24.28V55.2987H34.8627V17.1978H24.2369V17.1978Z" fill="white"/>
<path d="M69.6653 41.2998C69.6653 32.6522 64.9762 25.2032 54.7376 25.2032C46.0047 25.2032 39.8099 32.0101 39.8099 40.6149V40.7433C39.8099 49.9047 46.3919 56.0265 55.684 56.0265C61.5777 56.0265 65.7075 53.6292 68.5468 50.0331L62.7822 45.2812C60.6313 47.3361 58.6954 48.2779 56.2003 48.2779C52.9738 48.2779 50.6078 46.6511 49.7904 43.4403H69.5793C69.6653 42.7126 69.6653 41.9848 69.6653 41.2998ZM49.6613 38.1319C50.2206 34.9211 52.0704 32.7806 54.8237 32.7806C57.6629 32.7806 59.5988 34.8355 59.943 38.1319H49.6613Z" fill="white"/>
<path d="M98.4022 29.0133C96.0361 26.6588 92.4225 25.4173 87.1312 25.4173C82.0549 25.4173 78.4843 26.3591 75.1718 27.6862L77.3228 34.964C79.9469 33.9365 82.356 33.3372 85.4534 33.3372C89.4542 33.3372 91.347 35.0924 91.347 38.1319V38.6028C89.6693 38.0035 86.9591 37.4469 84.2489 37.4469C77.3228 37.4469 72.6337 40.6149 72.6337 46.6939V46.8223C72.6337 52.6873 76.9356 55.8981 82.5711 55.8981C86.4428 55.8981 89.2391 54.4425 91.261 52.2164V55.2559H101.543V38.3888C101.543 34.2362 100.639 31.1967 98.4022 29.0133ZM91.4331 44.639C91.4331 47.5929 89.2821 49.4766 86.2708 49.4766C84.1198 49.4766 82.6141 48.2779 82.6141 46.2658V46.1374C82.6141 43.9541 84.3779 42.4985 87.3893 42.4985C88.938 42.4985 90.4006 42.841 91.4331 43.2691V44.639Z" fill="white"/>
<path d="M107.092 15.571V55.2988H117.46V15.571H107.092Z" fill="white"/>
<path d="M142.368 34.1933V25.8454H135.485V18.3964H125.074V25.8454H121.59V34.1505H125.074V46.1374C125.074 53.1582 128.774 55.8981 135.012 55.8981C137.894 55.8981 140.389 55.2559 142.239 54.2285V46.1374C140.991 46.7367 139.658 47.122 138.281 47.122C136.345 47.122 135.442 46.2658 135.442 44.1681V34.1933H142.368Z" fill="white"/>
<path d="M166.071 25.2033C161.856 25.2033 159.145 27.4294 157.209 29.8696V15.571H146.842V55.2988H157.209V39.3306C157.209 36.1198 159.059 34.3646 161.597 34.3646C164.05 34.3646 165.77 36.1198 165.77 39.3306V55.2988H176.181V36.0342C176.138 29.3558 172.352 25.2033 166.071 25.2033Z" fill="white"/>
<path d="M200.874 25.8454L195.282 43.5688L189.388 25.8454H178.504L190.119 54.7422C189.474 55.684 188.743 55.9409 187.71 55.9409C186.549 55.9409 184.828 55.3416 183.193 54.3569L179.967 61.5918C182.72 63.133 185.817 64.1604 189.474 64.1604C195.368 64.1604 198.164 61.4206 200.745 54.571L211.586 25.8454H200.874V25.8454Z" fill="white"/>
<path d="M127.827 66.0869L120.557 90.1462L112.513 66.0013H102.575L94.5305 90.1462L87.2602 66.0869H75.0427L88.981 107.955H99.0475L107.393 84.0243L115.782 107.955H125.848L139.787 66.0869H127.827V66.0869Z" fill="white"/>
<path d="M171.019 92.3723C171.019 82.9541 165.899 74.8202 154.714 74.8202C145.164 74.8202 138.41 82.2263 138.41 91.6017V91.7302C138.41 101.705 145.551 108.426 155.704 108.426C162.157 108.426 166.631 105.815 169.728 101.876L163.49 96.6962C161.167 98.9651 159.016 99.9497 156.349 99.9497C152.822 99.9497 150.283 98.1517 149.38 94.6841H170.976C171.019 93.9135 171.019 93.1001 171.019 92.3723ZM149.208 88.9475C149.81 85.4371 151.832 83.1253 154.8 83.1253C157.898 83.1253 160.006 85.3943 160.393 88.9475H149.208Z" fill="white"/>
<path d="M202.337 78.9728C199.756 76.4042 195.841 75.0342 190.033 75.0342C184.484 75.0342 180.612 76.0617 176.955 77.5172L179.278 85.4799C182.161 84.3668 184.785 83.6819 188.183 83.6819C192.528 83.6819 194.636 85.5655 194.636 88.9047V89.4612C192.786 88.8191 189.861 88.2198 186.893 88.2198C179.321 88.2198 174.245 91.6446 174.245 98.3229V98.4514C174.245 104.873 178.977 108.341 185.086 108.341C189.302 108.341 192.356 106.757 194.55 104.316V107.656H205.778V89.2044C205.778 84.6665 204.789 81.3273 202.337 78.9728ZM194.765 96.0112C194.765 99.2219 192.442 101.277 189.173 101.277C186.85 101.277 185.172 99.9925 185.172 97.7664V97.638C185.172 95.2834 187.065 93.6566 190.377 93.6566C192.055 93.6566 193.647 93.9991 194.808 94.47V96.0112H194.765Z" fill="white"/>
<path d="M211.801 64.2889V107.613H223.115V64.2889H211.801Z" fill="white"/>
<path d="M250.303 84.6237V75.5479H242.775V67.414H231.461V75.5479H227.632V84.6237H231.461V97.6807C231.461 105.344 235.505 108.298 242.302 108.298C245.485 108.298 248.152 107.57 250.174 106.457V97.5951C248.798 98.2373 247.378 98.6654 245.872 98.6654C243.807 98.6654 242.775 97.7236 242.775 95.4546V84.5809H250.303V84.6237Z" fill="white"/>
<path d="M276.158 74.8202C271.555 74.8202 268.586 77.2603 266.478 79.9146V64.2889H255.164V107.613H266.478V90.2318C266.478 86.7214 268.5 84.8377 271.254 84.8377C273.921 84.8377 275.771 86.7214 275.771 90.2318V107.613H287.085V86.5929C287.128 79.3152 283.041 74.8202 276.158 74.8202Z" fill="white"/>
<path d="M314.101 75.5052L308.035 94.8553L301.582 75.5052H289.709L302.357 107.013C301.625 108.041 300.851 108.298 299.732 108.298C298.485 108.298 296.592 107.656 294.785 106.585L291.258 114.462C294.226 116.132 297.624 117.245 301.625 117.245C308.078 117.245 311.089 114.291 313.929 106.799L325.759 75.4623H314.101V75.5052Z" fill="white"/>
<path d="M232.45 30.897C232.45 32.4381 231.203 33.6796 229.654 33.6796H219.157C218.383 33.6796 217.695 33.3799 217.178 32.8662C216.662 32.3525 216.361 31.6675 216.361 30.897C216.361 29.3558 217.609 28.1571 219.157 28.1571H229.654C230.428 28.1571 231.117 28.4568 231.633 28.9705C232.149 29.4842 232.45 30.1692 232.45 30.897Z" fill="white"/>
<path d="M229.869 19.8948C229.869 18.3964 231.117 17.1549 232.665 17.1549H232.536C231.031 17.1549 229.74 18.3964 229.74 19.8948C229.74 20.6654 230.041 21.3503 230.557 21.864C231.074 22.3778 231.762 22.6774 232.536 22.6774H232.665C231.891 22.6774 231.203 22.3778 230.686 21.864C230.17 21.3503 229.869 20.6654 229.869 19.8948ZM231.16 52.987C231.16 51.4458 232.407 50.2043 233.956 50.2043H233.827C232.278 50.2043 231.031 51.4458 231.031 52.987C231.031 53.7576 231.332 54.4425 231.848 54.9134C232.321 55.4272 233.052 55.7268 233.827 55.7268H233.956C233.182 55.7268 232.493 55.4272 231.977 54.9134C231.461 54.4425 231.16 53.7576 231.16 52.987ZM237.957 30.897C237.957 29.3986 239.204 28.1571 240.753 28.1571H240.624C239.118 28.1571 237.828 29.3986 237.828 30.897C237.828 31.6676 238.129 32.3525 238.645 32.8662C239.161 33.38 239.85 33.6796 240.624 33.6796H240.753C239.979 33.6796 239.29 33.38 238.774 32.8662C238.301 32.3525 237.957 31.6676 237.957 30.897ZM241.914 45.4952C241.441 44.9815 240.753 44.6818 239.979 44.6818H239.85C240.624 44.6818 241.312 44.9815 241.785 45.4952C242.302 46.0089 242.603 46.6939 242.603 47.4645C242.603 48.9628 241.355 50.2043 239.85 50.2043H239.979C241.527 50.2043 242.732 48.9628 242.732 47.4645C242.732 46.6939 242.388 46.0089 241.914 45.4952ZM248.367 34.493C247.894 33.9793 247.206 33.6796 246.431 33.6796H246.302C247.077 33.6796 247.765 33.9793 248.238 34.493C248.755 34.9639 249.056 35.6917 249.056 36.4195C249.056 37.9178 247.808 39.1593 246.302 39.1593H246.431C247.98 39.1593 249.185 37.9178 249.185 36.4195C249.142 35.6489 248.841 34.9639 248.367 34.493ZM253.013 23.448C252.54 22.9343 251.809 22.6346 251.078 22.6346H250.948C251.723 22.6346 252.411 22.9343 252.884 23.448C253.401 23.9617 253.702 24.6467 253.702 25.3745C253.702 26.9156 252.454 28.1571 250.948 28.1571H251.078C252.626 28.1571 253.831 26.9156 253.831 25.3745C253.831 24.6467 253.53 23.9617 253.013 23.448ZM325.888 41.1714C325.888 41.1286 325.888 41.1286 325.888 41.1286L325.458 41.4283C325.458 41.4711 325.458 41.5139 325.458 41.5567H325.931C325.931 41.4283 325.931 41.2998 325.888 41.1714ZM325.501 46.7367C325.501 47.5929 325.458 48.2351 325.458 48.2351H326.017C326.017 48.2351 326.017 47.807 326.017 46.7367H325.501ZM293.365 17.1121H289.967L278.051 23.9617C277.147 24.5183 276.545 25.4601 276.545 26.5303V36.6763V42.4985C276.545 43.1407 277.233 43.526 277.793 43.2263L289.236 36.7191L291.042 35.6917C292.505 34.8783 293.365 33.3371 293.365 31.6676V17.1121ZM279.986 33.2515C278.825 32.695 278.825 30.8114 279.986 29.0561C280.589 28.1571 281.32 27.4722 282.094 27.0441C282.869 26.6588 283.6 26.5303 284.202 26.7872L284.848 27.0869L283.256 29.527L282.267 29.0561L282.955 28.0287L280.589 29.2702V31.6247L281.277 30.5973L282.31 31.0682C281.707 32.2669 281.621 33.4656 282.051 34.1505L279.986 33.2515ZM290.096 27.9003L287.472 31.9244L286.827 32.909L285.02 35.6917L282.912 34.7071C282.783 34.6643 282.697 34.5786 282.611 34.5358C281.879 33.9365 281.836 32.6094 282.482 31.2395C282.611 30.9826 282.74 30.7257 282.912 30.5117L283.428 29.6983L285.02 27.2581L285.88 25.9738C286.999 24.2614 288.848 23.234 290.01 23.7049C290.053 23.7049 290.053 23.7477 290.096 23.7477C291.258 24.2614 291.258 26.1451 290.096 27.9003Z" fill="white"/>
<path d="M325.458 48.1923C325.458 48.1923 325.458 47.5501 325.501 46.6939H322.145C320.726 46.6939 319.564 45.538 319.564 44.1253C319.564 42.7126 320.726 41.5567 322.145 41.5567H325.501C325.501 41.5139 325.501 41.4711 325.501 41.4283L325.931 41.1286C325.501 38.56 323.78 36.3339 321.328 35.3064L316.295 33.1659L310.745 22.1209C309.197 19.0386 306.099 17.1549 302.658 17.1549H294.957V34.6215C294.957 35.0924 294.699 35.5633 294.269 35.8201L275.426 46.6511C274.996 46.908 274.48 46.908 274.05 46.6511L260.284 38.7312L255.164 35.7773C254.734 35.5205 254.476 35.0924 254.476 34.5786V17.1121H232.622C231.117 17.1121 229.826 18.3536 229.826 19.852C229.826 20.6225 230.127 21.3075 230.643 21.8212C231.16 22.335 231.848 22.6346 232.622 22.6346H251.035C251.809 22.6346 252.497 22.9343 252.97 23.448C253.487 23.9617 253.788 24.6467 253.788 25.3745C253.788 26.9156 252.54 28.1571 251.035 28.1571H240.71C239.161 28.1571 237.914 29.3986 237.914 30.897C237.914 31.6676 238.215 32.3525 238.731 32.8662C239.247 33.38 239.936 33.6796 240.71 33.6796H246.345C247.12 33.6796 247.808 33.9793 248.281 34.493C248.798 34.9639 249.099 35.6917 249.099 36.4195C249.099 37.9178 247.851 39.1593 246.345 39.1593H222.212C220.706 39.1593 219.458 40.4008 219.458 41.8992C219.458 42.6698 219.76 43.3547 220.276 43.8256C220.749 44.3393 221.437 44.639 222.212 44.639H239.893C240.667 44.639 241.355 44.9387 241.828 45.4524C242.345 45.9661 242.646 46.6511 242.646 47.4217C242.646 48.92 241.398 50.1615 239.893 50.1615H233.913C232.364 50.1615 231.117 51.403 231.117 52.9442C231.117 53.7148 231.418 54.3997 231.934 54.8706C232.407 55.3843 233.139 55.684 233.913 55.684H257.014C258.477 58.7235 261.574 60.8212 265.188 60.8212C268.801 60.8212 271.899 58.7235 273.362 55.684H300.98C302.443 58.7235 305.54 60.8212 309.154 60.8212C312.767 60.8212 315.865 58.7235 317.327 55.684H323.35C324.77 55.684 325.931 54.5282 325.931 53.1154V48.1923H325.458V48.1923ZM265.231 55.7268C263.08 55.7268 261.359 54.0144 261.359 51.8739C261.359 49.7334 263.08 48.021 265.231 48.021C267.382 48.021 269.103 49.7334 269.103 51.8739C269.103 53.9716 267.382 55.7268 265.231 55.7268ZM296.592 33.4228C296.592 33.4228 296.291 21.2647 296.291 21.2219L303.733 21.1363C304.981 21.1363 306.142 21.7356 306.744 22.8059L312.208 33.38H296.592V33.4228ZM309.197 55.7268C307.046 55.7268 305.325 54.0144 305.325 51.8739C305.325 49.7334 307.046 48.021 309.197 48.021C311.348 48.021 313.068 49.7334 313.068 51.8739C313.068 53.9716 311.348 55.7268 309.197 55.7268Z" fill="white"/>
<path d="M254.777 13.987C254.777 13.987 254.648 14.0298 254.476 14.1154V13.2164C254.562 13.3449 254.605 13.4733 254.648 13.5589C254.734 13.8158 254.777 13.987 254.777 13.987Z" fill="white"/>
<path d="M257.143 11.0331C257.143 11.0331 257.014 10.9903 256.799 10.8619L257.53 10.4338C257.401 10.605 257.272 10.8191 257.143 11.0331Z" fill="white"/>
<path d="M293.365 17.1121V16.5984C293.365 15.9562 292.677 15.5709 292.118 15.9134L289.967 17.1549L278.051 24.0045C277.147 24.5611 276.545 25.5029 276.545 26.5731V36.7191V42.5413C276.545 43.1835 277.233 43.5687 277.792 43.2691L289.236 36.7191L291.042 35.6917C292.505 34.8783 293.365 33.3371 293.365 31.6675V17.1121ZM279.986 33.2515C278.825 32.695 278.825 30.8113 279.986 29.0561C280.589 28.1571 281.32 27.4722 282.094 27.0441C282.869 26.6588 283.6 26.5303 284.202 26.7872L284.848 27.0869L283.256 29.527L282.266 29.0561L282.955 28.0287L280.589 29.2702V31.6247L281.277 30.5973L282.31 31.0682C281.707 32.2669 281.621 33.4656 282.051 34.1505L279.986 33.2515ZM290.096 27.9003L287.472 31.9244L286.827 32.909L285.02 35.6917L282.912 34.7071C282.783 34.6642 282.697 34.5786 282.611 34.5358C281.879 33.9365 281.836 32.6094 282.482 31.2394C282.611 30.9826 282.74 30.7257 282.912 30.5117L283.428 29.6983L285.02 27.2581L285.88 25.9738C286.999 24.2614 288.848 23.234 290.01 23.7049C290.053 23.7049 290.053 23.7477 290.096 23.7477C291.258 24.2614 291.258 26.145 290.096 27.9003Z" fill="white"/>
<path d="M293.365 17.1121V16.5984C293.365 15.9562 292.677 15.5709 292.118 15.9134L289.967 17.1549L278.051 24.0045C277.147 24.5611 276.545 25.5029 276.545 26.5731V36.7191V42.5413C276.545 43.1835 277.233 43.5687 277.792 43.2691L289.236 36.7191L291.042 35.6917C292.505 34.8783 293.365 33.3371 293.365 31.6675V17.1121ZM279.986 33.2515C278.825 32.695 278.825 30.8113 279.986 29.0561C280.589 28.1571 281.32 27.4722 282.094 27.0441C282.869 26.6588 283.6 26.5303 284.202 26.7872L284.848 27.0869L283.256 29.527L282.266 29.0561L282.955 28.0287L280.589 29.2702V31.6247L281.277 30.5973L282.31 31.0682C281.707 32.2669 281.621 33.4656 282.051 34.1505L279.986 33.2515ZM290.096 27.9003L287.472 31.9244L286.827 32.909L285.02 35.6917L282.912 34.7071C282.783 34.6642 282.697 34.5786 282.611 34.5358C281.879 33.9365 281.836 32.6094 282.482 31.2394C282.611 30.9826 282.74 30.7257 282.912 30.5117L283.428 29.6983L285.02 27.2581L285.88 25.9738C286.999 24.2614 288.848 23.234 290.01 23.7049C290.053 23.7049 290.053 23.7477 290.096 23.7477C291.258 24.2614 291.258 26.145 290.096 27.9003Z" fill="white"/>
<path d="M254.777 13.987C254.777 13.987 254.648 14.0298 254.476 14.1154C254.476 14.1154 254.476 14.1154 254.433 14.1154C254.433 14.0726 254.433 14.0298 254.476 14.0298C254.519 13.8586 254.562 13.7301 254.648 13.5589C254.734 13.8158 254.777 13.987 254.777 13.987Z" fill="white"/>
<path d="M290.182 11.3328L277.104 3.75537C275.685 2.94198 273.878 2.94198 272.415 3.75537L259.165 11.4184C258.606 11.7609 258.606 12.5314 259.165 12.8739L266.607 17.1549L273.06 20.8366C273.964 21.3931 275.125 21.3931 276.029 20.8366L282.482 17.1549L290.182 12.7455C290.741 12.4458 290.741 11.6324 290.182 11.3328ZM272.63 7.99357C272.759 7.86514 272.931 7.82233 273.103 7.82233C273.232 7.82233 273.318 7.86514 273.448 7.90795L275.512 9.06382C275.9 9.27787 275.986 9.8344 275.642 10.1769L275.555 10.2625C275.34 10.4766 274.996 10.5194 274.738 10.3481L272.759 9.10663C272.372 8.84977 272.286 8.29324 272.63 7.99357ZM269.576 10.0485C269.705 9.92002 269.877 9.87721 270.049 9.87721C270.178 9.87721 270.307 9.92002 270.393 9.96283L272.458 11.1187C272.888 11.3328 272.931 11.8893 272.587 12.2318L272.501 12.3174C272.286 12.5314 271.942 12.5742 271.641 12.403L269.662 11.1615C269.275 10.9047 269.232 10.3481 269.576 10.0485ZM280.976 12.5742C278.352 16.6412 272.329 15.4853 270.393 15.0572C268.5 14.6291 267.64 14.1582 267.855 13.6445C268.07 13.1308 268.931 13.2592 269.791 13.5161C270.651 13.7729 270.092 13.6873 272.415 14.1582C274.738 14.5863 279.298 13.6445 279.513 11.2043C279.685 9.49192 278.051 8.50729 278.051 8.50729C277.792 8.25043 277.448 7.99357 277.62 7.60828C277.836 7.18018 278.739 7.35142 279.126 7.52266C279.556 7.65109 282.697 9.92002 280.976 12.5742Z" fill="white"/>
<path d="M270.78 23.3196L264.844 19.9376L259.896 17.1121L257.487 15.7422C256.928 15.4425 256.24 15.8278 256.24 16.47V17.1121V32.4381C256.24 33.5084 256.799 34.493 257.745 35.0067L260.456 36.5479L260.757 36.7191L271.813 43.055C272.372 43.3547 273.06 42.9694 273.06 42.3701V36.5479V27.3009C273.103 25.717 272.243 24.1758 270.78 23.3196ZM268.07 35.9058C266.909 36.5479 265.446 36.1626 264.758 35.0067L262.263 30.6401L259.81 26.3163C259.165 25.1604 259.552 23.6621 260.714 23.0199C261.101 22.8059 261.488 22.7202 261.918 22.7202C262.693 22.7202 263.467 23.1055 263.94 23.7905C263.983 23.8333 264.026 23.8761 264.026 23.9617L268.974 32.695C269.619 33.8081 269.232 35.2636 268.07 35.9058Z" fill="white"/>
<path d="M265.489 28.1571L262.607 29.8267L262.306 29.2702L260.456 26.0166C260.026 25.2032 260.284 24.2186 261.101 23.7477C261.359 23.6193 261.66 23.5336 261.918 23.5336C262.521 23.5336 263.08 23.8333 263.381 24.3898L263.467 24.5611L265.489 28.1571Z" fill="white"/>
<path d="M257.53 10.3909C257.401 10.605 257.272 10.819 257.143 10.9903C257.143 10.9903 257.014 10.9475 256.799 10.819C255.293 10.0056 249.615 6.53803 253.659 0.330566C253.659 0.330566 257.057 1.65768 257.832 4.35472C258.52 6.70927 258.477 8.72135 257.53 10.3909Z" fill="white"/>
<path d="M254.777 13.987C254.777 13.987 254.648 14.0298 254.476 14.1154C254.476 14.1154 254.476 14.1154 254.433 14.1154C253.401 14.5435 250.174 15.7422 246.13 14.886C241.183 13.8585 239.763 9.10661 239.763 9.10661C239.763 9.10661 241.14 7.35139 246.905 7.60825C251.422 7.8223 253.659 11.5468 254.433 13.1736C254.519 13.302 254.562 13.4304 254.605 13.516C254.734 13.8157 254.777 13.987 254.777 13.987Z" fill="white"/>
<path d="M326.017 46.7367C326.017 47.807 326.017 48.2351 326.017 48.2351H325.458C325.458 48.2351 325.458 47.5929 325.501 46.7367C325.544 45.0243 325.587 42.3273 325.501 41.5995C325.501 41.5567 325.501 41.5139 325.501 41.4711L325.931 41.1714V41.2142V41.257V41.6423C325.931 41.5567 326.017 45.6236 326.017 46.7367Z" fill="white"/>
</svg>
